<svg width="1139" height="612" viewBox="0 0 1139 612" fill="none" xmlns="http://www.w3.org/2000/svg">
<path d="M49.1233 460.499C93.6541 418.44 153.072 391.894 214.986 373.392C276.574 355.029 340.494 343.871 403.282 329.298C464.021 315.2 524.361 297.175 576.812 266.495C601.974 251.619 625.14 234.424 645.874 215.234C669.986 193.169 690.45 168.513 713.475 145.623C759.762 99.5187 813.353 59.0525 872.667 25.4179C880.289 21.1013 887.987 16.8881 895.761 12.7781C896.149 12.5699 895.721 12.078 895.37 12.2839C835.056 44.2668 779.875 82.4365 731.843 127.064C719.52 138.542 707.632 150.319 696.176 162.393C684.851 174.352 674.114 186.616 662.489 198.334C641.733 219.268 618.896 238.805 593.369 255.525C542.405 288.994 482.476 309.36 421.298 324.421C358.701 339.83 294.734 350.676 232.662 367.751C172.052 384.41 112.416 407.52 65.5048 445.332C59.6317 450.065 54.0091 455.008 48.5962 460.117C48.2795 460.41 48.8076 460.808 49.1242 460.515L49.1233 460.499Z" fill="white"/>
<path d="M45.0927 464.327C69.2074 443.634 97.0381 426.062 126.074 410.712C155.541 395.178 186.661 382.077 218.997 371.595C251.334 361.085 284.898 353.653 318.531 347.105C352.834 340.43 387.579 335.295 421.6 327.53C480.403 314.074 535.504 290.455 583.409 258.17C607.749 241.696 630.369 223.326 651.657 204.017C675.641 182.226 697.317 158.76 721.869 137.38C769.249 96.133 823.004 60.8234 879.687 29.3331C887.074 25.2294 894.483 21.1916 901.916 17.2197C902.313 17.011 901.875 16.5116 901.524 16.7175C844.369 47.2985 789.422 81.1107 740.498 120.864C715.494 141.18 693.018 163.175 670.43 185.385C648.151 207.387 623.998 227.979 598.173 246.989C552.274 280.613 498.978 306.105 441.517 321.921C407.521 331.267 372.235 336.425 337.453 342.902C303.691 349.199 269.957 355.995 237.128 365.419C174.226 383.478 113.499 411.771 63.2214 449.051C56.7879 453.816 50.569 458.775 44.5646 463.929C44.238 464.215 44.7661 464.612 45.0927 464.327Z" fill="white"/>
<path d="M41.0617 468.159C67.5066 447.55 97.2932 429.686 127.271 412.99C156.095 396.935 186.375 382.168 218.232 370.934C249.417 359.934 282.313 352.831 315.22 347.068C349.39 341.055 384.183 337.75 418.159 330.859C449.78 324.444 480.02 312.925 508.345 299.288C533.053 287.363 556.057 273.178 577.701 257.545C601.484 240.352 624.166 221.915 646.169 203.097C671.066 181.753 694.312 159.068 720.278 138.584C770.655 98.8997 827.563 65.7008 885.081 34.1461C892.715 29.9365 900.375 25.7766 908.06 21.6663C908.448 21.4501 908.019 20.9582 907.669 21.1641C849.317 52.6379 791.197 85.1479 738.81 123.681C712.83 142.785 689.369 163.731 665.827 184.939C642.621 205.845 618.28 225.921 593.167 245.177C547.951 279.831 495.993 309.983 437.625 325.672C403.335 334.89 367.297 337.936 332.202 343.599C299.599 348.86 267.026 355.12 235.63 364.607C204.375 374.053 174.656 387.327 146.307 402.023C115.833 417.751 86.6255 435.211 58.8901 454.281C52.629 458.621 46.5104 463.117 40.5341 467.769C40.1872 468.032 40.7247 468.428 41.0622 468.167L41.0617 468.159Z" fill="white"/>
<path d="M36.9628 472.011C64.9266 452.291 95.277 434.782 125.016 417.083C153.576 400.09 183.2 383.205 215.065 370.954C245.598 359.248 278.34 352.276 311.027 347.155C327.527 344.527 344.114 342.351 360.787 340.627C378.369 338.803 396.006 337.266 413.407 334.297C445.492 328.816 475.387 316.614 503.252 302.092C526.952 289.732 548.685 274.975 569.307 259.151C593.48 240.611 616.862 221.261 640.343 202.131C666.737 180.645 692.037 158.213 720.222 138.359C773.194 101.036 832.348 70.4117 890.244 39.1258C898.253 34.803 906.239 30.4735 914.203 26.1372C914.601 25.9284 914.21 25.4262 913.822 25.6344C854.967 57.6298 794.664 88.3363 739.272 124.669C711.727 142.734 686.767 162.821 661.985 183.512C637.203 204.202 611.691 224.62 586.317 244.958C565.369 261.753 543.815 278.098 520.109 292.025C493.889 307.462 464.477 321.581 433.918 329.389C399.714 338.109 363.557 339.094 328.576 343.928C296.582 348.338 264.575 354.186 234.014 363.762C202.722 373.565 173.839 388.429 146.118 404.122C116.082 421.128 86.5471 439.058 57.6601 457.483C50.5179 462.022 43.4781 466.684 36.611 471.531C36.2631 471.777 36.6542 472.279 37.0021 472.033L36.9628 472.011Z" fill="white"/>
<path d="M32.9341 475.864C47.5764 466.547 62.7518 457.877 77.7748 449.047C93.3677 439.853 108.603 430.251 123.78 420.613C151.837 402.842 180.258 384.096 211.789 371.017C241.439 358.708 273.96 351.87 306.218 347.234C322.285 344.924 338.383 343.137 354.592 341.965C372.358 340.671 390.197 340.003 407.864 337.673C468.894 329.588 520.537 294.667 563.81 258.874C587.459 239.347 610.694 219.602 634.967 200.661C662.103 179.471 688.843 157.867 718.467 139.165C745.957 121.806 775.13 106.522 804.333 91.405C834.865 75.5654 865.594 59.981 895.926 43.8138C904.086 39.4608 912.234 35.0493 920.368 30.5793C920.434 30.5297 920.477 30.4619 920.489 30.3884C920.501 30.3148 920.481 30.2406 920.434 30.1793C920.386 30.1181 920.313 30.074 920.229 30.0552C920.145 30.0364 920.055 30.0442 919.977 30.0771C888.773 47.1667 857.04 63.5117 825.307 79.8567C796.008 94.9386 766.558 109.9 738.303 126.399C709.319 143.304 683.076 162.456 657.129 182.608C631.182 202.761 605.395 223.057 580.416 244.123C559.916 261.409 539.343 278.739 516.302 293.612C504.248 301.417 491.591 308.519 478.42 314.867C462.574 322.485 446.157 329.45 428.567 333.439C394.374 341.198 358.335 340.263 323.501 344.361C291.85 348.106 260.075 353.682 230.106 363.603C199 373.824 171.302 390.234 144.474 406.852C129.818 415.928 115.366 425.25 100.751 434.371C85.519 443.876 69.8565 452.856 54.3577 462.029C46.9854 466.379 39.7023 470.789 32.5329 475.354C32.1656 475.593 32.5758 476.094 32.9241 475.856L32.9341 475.864Z" fill="white"/>
<path d="M28.9033 479.69C43.8102 471.158 59.0674 463.081 73.9942 454.563C89.9085 445.487 105.191 435.706 120.236 425.606C147.364 407.412 173.922 387.289 204.228 372.956C233.207 359.258 266.275 352.484 298.608 348.006C314.34 345.828 330.222 344.102 346.103 343.014C364.014 341.776 381.993 342.028 399.9 340.709C417.596 339.371 435.201 336.294 451.402 329.704C466.148 323.664 480.289 316.585 493.672 308.543C517.227 294.472 537.727 277.355 557.553 259.632C580.642 238.991 603.783 218.605 628.817 199.636C656.828 178.428 685.184 157.409 716.509 139.78C745.406 123.51 776.046 109.691 806.306 95.4011C838.488 80.2331 870.524 64.8395 901.82 48.3583C910.119 43.9918 918.36 39.5507 926.542 35.0348C926.93 34.8267 926.501 34.3267 926.151 34.5407C894.289 52.1124 861.545 68.4352 828.455 84.2208C798.192 98.6318 767.49 112.358 737.818 127.598C706.666 143.603 678.44 162.256 650.874 182.422C624.167 201.956 598.385 222.155 574.1 243.859C553.801 261.989 533.931 280.595 511.092 296.498C498.972 304.937 486.102 312.563 472.605 319.306C455.932 327.626 438.838 334.589 419.834 337.699C402.002 340.644 383.853 340.895 365.807 341.462C349.245 341.976 332.778 343.308 316.311 345.133C284.808 348.651 252.97 353.948 223.412 364.402C192.864 375.196 166.657 393.321 140.962 410.746C126.29 420.71 111.623 430.747 96.5548 440.283C81.4867 449.818 65.8318 458.434 50.1303 467.07C42.8985 471.049 35.6676 475.044 28.5093 479.14C28.4706 479.162 28.4372 479.191 28.4112 479.224C28.3853 479.257 28.3671 479.294 28.3579 479.333C28.3486 479.372 28.3484 479.411 28.3573 479.45C28.3662 479.488 28.3839 479.525 28.4096 479.557C28.4352 479.59 28.4683 479.618 28.5068 479.639C28.5453 479.66 28.5886 479.675 28.6342 479.682C28.6797 479.689 28.7266 479.689 28.7722 479.681C28.8178 479.672 28.8613 479.656 28.9 479.634L28.9033 479.69Z" fill="white"/>
<path d="M24.8761 483.522C40.3602 475.578 56.0311 467.897 71.1947 459.519C87.498 450.399 103.154 440.461 118.076 429.758C144.671 410.917 169.734 389.322 199.334 373.835C227.916 358.875 261.574 351.583 294.289 347.446C309.77 345.505 325.35 344.291 340.957 343.81C359.031 343.249 377.198 344.289 395.264 343.567C413.329 342.845 431.226 340.203 447.731 333.596C462.962 327.548 477.463 319.579 490.88 310.979C514.238 295.999 533.867 277.657 553.049 259.01C575.608 237.116 598.617 216.092 624.522 197.024C652.766 176.222 682.02 156.242 714.283 140.157C744.849 124.896 777.251 112.534 808.89 99.0201C842.492 84.6823 875.603 69.5899 907.688 52.9096C916.076 48.538 924.394 44.0628 932.643 39.4839C932.709 39.4343 932.752 39.3665 932.764 39.2929C932.776 39.2194 932.756 39.1451 932.709 39.0839C932.661 39.0227 932.588 38.9786 932.504 38.9598C932.42 38.941 932.33 38.9488 932.251 38.9817C899.73 57.0114 865.947 73.3458 831.509 88.5555C800.323 102.325 768.354 114.752 737.252 128.662C721.163 135.788 705.529 143.65 690.421 152.211C674.74 161.192 660.07 171.181 645.456 181.32C618.191 200.273 592.443 220.406 569.004 242.722C549.365 261.387 530.777 280.912 508.762 297.696C482.541 317.727 450.425 336.517 415.211 341.275C397.348 343.689 379.281 343.224 361.326 343.06C344.833 342.875 328.323 343.506 311.88 344.951C280.109 347.782 247.884 353.32 218.488 364.58C188.093 376.213 163.122 395.946 138.151 414.362C123.692 425.033 109.114 435.614 93.7935 445.406C78.6479 455.083 62.5884 463.626 46.3608 471.896C39.0666 475.62 31.7501 479.289 24.4659 483.021C24.0772 483.221 24.4589 483.724 24.8571 483.523L24.8761 483.522Z" fill="white"/>
<path d="M20.8494 487.349C36.8932 480.018 52.9673 472.718 68.4047 464.461C84.5893 455.689 99.9536 445.855 114.354 435.053C141.056 415.269 164.959 391.755 194.398 374.792C221.817 359.003 255.263 351.505 287.493 347.55C303.238 345.631 319.092 344.566 334.958 344.36C352.757 344.138 370.424 345.756 388.198 345.931C405.972 346.106 424.076 344.566 440.837 338.768C457.085 333.153 472.333 324.254 486.095 315.052C509.767 299.23 528.835 279.589 547.547 259.734C569.24 236.727 591.875 214.998 618.344 195.8C647.139 174.95 677.607 155.521 711.173 140.725C744.152 126.157 779.096 115.238 812.878 102.182C847.069 88.9646 880.612 74.4205 912.82 57.8945C921.576 53.3994 930.23 48.7593 938.785 43.9744C938.851 43.9248 938.894 43.857 938.906 43.7834C938.918 43.7099 938.898 43.6356 938.851 43.5744C938.803 43.5132 938.73 43.4691 938.646 43.4503C938.562 43.4315 938.472 43.4393 938.394 43.4722C904.681 62.1489 869.528 78.8454 833.185 93.4415C800.448 106.744 766.669 117.878 733.712 130.685C717.125 137.059 701.008 144.307 685.459 152.386C669.597 160.708 654.682 170.267 640.01 180.045C611.801 198.827 585.876 219.366 562.881 242.771C543.559 262.459 525.791 283.317 503.928 301.086C477.498 322.607 444.922 341.834 407.875 344.736C389.955 346.152 372.051 344.725 354.19 344.031C338.021 343.438 321.802 343.798 305.649 345.111C273.994 347.628 241.658 353.221 212.739 365.172C183.077 377.433 159.743 398.451 136.017 417.458C121.827 428.832 107.318 439.95 91.7937 450.004C76.5177 459.898 60.0737 468.383 43.3207 476.304C35.7418 479.883 28.0903 483.362 20.4487 486.848C20.0496 487.032 20.4408 487.535 20.8399 487.35L20.8494 487.349Z" fill="white"/>
<path d="M16.7355 491.215C32.8362 484.704 48.8398 477.997 64.1205 470.162C80.7343 461.558 96.3421 451.606 110.719 440.45C137.262 420.061 159.576 395.411 188.042 376.809C214.119 359.725 247.585 351.75 279.45 347.751C295.318 345.767 311.312 344.761 327.307 344.74C345.412 344.694 363.173 346.791 381.151 347.851C398.831 348.887 416.831 348.516 433.905 343.669C451.316 338.721 467.27 329.175 481.466 319.392C505.624 302.742 524.081 281.787 542.327 260.627C563.278 236.315 585.534 213.639 612.757 194.123C642.955 172.505 675.515 153.149 711.568 139.502C745.645 126.622 781.503 117.652 816.066 105.593C851.296 93.4608 885.444 79.1046 918.221 62.6469C927.257 58.0709 936.159 53.3089 944.927 48.3609C944.993 48.3113 945.036 48.2435 945.048 48.1699C945.06 48.0964 945.04 48.0221 944.993 47.9609C944.945 47.8996 944.872 47.8556 944.788 47.8368C944.704 47.818 944.614 47.8258 944.535 47.8587C910.477 66.8933 874.604 83.4344 837.315 97.2985C803.567 109.949 768.685 119.637 734.331 130.861C716.783 136.488 699.704 143.156 683.223 150.814C666.442 158.745 650.704 168.238 635.375 178.047C606.483 196.537 580.466 217.291 558.253 241.547C539.087 262.446 522.204 284.924 500.3 303.954C488.075 314.562 474.463 323.95 459.738 331.928C441.978 341.555 423.443 346.995 402.448 347.652C383.49 348.256 364.778 345.705 345.96 344.614C330.509 343.801 314.986 343.986 299.524 345.168C268.585 347.394 236.883 352.918 208.87 365.027C179.053 377.91 156.972 400.487 133.933 420.496C120.231 432.398 106.011 443.911 90.5344 454.124C75.3608 464.142 58.7706 472.57 41.7275 480.088C33.4128 483.799 24.9864 487.225 16.512 490.647C16.102 490.807 16.3259 491.384 16.7355 491.215Z" fill="white"/>
<path d="M12.7052 495.042C29.5798 489.059 46.246 482.605 62.0383 474.715C78.7533 466.292 94.3067 456.284 108.392 444.888C134.807 423.764 155.64 397.747 183.365 377.847C208.982 359.409 243.46 351.149 275.947 347.34C291.974 345.468 308.126 344.68 324.251 344.982C342.244 345.314 359.789 347.956 377.595 349.68C395.172 351.384 413.206 351.77 430.437 347.342C448.42 342.717 464.544 332.83 478.779 322.567C502.749 305.291 520.175 283.475 537.438 261.468C546.845 249.466 556.459 237.574 567.23 226.406C579.644 213.636 593.468 201.895 608.507 191.35C639.171 169.721 672.779 151.023 709.992 138.963C745.782 127.357 783.249 120.362 819.252 109.131C855.682 97.8625 890.875 83.7911 924.385 67.0949C933.424 62.5618 942.314 57.814 951.055 52.8514C951.121 52.8018 951.164 52.7339 951.177 52.6604C951.189 52.5869 951.169 52.5126 951.121 52.4514C951.074 52.3901 951.001 52.346 950.917 52.3272C950.833 52.3084 950.743 52.3162 950.664 52.3492C916.244 71.7113 879.648 88.0753 841.445 101.186C806.131 113.435 769.629 121.634 733.41 131.432C715.08 136.244 697.21 142.294 679.973 149.525C662.834 156.871 646.746 166.069 631.205 175.664C601.236 194.16 574.88 215.483 553.141 241.003C534.776 262.566 519.288 285.941 498.154 305.766C486.033 317.123 472.253 327.124 457.162 335.517C439.781 345.426 419.314 350.589 398.569 350.299C379.634 350.159 361.114 346.814 342.355 345.251C327.183 344.078 311.9 343.968 296.659 344.923C265.049 346.751 232.357 352.292 204.07 365.272C174.512 378.843 153.936 402.73 131.811 423.55C118.398 436.154 104.237 448.197 88.5128 458.739C72.5687 469.439 54.8746 478.06 36.5851 485.449C28.6509 488.653 20.5888 491.622 12.4926 494.497C12.0631 494.651 12.2866 495.219 12.7066 495.066L12.7052 495.042Z" fill="white"/>
<path d="M8.68633 498.872C26.0451 493.516 43.1213 487.393 59.2349 479.622C76.4773 471.219 92.3676 460.927 106.487 449.017C132.215 427.553 151.478 401.239 177.419 380.005C201.678 360.16 236.349 351.275 268.704 347.336C285.065 345.359 301.572 344.601 318.034 345.072C335.912 345.572 353.164 348.41 370.71 350.907C388.611 353.448 407.087 355.044 425.056 351.348C443.987 347.46 460.467 337.455 475.008 326.715C499.303 308.814 515.988 286.048 532.39 262.992C541.361 250.362 550.548 237.856 561.145 226.149C572.924 213.193 586.331 201.353 601.121 190.845C632.109 168.714 667.103 149.936 705.482 139.084C743.167 128.434 782.609 123.618 820.404 113.22C858.354 102.862 894.942 89.0557 929.523 72.0432C938.936 67.3808 948.165 62.4653 957.212 57.2966C957.286 57.2509 957.337 57.1831 957.354 57.1074C957.371 57.0317 957.353 56.9539 957.304 56.8901C957.255 56.8264 957.178 56.7816 957.09 56.7652C957.002 56.7488 956.909 56.7619 956.831 56.8019C921.705 76.6895 884.003 93.0184 844.513 105.447C826.405 111.217 807.968 116.175 789.279 120.301C769.817 124.559 750.135 127.975 730.691 132.208C710.766 136.465 691.321 142.294 672.612 149.617C655.841 156.239 639.995 165.343 624.941 174.449C594.703 192.759 568.793 214.363 548.105 240.589C530.056 263.499 515.615 288.492 494.28 309.46C482.114 321.386 468.032 331.807 452.461 340.405C433.743 350.773 412.71 354.057 390.884 352.542C372.331 351.249 354.361 347.186 335.859 345.478C320.624 344.144 305.256 343.933 289.927 344.849C258.209 346.627 225.143 352.448 197.356 366.498C168.652 380.996 149.801 406.188 128.742 427.479C115.922 440.453 102.097 452.71 86.4905 463.31C70.1964 474.386 51.8488 483.077 32.7672 490.116C24.762 493.082 16.6261 495.765 8.46194 498.288C8.3791 498.319 8.31259 498.376 8.27549 498.446C8.2384 498.517 8.23338 498.596 8.26144 498.668C8.2895 498.74 8.34861 498.8 8.42715 498.837C8.50568 498.873 8.59797 498.883 8.68587 498.864L8.68633 498.872Z" fill="white"/>
<path d="M4.65469 502.7C42.4543 492.713 76.833 477.297 104.787 452.959C130.192 430.844 147.937 403.503 172.949 381.193C196.509 360.129 231.756 350.831 264.536 346.981C281.081 345.045 297.776 344.439 314.396 345.171C332.499 345.916 349.739 349.222 367.332 352.363C385.117 355.533 403.554 357.93 421.736 354.779C441.06 351.433 457.468 341.505 472.042 330.513C497.126 311.597 513.111 287.257 528.945 262.627C537.26 249.704 545.877 236.884 556.126 224.931C567.712 211.419 581.225 199.163 596.348 188.45C627.88 166.004 664.023 147.482 703.672 138.156C743.16 128.864 784.161 126.282 823.632 116.684C862.448 107.327 899.835 93.9362 934.933 76.818C944.627 72.0748 954.107 67.0398 963.373 61.7131C963.439 61.6635 963.482 61.5956 963.495 61.5221C963.507 61.4486 963.487 61.3743 963.439 61.3131C963.392 61.2518 963.319 61.2077 963.235 61.1889C963.151 61.1702 963.061 61.1779 962.982 61.2109C927.028 81.7259 888.064 98.0785 847.146 109.825C828.821 115.148 810.15 119.517 791.238 122.909C770.485 126.589 749.544 129.003 728.791 132.529C708.417 135.993 688.228 140.697 669.094 147.827C651.892 154.24 635.466 163.2 620.069 172.318C589.486 190.421 563.73 212.234 544.02 239.212C526.354 263.318 513.2 289.795 492.002 311.982C480.013 324.537 465.793 335.442 449.872 344.294C431.117 354.672 409.634 357.118 388.015 354.873C369.227 352.835 351.164 347.993 332.499 345.916C317.018 344.237 301.359 343.791 285.725 344.585C254.011 346.096 220.727 351.945 193.264 366.485C164.276 381.832 146.74 408.684 126.209 431.018C113.827 444.483 100.186 457.117 84.5042 467.899C68.2727 479.068 49.7933 487.622 30.5173 494.268C21.9661 497.185 13.2538 499.788 4.45876 502.113C4.01746 502.228 4.24096 502.796 4.68225 502.682L4.65469 502.7Z" fill="white"/>
<path d="M0.621678 506.526C39.4055 497.904 74.6708 482.493 102.506 457.411C128.076 434.374 144.384 405.582 168.937 381.925C191.739 359.953 227.28 350.291 260.218 346.553C277.239 344.611 294.416 344.159 311.478 345.202C329.133 346.28 345.891 349.816 362.933 353.481C381.269 357.443 400.45 360.855 419.562 357.957C438.976 355.017 455.236 345.171 469.642 334.067C495.373 314.145 510.485 288.394 525.599 262.352C533.173 249.294 541.116 236.36 550.766 224.272C562.355 209.789 576.303 196.751 592.184 185.558C624.089 162.97 661.206 144.811 701.726 137.042C722.773 133.006 744.234 131.353 765.601 129.221C786.194 127.222 806.629 124.474 826.805 120.206C866.754 111.761 905.225 98.6483 941.103 81.2491C950.793 76.5385 960.255 71.5153 969.489 66.1797C969.876 65.9554 969.447 65.4554 969.107 65.6769C932.763 86.558 893.049 102.776 851.279 113.793C831.699 119.01 811.719 122.999 791.502 125.728C770.262 128.572 748.859 129.923 727.557 132.512C706.567 135.066 685.035 138.79 665.438 145.98C648.061 152.338 631.513 160.675 615.883 169.71C600.049 178.862 584.891 189.145 571.7 200.986C559.017 212.369 548.374 225.266 539.257 238.825C522.495 263.727 510.829 291.039 490.183 314.042C478.312 327.276 463.633 339.259 446.995 348.175C427.585 358.607 405.365 359.989 383.446 356.695C364.711 353.903 346.753 348.41 327.891 346.061C312.425 344.181 296.751 343.586 281.091 344.287C249.205 345.623 215.49 351.594 188.299 366.885C159.688 382.993 143.651 411.026 124.025 434.035C111.95 448.185 98.3596 461.357 82.4116 472.485C65.8116 484.039 46.6678 492.639 26.6481 498.949C18.0231 501.645 9.25195 503.974 0.367832 505.927C-0.0838924 506.026 0.139599 506.594 0.591322 506.495L0.621678 506.526Z" fill="white"/>
<path d="M-3.40086 510.354C36.5933 503.051 72.9919 487.461 100.806 461.363C126.116 437.606 140.959 407.882 164.533 383.111C186.427 360.109 222.208 349.989 255.382 346.197C272.826 344.206 290.439 343.859 307.899 345.161C325.366 346.46 341.812 350.192 358.52 354.344C376.759 358.941 395.796 363.314 415.149 361.307C435.042 359.236 451.49 349.83 466.103 338.513C492.354 318.181 506.902 291.745 520.918 264.692C528.112 250.833 535.597 237.053 545.106 224.174C556.18 209.197 569.928 195.745 585.847 184.312C601.687 173.001 618.857 163.115 637.071 154.817C656.621 145.639 677.764 139.237 699.645 135.872C721.317 132.592 743.254 131.929 765.156 130.807C786.24 129.725 807.184 127.851 827.927 124.156C869.62 116.701 909.804 103.773 947.017 85.8426C956.795 81.1268 966.335 76.0669 975.635 70.6629C975.7 70.6133 975.744 70.5455 975.756 70.4719C975.768 70.3984 975.748 70.3241 975.7 70.2629C975.653 70.2016 975.58 70.1576 975.496 70.1388C975.412 70.12 975.322 70.1278 975.243 70.1607C937.939 91.7124 896.808 107.951 853.514 118.219C833.199 123.091 812.467 126.505 791.54 128.425C769.507 130.402 747.366 130.69 725.318 132.409C703.839 134.088 681.335 136.988 661.196 144.193C643.115 150.757 625.816 158.82 609.554 168.262C593.323 177.638 577.778 188.315 564.696 200.877C552.451 212.598 542.388 225.792 533.947 239.668C518.063 265.746 507.64 294.286 486.806 318.163C474.881 331.772 459.514 344.885 441.967 353.232C422.304 362.581 400.391 362.524 379.21 358.477C360.901 354.982 343.405 349.074 324.905 346.398C309.322 344.207 293.482 343.395 277.639 343.973C245.128 345.046 210.394 351.189 183.189 367.563C155.276 384.373 140.854 413.144 122.38 436.627C110.396 451.854 96.5262 465.963 79.7889 477.613C63.0515 489.263 43.3983 497.788 22.9337 503.655C14.2268 506.128 5.36918 508.177 -3.59537 509.792C-4.04802 509.875 -3.82456 510.443 -3.37191 510.36L-3.40086 510.354Z" fill="white"/>
<path d="M-7.51415 514.2C33.0763 508.308 70.3527 492.902 98.0168 466.352C123.569 441.846 137.053 411.014 159.691 384.892C180.925 360.37 217.18 349.552 251.239 345.741C268.886 343.773 286.704 343.555 304.331 345.092C322.05 346.627 338.592 350.708 355.364 355.463C373.501 360.607 392.432 365.793 411.949 364.463C432.539 363.062 449.441 353.606 464.256 341.841C491.056 320.613 504.664 292.923 517.753 264.665C524.354 250.428 531.292 236.268 540.444 222.981C551.024 207.634 564.56 193.869 580.479 182.272C596.59 170.657 614.193 160.633 632.938 152.399C641.996 148.324 651.337 144.734 660.906 141.649C672.5 137.959 685.003 135.968 697.186 134.561C719.774 131.954 742.517 132.35 765.192 132.242C787.531 132.096 809.728 130.965 831.803 127.581C873.758 121.136 914.277 108.789 951.674 91.055C962.02 86.1503 972.078 80.845 981.85 75.1392C982.228 74.9154 981.808 74.4149 981.459 74.637C943.493 96.6845 901.296 112.841 856.878 122.336C835.817 126.893 814.333 129.758 792.712 130.892C770.134 132.02 747.56 131.227 724.978 131.968C703.101 132.684 680.011 134.69 659.296 141.484C640.883 147.627 623.274 155.438 606.78 164.78C590.034 174.146 574.051 184.994 560.815 197.871C548.364 209.976 538.369 223.69 530.256 238.128C515.351 264.658 506.523 293.599 487.03 318.238C475.406 332.944 459.807 346.967 441.685 355.936C421.784 365.783 399.384 365.367 377.995 360.702C359.474 356.67 341.888 350.017 323.082 346.842C307.448 344.268 291.495 343.168 275.51 343.562C242.718 344.24 207.442 350.237 180.123 366.94C151.589 384.384 138.468 414.565 120.608 439.086C109.52 454.334 96.4823 468.492 80.4571 480.262C63.4814 492.734 43.4135 501.67 22.174 507.485C12.4389 510.123 2.50537 512.166 -7.54906 513.597C-8.00265 513.663 -7.96774 514.267 -7.51415 514.2Z" fill="white"/>
<path d="M-11.553 518.025C30.4088 513.434 69.1302 497.637 96.8514 469.768C122.07 444.442 133.968 412.716 155.834 385.614C176.516 359.944 213.741 348.756 248.401 345.128C266.326 343.251 284.411 343.24 302.254 345.098C320.355 346.981 337.036 351.644 354.012 356.984C371.584 362.549 390.016 368.168 409.282 367.449C430.335 366.659 447.544 357.218 462.548 345.103C489.79 323.107 502.494 294.298 514.514 265.012C520.797 249.735 527.474 234.517 536.803 220.331C547.161 204.624 560.764 190.59 576.949 178.914C593.819 166.845 612.391 156.616 632.215 148.474C641.08 144.749 650.215 141.523 659.56 138.818C671.289 135.475 683.885 133.939 696.124 133.005C719.351 131.226 742.558 132.742 765.725 133.557C788.645 134.379 811.375 134.074 834.148 131.214C877.426 125.742 919.314 113.633 957.753 95.4814C968.098 90.5767 978.138 85.2779 987.873 79.5849C987.951 79.5397 988.005 79.4703 988.024 79.392C988.043 79.3137 988.024 79.2329 987.972 79.1674C987.921 79.1019 987.84 79.057 987.748 79.0426C987.656 79.0282 987.56 79.0456 987.482 79.0908C948.661 101.766 905.159 117.912 859.395 126.629C838.223 130.72 816.656 132.977 795.028 133.364C771.566 133.712 748.241 131.799 724.801 131.548C702.145 131.317 678.272 132.463 656.618 139.029C638.136 144.735 620.45 152.217 603.911 161.327C586.764 170.659 570.33 181.63 556.931 194.815C544.182 207.373 534.243 221.715 526.444 236.821C512.065 264.685 504.624 295.039 485.08 320.941C473.576 336.237 457.379 351.304 438.383 359.976C418.37 369.208 396.239 367.84 375.398 362.594C357.159 357.997 339.91 350.921 321.297 347.29C305.303 344.277 288.908 342.886 272.455 343.147C239.436 343.523 203.676 349.548 176.411 366.701C147.678 384.818 135.915 416.06 118.86 441.495C108.331 457.179 95.7283 471.771 79.8073 483.859C62.1974 497.231 40.9809 506.573 18.4509 512.155C8.62468 514.576 -1.39752 516.336 -11.5214 517.418C-11.9773 517.444 -11.941 518.072 -11.4865 518.021L-11.553 518.025Z" fill="white"/>
<path d="M-15.5817 521.886C27.7215 518.573 67.9468 502.415 95.6468 473.191C120.436 447.034 130.844 414.433 151.84 386.445C171.872 359.747 209.664 348.146 244.911 344.614C263.246 342.778 281.738 342.954 299.929 345.137C318.228 347.309 334.957 352.485 351.936 358.358C369.314 364.37 387.501 370.536 406.697 370.403C428.12 370.245 445.686 360.88 460.808 348.5C488.337 325.874 500.199 296.33 511.13 266.179C516.885 250.351 522.918 234.54 531.946 219.759C541.757 203.57 555.136 189.087 571.344 177.109C588.622 164.542 607.82 154.03 628.394 145.872C637.65 142.111 647.192 138.902 656.952 136.266C669.219 132.997 682.425 131.806 695.166 131.303C719.318 130.358 743.248 133.003 767.178 134.824C789.846 136.557 812.479 137.048 835.219 134.925C879.883 130.608 923.273 118.877 962.906 100.402C973.617 95.4245 984.019 89.9713 994.067 84.0653C994.445 83.8416 994.025 83.3411 993.676 83.5631C953.654 107.054 908.409 123.225 860.886 131.026C838.719 134.72 816.18 136.295 793.695 135.72C770.299 135.063 747.164 132.154 723.852 130.984C700.723 129.835 676.347 130.187 654 136.461C634.701 142.029 616.25 149.606 599.078 159.017C581.448 168.418 564.82 179.658 551.563 193.311C539.016 206.237 529.498 220.942 522.265 236.435C508.697 265.48 502.672 297.076 483.066 324.039C471.855 339.464 455.791 354.838 436.739 363.376C416.303 372.552 393.754 370.392 372.845 364.448C354.861 359.336 337.918 351.765 319.464 347.754C303.202 344.318 286.456 342.636 269.619 342.749C235.953 342.815 199.118 348.886 171.76 367.037C142.996 386.117 132.714 418.742 116.281 445.046C106.215 461.163 93.7776 476.133 77.765 488.452C60.0196 502.115 38.3823 511.433 15.422 516.661C5.25492 518.955 -5.11203 520.495 -15.5606 521.263C-15.6444 521.279 -15.7191 521.321 -15.7713 521.379C-15.8235 521.438 -15.8499 521.51 -15.8457 521.582C-15.8415 521.655 -15.807 521.723 -15.7484 521.775C-15.6898 521.827 -15.6108 521.859 -15.5256 521.866L-15.5817 521.886Z" fill="white"/>
<path d="M-19.6071 525.685C24.3968 523.777 65.7742 507.601 93.4124 477.637C118.522 450.428 127.415 416.511 147.897 387.219C167.392 359.325 206.152 347.314 242.143 343.964C260.886 342.216 279.774 342.628 298.289 345.189C316.716 347.757 333.368 353.415 350.29 359.783C368.002 366.47 386.747 373.387 406.667 373.252C428.062 373.104 445.524 363.431 460.33 350.842C488.398 326.99 498.849 295.808 508.85 264.394C514.106 247.845 519.869 231.331 529.042 215.936C538.954 199.261 552.789 184.44 569.676 172.406C587.503 159.813 607.352 149.461 628.595 141.675C637.817 138.182 647.329 135.292 657.047 133.029C669.511 130.208 682.883 129.58 695.683 129.591C720.462 129.619 744.842 133.441 769.276 136.234C791.964 138.821 814.679 140.067 837.632 138.497C883.073 135.4 927.978 123.703 968.296 105.19C979.287 100.132 989.942 94.5529 1000.21 88.4795C1000.27 88.4299 1000.32 88.362 1000.33 88.2885C1000.34 88.215 1000.32 88.1407 1000.27 88.0794C1000.23 88.0182 1000.15 87.9741 1000.07 87.9553C999.985 87.9365 999.896 87.9443 999.817 87.9772C958.904 112.13 912.284 128.269 863.411 135.197C840.625 138.467 817.51 139.405 794.566 137.993C770.606 136.48 747.033 132.45 723.153 130.343C700.519 128.35 676.302 127.676 654.098 133.127C634.281 137.987 615.261 145.603 597.625 154.738C579.767 163.983 562.706 175.151 549.19 188.771C535.909 202.192 526.172 217.716 519.055 234.067C506.048 264.064 501.593 296.619 482.81 324.802C471.776 341.298 455.184 357.938 435.041 366.718C414.07 375.86 391.262 372.851 370.341 366.213C352.623 360.585 335.96 352.602 317.684 348.193C301.35 344.371 284.453 342.4 267.427 342.332C233.281 341.99 195.621 347.979 168.064 366.65C138.94 386.421 129.991 420.189 114.345 447.4C104.604 464.354 92.2056 480.17 75.6792 492.995C57.7482 506.911 35.7681 516.232 12.3499 521.123C1.83684 523.287 -8.87648 524.599 -19.6443 525.041C-19.7281 525.058 -19.8028 525.099 -19.855 525.157C-19.9073 525.216 -19.9336 525.288 -19.9294 525.36C-19.9252 525.433 -19.8908 525.501 -19.8321 525.553C-19.7735 525.605 -19.6946 525.638 -19.6094 525.645L-19.6071 525.685Z" fill="white"/>
<path d="M-23.6369 529.511C21.6457 528.951 64.5726 512.378 92.1682 481.02C117.208 452.596 124.278 417.314 144.65 386.947C163.792 358.387 203.626 346.33 239.931 343.301C258.53 341.737 277.245 342.349 295.549 345.122C314.645 348.055 331.638 354.338 348.97 361.362C366.301 368.385 384.505 375.657 404.145 376.127C426.16 376.646 444.178 366.86 459.222 353.781C487.658 329.052 497.05 296.833 506.002 264.446C510.731 247.338 515.944 230.218 524.893 214.23C534.492 197.039 548.377 181.769 565.571 169.495C583.532 156.822 603.61 146.504 625.117 138.897C634.62 135.434 644.418 132.613 654.42 130.46C666.904 127.832 680.161 127.51 692.904 127.863C717.788 128.547 742.052 133.175 766.382 136.959C790.251 140.681 814.195 143.075 838.594 142.124C885.65 140.258 932.476 128.821 974.212 109.774C985.297 104.71 996.031 99.099 1006.36 92.9687C1006.73 92.745 1006.31 92.2445 1005.97 92.4665C963.803 117.462 915.357 133.589 864.725 139.482C840.979 142.291 816.962 142.47 793.281 140.013C769.075 137.376 745.402 132.44 721.283 129.491C698.749 126.757 674.557 125.355 652.145 130.341C631.511 134.926 611.676 142.622 593.358 151.99C575.04 161.358 557.815 172.649 544.39 186.707C531.667 200.031 522.45 215.332 515.92 231.447C503.068 263.139 500.35 297.539 481.236 327.421C470.285 344.534 453.087 362.226 431.96 370.643C411.094 378.963 388.736 375.153 368.539 368.183C350.782 362.056 334.192 353.513 315.821 348.624C299.581 344.465 282.705 342.217 265.66 341.942C230.866 341.129 192.105 347.004 164.24 366.452C134.852 386.933 127.242 421.761 112.416 449.821C103.131 467.403 90.9863 483.818 74.296 497.104C55.9206 511.74 32.9534 521.296 8.54226 525.825C-2.07053 527.765 -12.8661 528.798 -23.6813 528.908C-24.1372 528.935 -24.1033 529.522 -23.6464 529.512L-23.6369 529.511Z" fill="white"/>
<path d="M-27.6665 533.346C18.8189 534.137 63.4102 517.178 90.8845 484.381C115.462 455.047 121.058 419.003 140.653 387.728C159.281 358.011 200.062 345.535 237.16 342.687C256.172 341.215 275.282 342.065 293.904 345.21C312.74 348.424 329.389 355.01 346.358 362.361C363.838 369.973 382.317 378.045 402.448 378.947C424.787 379.948 443.143 370.077 458.244 356.664C487.248 330.877 495.459 297.362 503.383 263.832C507.54 246.239 512.257 228.599 520.995 212.114C530.539 194.061 544.925 178.089 562.985 165.495C581.439 152.751 602.098 142.525 624.197 135.196C634.411 131.654 644.983 128.945 655.768 127.104C668.601 125.054 682.177 125.141 695.083 126.009C720.072 127.68 744.209 133.414 768.48 138.154C792.337 142.822 816.336 146.004 840.987 145.619C888.651 144.873 936.346 133.951 978.77 114.944C990.429 109.705 1001.69 103.84 1012.49 97.3863C1012.88 97.1621 1012.45 96.6621 1012.11 96.8836C969.254 122.396 919.697 138.428 868.043 143.489C843.696 145.912 819.135 145.45 795.069 142.115C770.529 138.641 746.713 132.55 722.298 128.609C699.413 124.919 674.674 122.789 651.546 127.26C630.416 131.34 610.028 138.866 591.277 148.162C572.526 157.458 554.275 169.124 540.508 183.703C527.479 197.513 518.301 213.481 512.181 230.25C500.093 263.134 498.942 298.759 479.925 329.815C469.242 347.284 451.964 365.562 430.439 373.856C409.279 382.032 386.816 377.574 366.79 370.093C348.995 363.46 332.525 354.368 313.987 349.054C297.498 344.454 280.269 341.9 262.83 341.468C227.761 340.34 188.483 346.189 160.555 366.036C146.55 375.986 138.319 388.888 131.579 403.021C123.767 419.379 118.099 436.388 110.142 452.706C101.385 470.677 89.5792 487.517 72.9165 501.117C54.1049 516.448 30.2175 526.243 4.84046 530.384C-5.89901 532.111 -16.801 532.879 -27.6861 532.677C-28.1444 532.663 -28.1095 533.267 -27.6512 533.281L-27.6665 533.346Z" fill="white"/>
<path d="M-31.6969 537.17C15.4085 539.29 61.2344 522.42 88.6817 488.826C113.833 458.045 117.45 420.243 137.237 387.511C155.501 357.267 196.989 344.661 234.377 342.054C253.802 340.673 273.306 341.763 292.24 345.287C311.355 348.881 328.009 356.056 344.99 363.932C362.617 372.109 381.382 380.85 401.995 381.845C423.832 382.899 441.831 373.275 456.556 360.118C486.461 333.439 493.689 298.584 500.547 263.912C504.11 245.943 508.196 227.943 516.546 211.005C525.513 192.605 539.62 176.264 557.631 163.413C576.293 150.101 598.039 139.703 620.693 132.312C631.2 128.803 642.065 126.162 653.135 124.428C666.268 122.474 680.123 123.11 693.236 124.41C718.876 126.964 743.483 133.558 768.262 139.182C792.403 144.648 816.75 148.723 841.898 149.036C891.089 149.646 940.821 139.01 984.672 119.461C996.431 114.212 1007.78 108.306 1018.63 101.784C1019.01 101.561 1018.59 101.06 1018.24 101.29C974.336 127.554 923.186 143.537 870.071 147.592C844.806 149.511 819.417 148.306 794.701 144.015C769.67 139.633 745.441 132.654 720.454 127.89C697.452 123.488 672.371 120.393 648.864 124.571C627.168 128.425 606.207 135.92 586.989 145.388C567.946 154.742 549.753 166.436 536.134 181.249C523.151 195.363 514.306 211.651 508.604 228.743C497.235 262.844 497.647 299.623 478.858 331.981C468.461 349.943 450.991 368.862 428.943 377.17C407.49 385.233 384.967 380.069 365.066 372.112C346.939 364.844 330.169 355.011 311.158 349.264C294.715 344.436 277.482 341.687 260.006 341.104C224.662 339.677 184.846 345.452 156.858 365.731C142.598 376.059 134.518 389.437 128.095 404.092C120.635 421.108 115.489 438.733 107.866 455.718C99.5063 474.304 87.86 491.756 70.8682 505.763C51.7113 521.55 27.0727 531.372 1.00234 535.06C-9.83463 536.572 -20.8112 537.077 -31.7318 536.566C-32.1905 536.544 -32.1461 537.147 -31.6969 537.17Z" fill="white"/>
<path d="M-35.8211 540.994C11.3298 544.395 57.9637 528.149 85.5835 494.407C111.584 462.657 113.887 423.549 132.68 389.285C150.021 357.6 191.932 344.211 230.241 341.559C250.11 340.158 270.056 341.38 289.365 345.18C308.85 349.059 325.604 356.656 342.721 365.081C360.301 373.753 379.025 383.102 399.834 384.667C421.847 386.309 440.146 376.934 454.987 363.633C469.827 350.332 480.146 334.144 486.373 316.747C492.6 299.35 495.052 281.283 497.981 263.383C501.03 244.757 504.654 226.009 512.909 208.422C521.803 189.365 536.321 172.491 555.048 159.444C574.201 146.072 596.562 135.743 619.788 128.691C630.624 125.286 641.835 122.865 653.23 121.468C666.883 119.927 681.153 121.137 694.611 122.982C720.299 126.519 744.805 133.999 769.517 140.45C793.9 146.791 818.598 151.668 844.275 152.557C894.024 154.249 944.655 144.174 989.231 124.64C1001.58 119.242 1013.47 113.109 1024.81 106.288C1025.19 106.064 1024.77 105.564 1024.42 105.786C979.553 132.697 926.947 148.574 872.544 151.624C847.245 153.039 821.91 151.258 797.371 146.34C771.946 141.246 747.519 133.317 722.321 127.54C699.045 122.201 673.322 117.884 649.033 121.396C627.118 124.593 605.842 131.751 586.309 140.874C566.276 150.252 547.004 162.235 532.783 177.688C519.521 192.085 510.76 208.837 505.312 226.358C494.403 261.652 496.597 299.579 478.26 333.341C468.263 351.787 450.988 371.285 428.711 379.913C406.91 388.376 383.931 382.737 363.884 374.248C345.833 366.637 329.294 356.346 310.423 350.058C293.96 344.55 276.232 341.708 258.518 340.755C222.505 338.801 181.539 344.449 153.148 365.364C138.98 375.792 131.067 389.249 125.03 403.987C118.002 421.212 113.439 439.038 106.537 456.296C98.7017 475.877 87.4625 494.436 70.0614 509.274C50.7621 525.731 25.5831 535.932 -1.20358 539.427C-12.6333 540.896 -24.2023 541.21 -35.667 540.363C-36.1167 540.333 -36.2731 540.923 -35.823 540.962L-35.8211 540.994Z" fill="white"/>
<path d="M-39.8526 544.82C9.02671 549.599 57.826 532.565 85.1758 496.627C110.178 463.764 110.678 423.977 129.206 389.066C146.349 356.755 189.224 343.245 228.009 340.905C247.959 339.675 267.952 341.123 287.248 345.197C306.681 349.346 323.272 357.227 340.153 366.021C357.918 375.263 376.842 385.448 398.144 387.47C420.711 389.612 439.526 379.941 454.537 366.122C485.608 337.502 490.541 300.204 495.3 263.53C497.792 244.347 500.837 224.986 508.863 206.726C517.369 187.168 531.903 169.82 550.931 156.518C570 143.174 592.31 132.969 615.506 126.048C626.874 122.542 638.637 120.099 650.584 118.763C664.273 117.349 678.471 118.805 691.888 120.92C718.818 125.167 744.318 133.874 770.076 141.427C794.951 148.708 820.216 154.481 846.69 155.962C897.468 158.797 949.502 149.086 995.137 129.256C1007.57 123.833 1019.53 117.649 1030.92 110.755C1031.3 110.523 1030.88 110.023 1030.53 110.253C984.822 137.748 930.919 153.508 875.402 155.609C848.597 156.603 821.857 153.974 796.187 147.821C770.83 141.763 746.532 133.092 721.366 126.562C697.178 120.282 670.516 115.228 644.949 118.871C622.99 121.982 601.622 129.023 582.049 138.117C561.863 147.488 542.473 159.574 528.408 175.245C514.888 190.286 506.343 207.801 501.396 226.076C491.586 262.429 495.169 301.309 476.958 336.08C467.175 354.765 449.838 374.678 427.268 383.186C405.173 391.512 382.077 385.162 362.195 376.227C344.075 368.087 327.582 357.277 308.608 350.526C291.853 344.575 273.669 341.429 255.498 340.324C219.549 338.14 178.638 343.607 150.156 364.423C118.677 387.455 115.92 426.46 104.582 457.967C97.3424 478.12 86.6213 497.399 69.1972 512.828C49.9148 529.906 24.46 540.446 -2.83944 543.809C-15.0792 545.321 -27.4684 545.476 -39.6938 544.27C-40.1444 544.223 -40.3009 544.814 -39.8503 544.86L-39.8526 544.82Z" fill="white"/>
<path d="M-43.8783 548.646C-19.7489 551.602 5.48345 549.408 28.2145 541.205C51.1223 532.928 70.2406 518.452 83.4042 500.54C95.7017 483.802 102.218 464.814 107.402 445.862C112.586 426.911 116.347 406.919 125.708 388.841C142.68 356.046 186.083 342.434 225.223 340.291C245.388 339.169 265.571 340.818 284.991 345.174C304.941 349.672 321.721 358.205 338.855 367.589C356.433 377.214 375.18 387.797 396.498 390.254C418.996 392.844 437.952 383.472 452.999 369.626C484.922 340.254 488.976 301.772 492.643 264.168C494.582 244.314 497.003 224.215 504.775 205.194C512.997 184.973 527.642 166.981 547.075 153.228C567.24 139.015 590.432 128.255 615.326 121.561C640.953 114.653 666.375 114.41 692.39 119.332C719.718 124.525 745.34 134.178 771.348 142.597C796.191 150.647 821.529 157.191 848.24 159.303C900.417 163.431 954.332 154.111 1001.35 133.676C1013.77 128.275 1025.71 122.097 1037.07 115.195C1037.45 114.972 1037.03 114.471 1036.68 114.693C990.008 142.859 934.633 158.515 877.866 159.592C851.025 160.085 824.349 156.909 798.862 150.185C772.837 143.302 748.119 133.613 722.371 126.084C697.797 118.89 671.41 113.311 645.036 115.547C622.342 117.465 600.032 124.545 579.915 133.783C559.249 143.255 539.43 155.665 525.06 171.675C510.928 187.341 502.388 205.768 497.807 224.927C488.841 262.353 493.953 302.138 476.113 338.051C466.582 357.31 449.045 377.864 425.819 386.418C403.471 394.655 380.138 387.502 360.48 378.159C342.331 369.52 325.876 358.199 306.78 350.995C290.015 344.698 271.68 341.245 253.336 339.948C216.886 337.358 175.093 342.722 146.366 364.085C131.656 375.029 123.781 389.146 118.308 404.739C111.819 423.217 108.311 442.297 102.209 460.866C95.4661 481.377 85.1692 501.068 67.7764 516.874C48.1009 534.734 21.6381 545.478 -6.63717 548.445C-18.9803 549.711 -31.4356 549.579 -43.6743 548.053C-44.1254 547.998 -44.2819 548.588 -43.8308 548.643L-43.8783 548.646Z" fill="white"/>
<path d="M-47.9109 552.482C-23.239 556.085 2.80266 554.207 26.1907 545.83C49.3825 537.52 68.6921 522.725 81.6158 504.457C94.0586 486.935 100.132 467.052 104.897 447.285C109.5 428.004 112.742 407.937 121.667 389.569C138.137 355.665 182.45 341.644 222.439 339.686C243.237 338.65 264.024 340.595 283.926 345.439C303.9 350.364 320.519 359.407 337.533 369.177C354.941 379.176 373.539 390.13 394.863 393.023C417.915 396.146 437.368 386.462 452.559 372.14C484.977 341.609 487.557 301.686 490.194 263.092C491.581 243.085 493.47 222.846 500.787 203.537C508.766 182.366 523.879 163.538 544.238 149.405C564.479 135.422 587.701 124.916 612.572 118.493C638.861 111.667 664.781 111.807 691.133 117.436C718.875 123.365 744.699 133.878 770.922 143.204C795.811 152.051 821.222 159.536 848.218 162.447C901.46 168.193 957.166 159.512 1005.57 138.973C1018.69 133.392 1031.27 126.931 1043.2 119.655C1043.58 119.423 1043.16 118.922 1042.81 119.152C994.789 148.213 937.417 163.759 878.968 163.551C850.742 163.362 822.847 159.134 796.458 151.045C770.531 143.203 745.845 132.762 720.109 124.602C695.985 116.97 669.95 110.878 643.776 112.618C620.565 114.163 597.714 121.128 577.139 130.344C555.966 139.781 535.725 152.312 521.191 168.615C506.821 184.787 498.447 203.778 494.297 223.461C486.05 262.121 492.839 303.044 475.169 340.263C465.822 359.899 448.169 381.243 424.411 389.65C402.211 397.491 379.337 390.207 360.043 380.721C341.651 371.668 325.189 359.75 305.96 351.884C288.918 344.917 270.019 341.117 251.138 339.585C214.216 336.585 171.587 341.829 142.576 363.709C127.573 375.025 119.812 389.62 114.642 405.696C108.488 424.84 105.511 444.552 99.7613 463.771C93.5346 484.631 83.6536 504.759 66.2723 520.928C46.6124 539.223 19.8351 550.13 -8.82228 552.918C-21.8361 554.15 -34.955 553.805 -47.7829 551.893C-47.8724 551.885 -47.9629 551.905 -48.0367 551.951C-48.1106 551.996 -48.1623 552.062 -48.1819 552.137C-48.2014 552.212 -48.1873 552.29 -48.1424 552.356C-48.0974 552.421 -48.0248 552.47 -47.9389 552.492L-47.9109 552.482Z" fill="white"/>
<path d="M-51.9388 556.285C-26.7525 560.544 0.138329 559.013 24.1819 550.436C47.8986 541.975 67.4544 526.657 80.2364 507.751C92.2725 489.953 97.8206 469.883 102.063 449.969C106.305 430.054 108.948 409.352 117.671 390.293C133.441 355.671 177.912 341.076 218.349 339.116C239.809 338.041 261.253 340.165 281.705 345.391C302.275 350.733 319.135 360.481 336.471 370.879C353.807 381.277 372.155 392.52 393.49 395.776C416.337 399.299 435.884 389.932 451.07 375.675C484.568 344.209 486.104 302.893 487.706 263.197C488.555 242.292 489.882 221.085 497.224 200.886C504.829 179.531 519.912 160.536 540.448 146.452C561.1 132.282 585.65 121.924 610.98 115.638C623.071 112.638 635.63 110.474 648.189 110.119C662.813 109.701 677.733 112.447 691.646 115.881C746.125 129.153 792.972 158.28 849.865 165.671C904.28 172.746 961.738 164.545 1011.48 143.541C1024.69 137.947 1037.36 131.446 1049.35 124.104C1049.73 123.88 1049.31 123.379 1048.96 123.61C1000.05 153.271 941.315 168.679 881.78 167.467C852.788 166.774 824.254 161.816 797.449 152.813C771.216 144.133 746.366 132.837 720.295 123.833C696.14 115.484 669.094 107.901 642.456 109.845C618.551 111.591 594.939 118.415 573.538 127.703C551.793 137.132 530.817 149.803 516.33 166.757C502.55 182.895 494.724 201.644 490.996 221.052C483.28 261.151 491.884 303.463 474.372 342.256C465.266 362.427 447.281 384.638 422.82 392.916C400.068 400.603 376.869 392.304 357.619 382.259C339.145 372.629 322.631 360.125 303.116 351.928C285.944 344.702 266.816 340.721 247.691 339.099C210.483 335.93 167.333 341.228 138.392 363.653C123.341 375.302 115.847 390.237 111.039 406.632C105.219 426.443 102.764 446.779 97.358 466.664C91.5552 488.097 81.9214 508.873 64.2327 525.495C44.2665 544.26 16.7112 555.228 -12.6318 557.531C-25.762 558.535 -38.9579 557.925 -51.8095 555.72C-51.9014 555.704 -51.9978 555.719 -52.0775 555.763C-52.1571 555.807 -52.2135 555.876 -52.2343 555.954C-52.255 556.033 -52.2384 556.114 -52.1881 556.181C-52.1377 556.248 -52.0579 556.294 -51.9659 556.31L-51.9388 556.285Z" fill="white"/>
<path d="M-55.9662 560.133C-30.5165 564.991 -3.18263 563.87 21.3609 555.369C45.9044 546.868 66.1239 530.834 78.8381 511.084C90.722 492.633 95.7358 471.891 99.4965 451.399C103.257 430.907 105.32 409.568 114.052 390C129.936 354.548 175.627 339.955 216.853 338.45C238.301 337.623 259.68 340.022 279.998 345.536C300.81 351.268 317.724 361.626 335.107 372.49C352.489 383.353 370.885 395.103 392.502 398.625C415.592 402.4 435.438 392.758 450.625 378.193C484.448 345.749 484.686 303.248 485.262 262.795C485.567 241.542 486.319 219.94 493.264 199.297C500.694 177.171 515.388 157.864 536.61 143.346C557.832 128.828 583.195 118.35 609.307 112.245C621.53 109.39 634.225 107.421 646.883 107.294C662.122 107.139 677.686 110.462 692.083 114.369C746.919 129.372 793.711 160.173 851.346 168.87C907.07 177.314 966.442 169.56 1017.63 148.028C1030.85 142.439 1043.52 135.926 1055.49 128.559C1055.87 128.327 1055.45 127.827 1055.11 128.056C1005.64 158.37 944.532 173.677 884.168 171.356C854.33 170.207 825.715 164.337 798.38 154.558C772.104 145.145 747.29 133.153 721.222 123.365C697.023 114.269 669.611 105.624 642.511 106.844C617.978 107.949 593.588 114.648 571.472 123.937C549.06 133.372 527.23 146.27 512.478 163.74C498.285 180.492 490.738 200.121 487.463 220.27C480.824 261.025 490.575 303.731 473.989 343.366C465.215 364.342 446.93 387.789 421.461 396.102C398.386 403.629 375.058 394.603 355.967 384.178C337.742 374.227 321.511 361.52 302.331 352.844C285.088 345.048 265.652 340.69 246.243 338.785C208.204 335.067 163.598 340.247 134.215 363.602C119.145 375.575 111.901 390.875 107.434 407.565C101.949 428.068 100.034 449.002 95.019 469.55C89.6211 491.558 80.2633 512.988 62.3054 530.062C41.9871 549.332 13.6426 560.329 -16.368 562.13C-29.5973 562.903 -42.8519 562.038 -55.7133 559.561C-55.8052 559.545 -55.9017 559.561 -55.9813 559.605C-56.061 559.649 -56.1174 559.717 -56.1382 559.796C-56.1589 559.874 -56.1423 559.955 -56.092 560.022C-56.0416 560.089 -55.9617 560.135 -55.8698 560.152L-55.9662 560.133Z" fill="white"/>
<path d="M-59.9984 563.968C-34.3152 569.402 -6.47948 568.721 18.535 560.289C43.5496 551.858 64.1223 535.505 76.7837 515.338C88.8429 496.126 93.4263 474.537 96.7534 453.303C100.059 432.199 101.534 409.91 110.448 389.717C126.28 353.84 172.451 339.154 214.062 337.878C236.328 337.128 258.485 339.893 279.404 346.032C300.021 352.187 316.657 363.013 333.759 374.135C350.861 385.257 369.669 397.71 391.567 401.473C415.008 405.535 435.065 395.598 450.251 380.687C484.405 347.222 483.249 303.51 482.8 262.293C482.553 240.393 482.768 218.08 489.686 196.654C496.682 174.163 512.166 154.107 533.748 139.58C555.433 124.979 581.429 114.577 608.074 108.797C620.309 106.135 633.007 104.392 645.612 104.494C662.105 104.614 678.792 108.727 694.103 113.437C748.437 130.149 794.61 161.777 852.088 171.88C909.172 181.917 970.738 174.706 1023.54 152.58C1036.85 146.983 1049.58 140.438 1061.62 133.018C1061.99 132.786 1061.57 132.286 1061.22 132.516C1010.04 164.027 945.96 179.151 883.548 175.026C854.14 173.086 826.133 166.518 799.456 156.265C772.576 145.943 747.324 132.983 720.66 122.277C696.387 112.554 668.828 103.192 641.31 103.936C615.761 104.606 590.159 111.456 567.215 121.076C545.406 130.226 524.149 142.663 509.611 159.555C494.642 176.901 487.027 197.486 484.022 218.508C478.104 260.53 489.522 304.366 473.253 345.372C464.785 366.524 446.835 390.17 421.425 398.85C398.164 406.776 374.651 397.518 355.494 386.774C337.006 376.394 320.773 363.162 301.459 353.815C284.191 345.432 264.485 340.678 244.672 338.53C206.306 334.289 161.168 339.161 131.271 362.53C115.324 374.982 107.936 391.098 103.673 408.664C98.6103 429.554 97.204 450.879 92.6797 471.843C87.7543 494.606 78.6942 516.899 60.2303 534.616C39.9688 554.044 11.4804 565.025 -18.6055 566.677C-32.5075 567.4 -46.4166 566.298 -59.8401 563.41C-60.284 563.315 -60.4305 563.913 -59.9961 564.009L-59.9984 563.968Z" fill="white"/>
<path d="M-64.0132 567.795C-37.4491 573.961 -8.32152 573.536 17.661 564.54C43.2881 555.662 63.916 538.449 76.0509 517.416C87.391 497.802 91.2881 476.042 94.0829 454.67C96.8778 433.297 97.876 410.849 106.403 390.372C121.941 353.05 169.791 338.058 212.61 337.253C234.864 336.761 256.95 339.799 277.732 346.211C298.708 352.805 315.441 364.312 332.716 375.957C349.793 387.476 368.298 400.124 390.199 404.267C414.086 408.795 434.518 398.57 449.86 383.238C484.536 348.58 481.788 303.37 480.331 261.218C479.57 239.162 479.3 216.707 485.719 195.044C492.624 171.754 507.614 151.469 529.979 136.449C551.82 121.758 578.087 111.413 604.929 105.751C617.809 103.036 631.177 101.334 644.413 101.658C661.096 102.074 677.88 106.553 693.239 111.607C748.752 129.898 795.452 163.732 854.512 175.149C912.491 186.328 975.538 179.686 1029.47 157.156C1042.87 151.537 1055.69 144.949 1067.79 137.467C1068.15 137.235 1067.74 136.734 1067.39 136.964C1015.23 169.162 949.741 183.98 886.299 178.849C855.976 176.396 827.357 168.984 800.103 157.811C773.228 146.762 748.024 133.137 721.385 121.727C696.213 110.959 667.511 100.459 638.546 101.061C612.732 101.585 586.817 108.292 563.588 117.936C541.14 127.252 519.29 140.135 504.754 157.714C490.218 175.293 483.057 195.989 480.568 217.046C475.446 260.305 488.531 305.273 472.359 347.621C464.134 369.203 445.935 393.631 419.893 402.097C396.087 409.837 372.258 399.556 353.187 388.321C334.894 377.535 318.788 364.021 299.634 354.318C282.178 345.477 262.035 340.425 241.877 338.079C203.258 333.579 157.543 338.355 127.495 362.087C111.647 374.599 104.297 390.704 100.3 408.279C95.4178 429.804 94.5332 451.745 90.5138 473.366C86.1425 496.647 77.7644 519.691 59.3287 538.06C38.811 558.496 9.35626 569.905 -21.8072 571.215C-36.0262 571.767 -50.2154 570.407 -63.8482 567.188C-64.2831 567.084 -64.4395 567.674 -63.9952 567.778L-64.0132 567.795Z" fill="white"/>
<path d="M-68.0437 571.62C-41.2461 578.362 -11.6441 578.394 14.8374 569.458C40.5992 560.766 61.3524 543.578 73.5049 522.52C85.2419 502.188 88.8104 479.528 91.2073 457.37C93.5577 435.563 94.0645 412.692 102.137 391.611C116.898 353.051 165.49 337.369 209.287 336.669C232.316 336.219 255.143 339.574 276.492 346.548C297.52 353.551 314.151 365.589 331.361 377.593C348.57 389.597 367.441 402.958 389.874 407.24C413.52 411.726 433.779 401.471 448.902 386.296C484.664 350.316 480.273 303.408 477.812 260.03C476.485 237.095 475.739 213.65 482.401 191.085C489.363 167.622 504.651 147.384 527.318 132.476C549.985 117.568 577.605 107.064 605.601 101.908C619.369 99.3757 633.743 97.9386 647.736 99.1478C663.501 100.505 679.1 105.101 693.568 110.223C749.534 130.102 796.236 165.446 855.993 178.203C914.854 190.793 979.606 184.779 1034.84 161.947C1048.52 156.27 1061.61 149.568 1073.92 141.923C1074.3 141.691 1073.88 141.191 1073.53 141.421C1020.87 174.019 954.505 188.596 890.49 182.788C859.536 179.984 830.325 172.041 802.774 160.175C775.222 148.309 749.552 133.71 722.381 121.33C697.764 110.117 669.541 98.8231 640.903 98.1704C614.604 97.5681 587.773 103.916 563.848 113.237C540.549 122.328 517.649 135.183 502.298 153.011C486.947 170.838 479.572 192.274 477.234 213.96C472.483 258.352 487.21 304.048 472.234 347.789C464.607 370.144 446.497 395.793 419.813 404.854C395.84 412.999 371.758 402.474 352.672 390.974C334.126 379.766 317.954 365.772 298.71 355.339C281.505 346.056 261.416 340.622 241.248 337.937C201.823 332.684 154.574 337.129 123.802 361.525C107.546 374.415 100.229 391.084 96.5208 409.191C91.9188 431.613 91.5983 454.409 87.8585 476.91C83.9686 500.276 75.9631 523.5 57.7489 542.075C37.0495 563.159 6.97766 574.773 -24.8517 575.775C-39.4685 576.181 -54.0202 574.568 -67.9366 571C-68.3814 570.889 -68.5284 571.479 -68.093 571.591L-68.0437 571.62Z" fill="white"/>
<path d="M-72.0763 575.448C-45.0643 582.767 -14.979 583.247 12.0021 574.379C38.6748 565.618 60.0148 547.702 72.0135 525.797C83.2216 505.383 86.3546 482.771 88.2604 460.691C90.2476 438.041 90.1636 414.348 98.0399 392.35C112.252 352.699 161.809 336.566 206.467 336.09C229.72 335.752 252.734 339.307 274.192 346.553C295.38 353.854 311.974 366.249 329.14 378.643C346.545 391.225 365.581 405.296 388.458 410.004C412.57 414.963 433.205 404.46 448.482 388.825C484.579 351.872 478.818 303.687 475.315 259.594C473.483 236.325 472.162 212.51 478.454 189.482C485.02 165.42 500.341 144.615 523.483 129.348C547.071 113.886 575.719 103.347 604.73 98.4392C618.726 96.0793 633.447 94.8645 647.56 96.4946C663.333 98.3274 678.774 103.143 693.183 108.575C749.601 129.841 796.289 166.761 856.64 181.049C916.546 195.226 983.147 190.049 1039.89 166.88C1053.98 161.107 1067.43 154.242 1080.07 146.373C1080.43 146.142 1080.02 145.641 1079.68 145.879C1025.84 179.304 957.591 193.562 892.379 186.507C860.656 183.086 830.963 174.242 803.036 161.477C775.423 148.88 749.755 133.651 722.524 120.58C697.598 108.618 668.951 96.436 639.591 95.3084C612.847 94.2797 585.416 100.469 560.987 109.795C537.08 118.929 513.435 132.077 498.023 150.498C482.871 168.629 475.813 190.119 473.853 211.912C469.719 257.762 486.285 304.757 471.456 350.055C464.053 372.664 445.952 398.797 418.996 407.93C394.523 416.169 370.079 404.809 350.964 392.818C332.373 381.161 316.233 366.729 296.909 355.905C279.536 346.171 259.066 340.428 238.497 337.564C198.618 332.023 150.499 336.445 119.614 361.518C103.12 374.898 96.105 392.179 92.7406 410.791C88.6138 433.686 88.7929 456.881 85.4705 479.843C82.0746 503.511 74.4656 527.165 56.3117 546.124C35.5257 567.851 4.70416 579.686 -27.7717 580.386C-42.7971 580.644 -57.7203 578.779 -71.9289 574.866C-72.3647 574.746 -72.5207 575.344 -72.0853 575.456L-72.0763 575.448Z" fill="white"/>
<path d="M-76.1009 579.281C-48.2065 587.357 -16.7894 588.123 11.1848 578.633C38.2906 569.451 59.4892 550.736 70.9724 528.158C81.8487 506.786 84.2177 483.322 85.65 460.47C87.0822 437.618 86.4374 413.126 94.796 390.898C109.828 350.917 160.578 335.321 205.713 335.496C229.181 335.592 252.875 339.413 274.254 347.381C295.633 355.349 312.176 368.675 329.473 381.522C346.769 394.369 365.794 408.585 388.804 413.116C413.423 417.949 434.154 406.31 449.207 390.244C484.715 352.171 477.231 303.036 472.825 258.503C470.495 234.689 468.655 210.298 474.889 186.603C481.352 162.079 496.977 140.917 520.679 125.602C544.715 109.985 573.991 99.6113 603.529 95.0606C617.593 92.8906 632.31 91.9424 646.416 93.7829C662.509 95.8798 678.183 101.101 692.786 106.918C749.674 129.546 796.384 167.99 857.337 183.794C918.29 199.598 986.656 195.28 1044.95 171.795C1059.45 165.94 1073.27 158.922 1086.23 150.837C1086.6 150.605 1086.18 150.104 1085.84 150.334C1030.56 184.747 960.051 198.628 893.238 190.082C861.093 185.967 831.256 176.26 803.227 162.734C775.649 149.416 749.98 133.517 722.704 119.826C697.664 107.225 668.811 94.2718 639.06 92.4885C611.661 90.8437 583.301 96.9493 558.171 106.348C534.029 115.375 510.182 128.502 494.592 146.973C479.172 165.249 472.201 187.082 470.473 209.103C466.77 256.285 485.089 304.269 471.06 351.055C464.142 374.128 446.53 400.483 419.573 410.416C395.312 419.352 370.709 408.22 351.648 396.178C332.162 383.869 315.575 368.454 295.597 356.707C278.639 346.74 258.572 340.698 238.26 337.505C197.943 331.157 148.934 335.009 117.091 359.992C100.052 373.364 92.5632 390.85 89.3043 409.803C85.2595 433.291 85.9574 457.053 83.2322 480.618C80.4115 505.004 73.592 529.621 55.3649 549.456C34.5916 572.063 3.14079 584.387 -30.1165 584.922C-45.756 585.112 -61.2642 583.004 -75.9539 578.691C-76.3897 578.571 -76.5367 579.161 -76.1099 579.29L-76.1009 579.281Z" fill="white"/>
<path d="M-80.2215 583.079C-52.358 591.609 -20.8206 592.974 7.49799 583.835C35.3211 574.861 57.2333 555.798 68.7789 532.652C79.7542 510.685 81.7427 486.573 82.7515 463.156C83.7786 439.56 82.5897 414.558 90.6865 391.595C105.17 350.531 156.951 334.472 202.911 334.906C226.797 335.139 250.924 339.21 272.528 347.601C293.888 355.893 310.348 369.595 327.538 382.755C344.729 395.915 363.957 410.838 387.222 415.83C411.994 421.156 433.046 409.627 448.209 393.336C484.432 354.439 475.858 304.091 470.45 258.865C467.567 234.728 465.105 209.962 470.733 185.825C476.491 161.148 491.397 139.414 514.884 123.699C539.217 107.435 569.256 96.7271 599.474 92.0885C613.851 89.8842 628.836 88.969 643.235 90.7683C659.775 92.8313 675.86 98.4168 690.728 104.525C748.908 128.402 795.836 168.982 857.908 186.497C919.764 203.912 990.091 200.53 1049.94 176.729C1064.86 170.785 1079.07 163.601 1092.35 155.285C1092.72 155.054 1092.31 154.553 1091.96 154.783C1035.5 190.055 963.066 203.547 895.035 193.708C862.148 188.949 831.877 178.346 803.501 163.92C775.645 149.762 749.752 133.117 722.125 118.615C696.376 105.135 666.681 91.2934 635.671 89.5021C608.19 87.9105 579.809 93.8235 554.505 103.192C530.024 112.27 505.769 125.591 490.242 144.495C474.715 163.399 468.175 185.755 466.944 208.297C464.324 256.087 483.612 304.353 470.657 351.909C464.267 375.379 447.106 402.282 420.122 412.902C395.738 422.508 370.945 411.548 351.669 399.236C331.966 386.649 315.351 370.921 295.587 358.41C278.769 347.756 258.585 341.173 237.999 337.519C197.128 330.331 146.908 333.68 114.163 358.877C96.6906 372.322 88.8734 390.069 85.749 409.369C81.9157 433.055 83.0147 456.996 80.9787 480.78C78.8113 506.08 72.819 531.982 54.349 552.889C33.6868 576.264 1.70934 589.038 -32.1619 589.504C-48.4845 589.637 -64.6457 587.276 -79.8719 582.534C-80.2986 582.405 -80.6293 582.949 -80.2025 583.078L-80.2215 583.079Z" fill="white"/>
<path d="M-84.2462 586.91C-55.918 596.059 -23.5073 597.858 5.52149 588.476C33.6434 579.397 55.585 560.017 66.9305 536.543C77.8592 513.933 79.3516 489.155 79.9561 465.172C80.5324 440.867 78.6874 414.902 87.0192 391.223C101.64 349.578 154.247 333.616 200.796 334.363C225.093 334.775 249.602 339.194 271.395 348.043C293.187 356.891 309.611 371.46 327.011 385.092C344.41 398.724 363.888 414.198 387.715 419.005C413.21 424.143 434.462 411.133 449.322 394.222C484.398 354.284 474.234 303.286 467.959 257.9C464.582 233.461 461.633 208.343 466.951 183.797C472.381 158.719 487.231 136.519 511.049 120.584C535.95 103.931 566.898 93.1304 597.837 88.7731C612.735 86.6679 628.171 85.9688 643.051 88.1763C659.844 90.6688 676.097 96.6805 691.139 103.158C750.191 128.777 797.55 171.197 861.051 189.857C923.388 208.173 994.628 205.425 1055.34 181.517C1070.54 175.514 1085 168.214 1098.49 159.732C1098.87 159.5 1098.45 158.999 1098.1 159.229C1040.61 195.264 966.504 208.368 897.396 197.387C863.885 192.059 833.237 180.695 804.569 165.502C776.382 150.556 750.233 133.119 722.294 117.852C696.443 103.747 666.548 89.086 635.112 86.6735C606.959 84.5071 577.693 90.2936 551.689 99.7429C526.778 108.798 502.044 122.251 486.383 141.47C470.722 160.688 464.318 183.763 463.477 206.783C461.715 255.411 482.188 304.207 470.233 352.73C464.392 376.483 448.056 403.145 421.672 414.909C396.709 426.042 370.937 414.792 351.08 401.835C330.989 388.794 314.213 372.429 294.201 359.263C277.418 348.219 257.241 341.256 236.498 337.369C195.012 329.595 143.575 332.659 110.321 358.45C92.7448 372.079 84.9419 390.076 82.0481 409.573C78.4349 433.932 80.0555 458.489 78.4666 482.917C76.7995 508.794 71.3089 535.296 52.7825 556.877C32.131 580.929 -0.678771 593.978 -35.1508 594.107C-51.8814 594.09 -68.4082 591.474 -83.9141 586.391C-84.3413 586.254 -84.6725 586.79 -84.2448 586.935L-84.2462 586.91Z" fill="white"/>
<path d="M-88.2748 590.74C-59.7174 600.393 -26.878 602.683 2.69022 593.399C31.8646 584.227 54.3542 563.944 65.5006 539.496C76.0928 516.178 76.9786 490.798 77.0561 466.272C77.159 441.527 74.8014 414.937 83.27 390.822C98.2309 348.132 152.717 332.368 200.178 333.878C224.754 334.669 249.48 339.537 271.252 349.032C293.298 358.649 309.985 374.301 327.773 388.556C344.94 402.291 364.609 417.915 388.572 422.286C414.303 426.893 435.481 412.774 449.834 395.65C484.323 354.632 472.592 302.731 465.443 256.919C461.613 232.377 458.219 207.148 463.038 182.388C468.041 156.673 482.841 133.774 507.208 117.451C532.447 100.545 564.006 89.7572 595.459 85.5478C610.807 83.4892 626.757 82.9299 641.939 85.4187C658.764 88.1434 674.994 94.4068 689.993 101.145C749.835 128.043 797.35 172.181 861.65 192.467C924.912 212.425 998.028 210.658 1060.37 186.438C1075.98 180.356 1090.82 172.899 1104.64 164.192C1105.01 163.961 1104.6 163.46 1104.25 163.69C1045.52 200.596 969.474 213.246 899.156 200.955C864.93 194.966 833.868 182.697 804.863 166.636C776.657 151.021 750.501 132.978 722.47 117.103C696.093 102.141 665.521 86.485 633.065 83.7439C604.423 81.3635 574.56 87.0232 548.038 96.5912C522.488 105.812 497.215 119.66 481.599 139.651C466.293 159.252 460.45 182.287 460.028 205.315C459.078 254.793 480.741 304.068 469.788 353.616C464.505 377.611 448.806 404.405 422.796 417.044C397.862 429.177 371.908 418.559 351.675 405.365C331.271 392.011 314.404 375.401 294.652 361.461C277.761 349.52 257.359 341.818 235.95 337.445C193.883 328.857 141.257 331.457 107.133 357.549C89.2554 371.227 81.1807 389.466 78.4157 409.214C74.8912 434.448 77.0812 459.787 75.9591 485.036C74.7845 511.353 69.9226 538.675 51.3225 560.792C30.5125 585.565 -2.86276 598.888 -38.1042 598.731C-55.2556 598.553 -72.1555 595.658 -87.9346 590.196C-88.3623 590.051 -88.693 590.595 -88.2653 590.74L-88.2748 590.74Z" fill="white"/>
<path d="M-92.3035 594.566C-62.8922 604.976 -28.6495 607.638 1.90774 597.659C31.3523 588.051 53.6476 567.044 64.1725 542.067C74.3378 517.959 74.4807 491.927 74.1139 466.805C73.7472 441.683 70.9198 414.386 79.7066 389.841C95.0629 346.902 150.326 331.392 198.058 333.306C223.045 334.283 248.153 339.5 270.09 349.526C292.203 359.632 308.885 375.857 326.712 390.466C343.99 404.63 363.985 420.962 388.479 425.286C414.476 429.886 435.677 415.006 449.883 397.648C484.177 355.713 471.127 302.936 463.085 256.675C458.787 231.797 454.792 206.223 459.156 181.005C463.559 155.461 477.557 132.213 501.434 115.653C526.889 98.0317 559.22 86.9245 591.333 82.5882C606.946 80.482 623.115 79.9423 638.616 82.3399C656.08 85.0601 672.838 91.7289 688.279 98.8454C749.24 126.986 796.969 172.994 862.215 194.969C926.674 216.698 1002.15 215.861 1066.29 190.988C1081.97 184.883 1096.87 177.384 1110.74 168.619C1111.12 168.387 1110.7 167.886 1110.36 168.124C1050.39 205.908 972.375 218.092 900.893 204.463C865.51 197.733 833.731 184.279 804.08 167.092C775.425 150.478 748.808 131.533 720.16 114.878C693.702 99.5248 663.072 83.5252 630.25 80.7165C600.771 78.1989 569.985 84.0491 542.754 94.0296C516.895 103.519 491.711 117.749 476.435 138.358C461.532 158.485 456.436 181.929 456.6 205.19C456.958 255.035 479.248 304.452 469.365 354.527C464.512 379.031 449.188 406.062 423.178 419.516C398.296 432.381 372.002 421.822 351.651 408.409C330.756 394.632 313.642 377.366 293.733 362.701C276.734 350.216 256.321 341.982 234.454 337.28C191.992 328.118 138.382 330.355 103.732 356.735C85.4759 370.629 77.2887 389.23 74.6886 409.356C71.4062 434.988 74.0113 460.747 73.4277 486.409C72.829 512.798 68.9219 540.315 51.1763 563.037C30.6723 589.309 -3.81053 603.585 -40.297 603.322C-58.1088 603.073 -75.6314 599.915 -91.9063 594.018C-92.3245 593.873 -92.6552 594.417 -92.237 594.562L-92.3035 594.566Z" fill="white"/>
<path d="M-96.3339 598.416C-66.1447 609.588 -30.7081 612.625 0.796248 602.051C30.1509 592.206 52.1169 570.943 62.3508 545.878C72.6143 520.666 72.0519 493.48 71.1497 467.34C70.3012 441.632 66.8774 413.417 76.3305 388.364C93.0327 344.144 151.581 329.736 200.512 333.107C225.389 334.817 250.182 340.682 271.54 351.421C293.969 362.703 310.822 380.396 329.371 395.617C346.513 409.74 367.384 426.393 392.475 428.841C419.092 431.468 439.996 413.602 452.878 395.602C484.561 351.363 468.154 297.222 459.486 250.182C454.842 224.92 451.003 198.755 456.442 173.184C461.927 147.401 477.644 125.03 502.545 109.201C528.54 92.6797 560.66 82.376 592.554 78.8598C607.26 77.242 622.346 77.0718 636.864 79.4456C653.219 82.1087 668.826 88.3113 683.332 94.9328C746.594 123.788 794.85 172.156 861.061 196.82C925.763 220.925 1004.95 220.85 1070.44 196.214C1086.88 190.01 1102.48 182.255 1116.92 173.097C1117.29 172.866 1116.88 172.365 1116.53 172.595C1054.73 211.64 974.005 222.591 900.828 207.341C864.125 199.702 832.172 184.724 801.822 166.165C772.58 148.309 745.245 128.315 715.503 111.029C690.366 96.4234 661.537 81.4257 630.576 77.9926C601.628 74.7741 571.154 79.92 544.011 89.1203C517.971 97.9418 491.938 111.511 475.622 131.421C459.599 150.975 453.455 174.431 453.136 197.744C452.443 249.023 476.209 298.75 469.582 350.251C466.309 376.044 452.913 403.117 427.836 419.36C416.72 426.551 403.375 429.955 389.666 427.898C376.573 425.934 364.81 419.945 354.403 413.353C332.538 399.47 315.005 381.542 295.076 365.852C278.316 352.74 258.102 343.187 236.044 337.955C192.67 327.36 136.982 328.764 100.851 355.578C82.3752 369.299 73.6014 387.973 71.0529 408.169C67.7065 434.668 70.9046 461.29 70.8271 487.794C70.7549 514.718 67.5366 542.938 49.9587 566.417C29.4848 593.706 -5.87196 608.524 -43.3206 607.937C-61.5552 607.538 -79.4527 604.113 -96.0041 597.856C-96.4228 597.703 -96.754 598.238 -96.3353 598.392L-96.3339 598.416Z" fill="white"/>
</svg>
