<svg width="878" height="612" viewBox="0 0 878 612" fill="none" xmlns="http://www.w3.org/2000/svg">
<g opacity="0.2">
<path d="M176.852 460.499C221.383 418.44 280.801 391.894 342.714 373.392C404.302 355.029 468.222 343.871 531.011 329.298C591.75 315.2 652.09 297.175 704.54 266.495C729.703 251.619 752.869 234.424 773.603 215.234C797.714 193.169 818.179 168.513 841.204 145.623C887.49 99.5187 941.081 59.0525 1000.4 25.4179C1008.02 21.1013 1015.72 16.8881 1023.49 12.7781C1023.88 12.5699 1023.45 12.078 1023.1 12.2839C962.785 44.2668 907.603 82.4365 859.571 127.064C847.249 138.542 835.36 150.319 823.905 162.393C812.579 174.352 801.843 186.616 790.218 198.334C769.462 219.268 746.624 238.805 721.098 255.525C670.133 288.994 610.205 309.36 549.026 324.421C486.429 339.83 422.462 350.676 360.39 367.751C299.78 384.41 240.144 407.52 193.233 445.332C187.36 450.065 181.738 455.008 176.325 460.117C176.008 460.41 176.536 460.808 176.853 460.515L176.852 460.499Z" fill="#B4B4B4"/>
<path d="M172.821 464.327C196.936 443.634 224.767 426.062 253.803 410.712C283.27 395.178 314.39 382.077 346.726 371.595C379.063 361.085 412.626 353.653 446.26 347.105C480.563 340.43 515.308 335.295 549.328 327.53C608.132 314.074 663.232 290.455 711.138 258.17C735.478 241.696 758.097 223.326 779.385 204.017C803.369 182.226 825.046 158.76 849.597 137.38C896.977 96.133 950.733 60.8234 1007.42 29.3331C1014.8 25.2294 1022.21 21.1916 1029.64 17.2197C1030.04 17.011 1029.6 16.5116 1029.25 16.7175C972.098 47.2985 917.15 81.1107 868.226 120.864C843.222 141.18 820.746 163.175 798.158 185.385C775.879 207.387 751.727 227.979 725.901 246.989C680.002 280.613 626.706 306.105 569.246 321.921C535.25 331.267 499.963 336.425 465.182 342.902C431.419 349.199 397.685 355.995 364.856 365.419C301.955 383.478 241.227 411.771 190.95 449.051C184.516 453.816 178.297 458.775 172.293 463.929C171.967 464.215 172.495 464.612 172.821 464.327Z" fill="#B4B4B4"/>
<path d="M168.79 468.159C195.235 447.55 225.022 429.686 255 412.99C283.824 396.935 314.104 382.168 345.961 370.934C377.145 359.934 410.042 352.831 442.949 347.068C477.118 341.055 511.912 337.75 545.888 330.859C577.509 324.444 607.748 312.925 636.074 299.288C660.781 287.363 683.786 273.178 705.429 257.545C729.213 240.352 751.895 221.915 773.898 203.097C798.794 181.753 822.041 159.068 848.007 138.584C898.383 98.8997 955.291 65.7008 1012.81 34.1461C1020.44 29.9365 1028.1 25.7766 1035.79 21.6663C1036.18 21.4501 1035.75 20.9582 1035.4 21.1641C977.046 52.6379 918.925 85.1479 866.538 123.681C840.559 142.785 817.097 163.731 793.556 184.939C770.349 205.845 746.008 225.921 720.896 245.177C675.679 279.831 623.722 309.983 565.353 325.672C531.064 334.89 495.026 337.936 459.931 343.599C427.328 348.86 394.754 355.12 363.359 364.607C332.104 374.053 302.385 387.327 274.035 402.023C243.561 417.751 214.354 435.211 186.619 454.281C180.358 458.621 174.239 463.117 168.263 467.769C167.916 468.032 168.453 468.428 168.791 468.167L168.79 468.159Z" fill="#B4B4B4"/>
<path d="M164.691 472.011C192.655 452.291 223.005 434.782 252.744 417.083C281.304 400.09 310.928 383.205 342.793 370.954C373.327 359.248 406.069 352.276 438.756 347.155C455.256 344.527 471.842 342.351 488.515 340.627C506.098 338.803 523.734 337.266 541.136 334.297C573.221 328.816 603.116 316.614 630.98 302.092C654.681 289.732 676.413 274.975 697.036 259.151C721.208 240.611 744.591 221.261 768.071 202.131C794.465 180.645 819.766 158.213 847.951 138.359C900.923 101.036 960.076 70.4117 1017.97 39.1258C1025.98 34.803 1033.97 30.4735 1041.93 26.1372C1042.33 25.9284 1041.94 25.4262 1041.55 25.6344C982.695 57.6298 922.393 88.3363 867 124.669C839.455 142.734 814.496 162.821 789.714 183.512C764.932 204.202 739.419 224.62 714.045 244.958C693.098 261.753 671.543 278.098 647.838 292.025C621.618 307.462 592.205 321.581 561.646 329.389C527.443 338.109 491.286 339.094 456.304 343.928C424.31 348.338 392.304 354.186 361.742 363.762C330.451 373.565 301.567 388.429 273.847 404.122C243.811 421.128 214.276 439.058 185.389 457.483C178.246 462.022 171.207 466.684 164.339 471.531C163.992 471.777 164.383 472.279 164.731 472.033L164.691 472.011Z" fill="#B4B4B4"/>
<path d="M160.663 475.864C175.305 466.547 190.48 457.877 205.503 449.047C221.096 439.853 236.332 430.251 251.508 420.613C279.566 402.842 307.986 384.096 339.517 371.017C369.168 358.708 401.689 351.87 433.947 347.234C450.014 344.924 466.112 343.137 482.321 341.965C500.086 340.671 517.926 340.003 535.593 337.673C596.622 329.588 648.266 294.667 691.539 258.874C715.187 239.347 738.423 219.602 762.696 200.661C789.831 179.471 816.571 157.867 846.195 139.165C873.686 121.806 902.859 106.522 932.061 91.405C962.594 75.5654 993.322 59.981 1023.65 43.8138C1031.81 39.4608 1039.96 35.0493 1048.1 30.5793C1048.16 30.5297 1048.21 30.4619 1048.22 30.3884C1048.23 30.3148 1048.21 30.2406 1048.16 30.1793C1048.11 30.1181 1048.04 30.074 1047.96 30.0552C1047.87 30.0364 1047.78 30.0442 1047.71 30.0771C1016.5 47.1667 984.769 63.5117 953.036 79.8567C923.736 94.9386 894.287 109.9 866.032 126.399C837.047 143.304 810.804 162.456 784.857 182.608C758.91 202.761 733.124 223.057 708.144 244.123C687.645 261.409 667.071 278.739 644.03 293.612C631.977 301.417 619.32 308.519 606.149 314.867C590.303 322.485 573.885 329.45 556.295 333.439C522.102 341.198 486.063 340.263 451.23 344.361C419.578 348.106 387.804 353.682 357.834 363.603C326.729 373.824 299.031 390.234 272.203 406.852C257.546 415.928 243.095 425.25 228.479 434.371C213.248 443.876 197.585 452.856 182.086 462.029C174.714 466.379 167.431 470.789 160.261 475.354C159.894 475.593 160.304 476.094 160.653 475.856L160.663 475.864Z" fill="#B4B4B4"/>
<path d="M156.632 479.69C171.539 471.158 186.796 463.081 201.723 454.563C217.637 445.487 232.919 435.706 247.964 425.606C275.092 407.412 301.651 387.289 331.956 372.956C360.935 359.258 394.003 352.484 426.337 348.006C442.069 345.828 457.951 344.102 473.831 343.014C491.743 341.776 509.722 342.028 527.628 340.709C545.324 339.371 562.929 336.294 579.13 329.704C593.877 323.664 608.017 316.585 621.401 308.543C644.955 294.472 665.455 277.355 685.282 259.632C708.37 238.991 731.511 218.605 756.545 199.636C784.556 178.428 812.912 157.409 844.237 139.78C873.134 123.51 903.774 109.691 934.035 95.4011C966.217 80.2331 998.252 64.8395 1029.55 48.3583C1037.85 43.9918 1046.09 39.5507 1054.27 35.0348C1054.66 34.8267 1054.23 34.3267 1053.88 34.5407C1022.02 52.1124 989.273 68.4352 956.184 84.2208C925.921 98.6318 895.218 112.358 865.547 127.598C834.395 143.603 806.169 162.256 778.602 182.422C751.895 201.956 726.113 222.155 701.828 243.859C681.53 261.989 661.659 280.595 638.821 296.498C626.7 304.937 613.831 312.563 600.333 319.306C583.661 327.626 566.566 334.589 547.562 337.699C529.731 340.644 511.581 340.895 493.536 341.462C476.974 341.976 460.507 343.308 444.039 345.133C412.537 348.651 380.699 353.948 351.141 364.402C320.593 375.196 294.385 393.321 268.69 410.746C254.019 420.71 239.351 430.747 224.283 440.283C209.215 449.818 193.56 458.434 177.859 467.07C170.627 471.049 163.396 475.044 156.238 479.14C156.199 479.162 156.166 479.191 156.14 479.224C156.114 479.257 156.096 479.294 156.086 479.333C156.077 479.372 156.077 479.411 156.086 479.45C156.095 479.488 156.112 479.525 156.138 479.557C156.164 479.59 156.197 479.618 156.235 479.639C156.274 479.66 156.317 479.675 156.363 479.682C156.408 479.689 156.455 479.689 156.501 479.681C156.546 479.672 156.59 479.656 156.629 479.634L156.632 479.69Z" fill="#B4B4B4"/>
<path d="M152.605 483.522C168.089 475.578 183.76 467.897 198.923 459.519C215.226 450.399 230.882 440.461 245.805 429.758C272.399 410.917 297.462 389.322 327.063 373.835C355.645 358.875 389.302 351.583 422.018 347.446C437.499 345.505 453.079 344.291 468.685 343.81C486.76 343.249 504.927 344.289 522.992 343.567C541.057 342.845 558.954 340.203 575.459 333.596C590.691 327.548 605.192 319.579 618.608 310.979C641.967 295.999 661.595 277.657 680.778 259.01C703.336 237.116 726.345 216.092 752.25 197.024C780.494 176.222 809.749 156.242 842.011 140.157C872.578 124.896 904.979 112.534 936.618 99.0201C970.221 84.6823 1003.33 69.5899 1035.42 52.9096C1043.8 48.538 1052.12 44.0628 1060.37 39.4839C1060.44 39.4343 1060.48 39.3665 1060.49 39.2929C1060.5 39.2194 1060.48 39.1451 1060.44 39.0839C1060.39 39.0227 1060.32 38.9786 1060.23 38.9598C1060.15 38.941 1060.06 38.9488 1059.98 38.9817C1027.46 57.0114 993.676 73.3458 959.238 88.5555C928.052 102.325 896.083 114.752 864.981 128.662C848.891 135.788 833.257 143.65 818.15 152.211C802.468 161.192 787.798 171.181 773.184 181.32C745.92 200.273 720.171 220.406 696.732 242.722C677.094 261.387 658.505 280.912 636.49 297.696C610.269 317.727 578.154 336.517 542.939 341.275C525.077 343.689 507.009 343.224 489.055 343.06C472.562 342.875 456.052 343.506 439.609 344.951C407.837 347.782 375.613 353.32 346.216 364.58C315.821 376.213 290.851 395.946 265.88 414.362C251.421 425.033 236.842 435.614 221.522 445.406C206.376 455.083 190.317 463.626 174.089 471.896C166.795 475.62 159.479 479.289 152.194 483.021C151.806 483.221 152.187 483.724 152.586 483.523L152.605 483.522Z" fill="#B4B4B4"/>
<path d="M148.578 487.349C164.622 480.018 180.696 472.718 196.133 464.461C212.318 455.689 227.682 445.855 242.082 435.053C268.784 415.269 292.688 391.755 322.126 374.792C349.546 359.003 382.991 351.505 415.221 347.55C430.966 345.631 446.82 344.566 462.687 344.36C480.486 344.138 498.152 345.756 515.926 345.931C533.7 346.106 551.804 344.566 568.565 338.768C584.813 333.153 600.061 324.254 613.824 315.052C637.496 299.23 656.563 279.589 675.275 259.734C696.969 236.727 719.604 214.998 746.073 195.8C774.867 174.95 805.335 155.521 838.902 140.725C871.881 126.157 906.825 115.238 940.606 102.182C974.797 88.9646 1008.34 74.4205 1040.55 57.8945C1049.3 53.3994 1057.96 48.7593 1066.51 43.9744C1066.58 43.9248 1066.62 43.857 1066.63 43.7834C1066.65 43.7099 1066.63 43.6356 1066.58 43.5744C1066.53 43.5132 1066.46 43.4691 1066.37 43.4503C1066.29 43.4315 1066.2 43.4393 1066.12 43.4722C1032.41 62.1489 997.256 78.8454 960.914 93.4415C928.176 106.744 894.398 117.878 861.441 130.685C844.853 137.059 828.737 144.307 813.188 152.386C797.325 160.708 782.411 170.267 767.738 180.045C739.529 198.827 713.605 219.366 690.609 242.771C671.287 262.459 653.52 283.317 631.657 301.086C605.226 322.607 572.65 341.834 535.603 344.736C517.683 346.152 499.78 344.725 481.918 344.031C465.75 343.438 449.531 343.798 433.378 345.111C401.722 347.628 369.386 353.221 340.468 365.172C310.805 377.433 287.472 398.451 263.746 417.458C249.556 428.832 235.046 439.95 219.522 450.004C204.246 459.898 187.802 468.383 171.049 476.304C163.47 479.883 155.819 483.362 148.177 486.848C147.778 487.032 148.169 487.535 148.568 487.35L148.578 487.349Z" fill="#B4B4B4"/>
<path d="M144.464 491.215C160.565 484.704 176.568 477.997 191.849 470.162C208.463 461.558 224.071 451.606 238.447 440.45C264.991 420.061 287.304 395.411 315.771 376.809C341.848 359.725 375.313 351.75 407.179 347.751C423.046 345.767 439.041 344.761 455.036 344.74C473.14 344.694 490.901 346.791 508.879 347.851C526.56 348.887 544.56 348.516 561.633 343.669C579.044 338.721 594.998 329.175 609.194 319.392C633.352 302.742 651.81 281.787 670.056 260.627C691.006 236.315 713.262 213.639 740.485 194.123C770.684 172.505 803.243 153.149 839.296 139.502C873.374 126.622 909.231 117.652 943.794 105.593C979.024 93.4608 1013.17 79.1046 1045.95 62.6469C1054.99 58.0709 1063.89 53.3089 1072.66 48.3609C1072.72 48.3113 1072.76 48.2435 1072.78 48.1699C1072.79 48.0964 1072.77 48.0221 1072.72 47.9609C1072.67 47.8996 1072.6 47.8556 1072.52 47.8368C1072.43 47.818 1072.34 47.8258 1072.26 47.8587C1038.21 66.8933 1002.33 83.4344 965.043 97.2985C931.295 109.949 896.414 119.637 862.059 130.861C844.512 136.488 827.433 143.156 810.951 150.814C794.17 158.745 778.433 168.238 763.104 178.047C734.211 196.537 708.194 217.291 685.982 241.547C666.816 262.446 649.933 284.924 628.028 303.954C615.803 314.562 602.191 323.95 587.467 331.928C569.707 341.555 551.171 346.995 530.177 347.652C511.218 348.256 492.506 345.705 473.688 344.614C458.238 343.801 442.714 343.986 427.252 345.168C396.313 347.394 364.612 352.918 336.599 365.027C306.781 377.91 284.701 400.487 261.661 420.496C247.96 432.398 233.74 443.911 218.263 454.124C203.089 464.142 186.499 472.57 169.456 480.088C161.141 483.799 152.715 487.225 144.241 490.647C143.831 490.807 144.054 491.384 144.464 491.215Z" fill="#B4B4B4"/>
<path d="M140.434 495.042C157.308 489.059 173.975 482.605 189.767 474.715C206.482 466.292 222.035 456.284 236.12 444.888C262.535 423.764 283.369 397.747 311.093 377.847C336.711 359.409 371.189 351.149 403.675 347.34C419.702 345.468 435.855 344.68 451.98 344.982C469.973 345.314 487.518 347.956 505.324 349.68C522.901 351.384 540.935 351.77 558.166 347.342C576.148 342.717 592.273 332.83 606.508 322.567C630.477 305.291 647.904 283.475 665.166 261.468C674.574 249.466 684.188 237.574 694.959 226.406C707.372 213.636 721.196 201.895 736.235 191.35C766.9 169.721 800.507 151.023 837.72 138.963C873.51 127.357 910.978 120.362 946.981 109.131C983.411 97.8625 1018.6 83.7911 1052.11 67.0949C1061.15 62.5618 1070.04 57.814 1078.78 52.8514C1078.85 52.8018 1078.89 52.7339 1078.91 52.6604C1078.92 52.5869 1078.9 52.5126 1078.85 52.4514C1078.8 52.3901 1078.73 52.346 1078.65 52.3272C1078.56 52.3084 1078.47 52.3162 1078.39 52.3492C1043.97 71.7113 1007.38 88.0753 969.174 101.186C933.859 113.435 897.357 121.634 861.138 131.432C842.809 136.244 824.939 142.294 807.702 149.525C790.563 156.871 774.475 166.069 758.934 175.664C728.964 194.16 702.608 215.483 680.87 241.003C662.504 262.566 647.017 285.941 625.883 305.766C613.761 317.123 599.982 327.124 584.89 335.517C567.509 345.426 547.043 350.589 526.297 350.299C507.363 350.159 488.843 346.814 470.083 345.251C454.912 344.078 439.628 343.968 424.387 344.923C392.777 346.751 360.086 352.292 331.799 365.272C302.24 378.843 281.665 402.73 259.54 423.55C246.127 436.154 231.966 448.197 216.241 458.739C200.297 469.439 182.603 478.06 164.314 485.449C156.379 488.653 148.317 491.622 140.221 494.497C139.792 494.651 140.015 495.219 140.435 495.066L140.434 495.042Z" fill="#B4B4B4"/>
<path d="M136.415 498.872C153.774 493.516 170.85 487.393 186.963 479.622C204.206 471.219 220.096 460.927 234.215 449.017C259.943 427.553 279.206 401.239 305.148 380.005C329.407 360.16 364.078 351.275 396.433 347.336C412.794 345.359 429.301 344.601 445.762 345.072C463.641 345.572 480.892 348.41 498.439 350.907C516.34 353.448 534.816 355.044 552.785 351.348C571.715 347.46 588.195 337.455 602.736 326.715C627.031 308.814 643.717 286.048 660.118 262.992C669.089 250.362 678.277 237.856 688.874 226.149C700.653 213.193 714.059 201.353 728.849 190.845C759.838 168.714 794.832 149.936 833.21 139.084C870.895 128.434 910.338 123.618 948.132 113.22C986.082 102.862 1022.67 89.0557 1057.25 72.0432C1066.66 67.3808 1075.89 62.4653 1084.94 57.2966C1085.01 57.2509 1085.07 57.1831 1085.08 57.1074C1085.1 57.0317 1085.08 56.9539 1085.03 56.8901C1084.98 56.8264 1084.91 56.7816 1084.82 56.7652C1084.73 56.7488 1084.64 56.7619 1084.56 56.8019C1049.43 76.6895 1011.73 93.0184 972.242 105.447C954.134 111.217 935.697 116.175 917.007 120.301C897.546 124.559 877.864 127.975 858.42 132.208C838.495 136.465 819.05 142.294 800.341 149.617C783.57 156.239 767.724 165.343 752.669 174.449C722.432 192.759 696.521 214.363 675.833 240.589C657.784 263.499 643.343 288.492 622.008 309.46C609.843 321.386 595.76 331.807 580.189 340.405C561.472 350.773 540.438 354.057 518.613 352.542C500.059 351.249 482.089 347.186 463.588 345.478C448.353 344.144 432.984 343.933 417.655 344.849C385.937 346.627 352.872 352.448 325.085 366.498C296.38 380.996 277.529 406.188 256.47 427.479C243.65 440.453 229.826 452.71 214.219 463.31C197.925 474.386 179.577 483.077 160.496 490.116C152.491 493.082 144.355 495.765 136.19 498.288C136.108 498.319 136.041 498.376 136.004 498.446C135.967 498.517 135.962 498.596 135.99 498.668C136.018 498.74 136.077 498.8 136.156 498.837C136.234 498.873 136.326 498.883 136.414 498.864L136.415 498.872Z" fill="#B4B4B4"/>
<path d="M132.383 502.7C170.183 492.713 204.561 477.297 232.516 452.959C257.92 430.844 275.665 403.503 300.678 381.193C324.237 360.129 359.484 350.831 392.264 346.981C408.81 345.045 425.505 344.439 442.125 345.171C460.227 345.916 477.468 349.222 495.061 352.363C512.846 355.533 531.282 357.93 549.464 354.779C568.788 351.433 585.196 341.505 599.77 330.513C624.855 311.597 640.839 287.257 656.673 262.627C664.989 249.704 673.606 236.884 683.854 224.931C695.441 211.419 708.954 199.163 724.076 188.45C755.609 166.004 791.752 147.482 831.4 138.156C870.889 128.864 911.89 126.282 951.361 116.684C990.177 107.327 1027.56 93.9362 1062.66 76.818C1072.36 72.0748 1081.84 67.0398 1091.1 61.7131C1091.17 61.6635 1091.21 61.5956 1091.22 61.5221C1091.24 61.4486 1091.22 61.3743 1091.17 61.3131C1091.12 61.2518 1091.05 61.2077 1090.96 61.1889C1090.88 61.1702 1090.79 61.1779 1090.71 61.2109C1054.76 81.7259 1015.79 98.0785 974.875 109.825C956.55 115.148 937.879 119.517 918.966 122.909C898.213 126.589 877.272 129.003 856.52 132.529C836.145 135.993 815.956 140.697 796.823 147.827C779.621 154.24 763.194 163.2 747.797 172.318C717.215 190.421 691.459 212.234 671.748 239.212C654.083 263.318 640.929 289.795 619.731 311.982C607.741 324.537 593.522 335.442 577.6 344.294C558.845 354.672 537.363 357.118 515.743 354.873C496.956 352.835 478.893 347.993 460.227 345.916C444.747 344.237 429.088 343.791 413.454 344.585C381.739 346.096 348.456 351.945 320.993 366.485C292.004 381.832 274.469 408.684 253.937 431.018C241.555 444.483 227.915 457.117 212.233 467.899C196.001 479.068 177.522 487.622 158.246 494.268C149.695 497.185 140.982 499.788 132.187 502.113C131.746 502.228 131.969 502.796 132.411 502.682L132.383 502.7Z" fill="#B4B4B4"/>
<path d="M128.35 506.526C167.134 497.904 202.399 482.493 230.234 457.411C255.805 434.374 272.113 405.582 296.666 381.925C319.468 359.953 355.008 350.291 387.947 346.553C404.967 344.611 422.145 344.159 439.207 345.202C456.861 346.28 473.619 349.816 490.661 353.481C508.998 357.443 528.179 360.855 547.29 357.957C566.704 355.017 582.965 345.171 597.37 334.067C623.102 314.145 638.213 288.394 653.327 262.352C660.901 249.294 668.844 236.36 678.495 224.272C690.084 209.789 704.032 196.751 719.912 185.558C751.817 162.97 788.935 144.811 829.455 137.042C850.502 133.006 871.963 131.353 893.33 129.221C913.923 127.222 934.358 124.474 954.534 120.206C994.483 111.761 1032.95 98.6483 1068.83 81.2491C1078.52 76.5385 1087.98 71.5153 1097.22 66.1797C1097.6 65.9554 1097.18 65.4554 1096.84 65.6769C1060.49 86.558 1020.78 102.776 979.007 113.793C959.427 119.01 939.447 122.999 919.23 125.728C897.99 128.572 876.588 129.923 855.286 132.512C834.296 135.066 812.764 138.79 793.167 145.98C775.79 152.338 759.242 160.675 743.611 169.71C727.778 178.862 712.62 189.145 699.429 200.986C686.745 212.369 676.103 225.266 666.986 238.825C650.224 263.727 638.557 291.039 617.912 314.042C606.04 327.276 591.362 339.259 574.723 348.175C555.314 358.607 533.094 359.989 511.175 356.695C492.439 353.903 474.482 348.41 455.619 346.061C440.154 344.181 424.48 343.586 408.82 344.287C376.934 345.623 343.219 351.594 316.028 366.885C287.417 382.993 271.379 411.026 251.754 434.035C239.678 448.185 226.088 461.357 210.14 472.485C193.54 484.039 174.396 492.639 154.377 498.949C145.752 501.645 136.98 503.974 128.096 505.927C127.645 506.026 127.868 506.594 128.32 506.495L128.35 506.526Z" fill="#B4B4B4"/>
<path d="M124.328 510.354C164.322 503.051 200.72 487.461 228.535 461.363C253.844 437.606 268.688 407.882 292.262 383.111C314.156 360.109 349.937 349.989 383.11 346.197C400.554 344.206 418.168 343.859 435.627 345.161C453.095 346.46 469.54 350.192 486.248 354.344C504.488 358.941 523.524 363.314 542.878 361.307C562.771 359.236 579.219 349.83 593.831 338.513C620.082 318.181 634.63 291.745 648.647 264.692C655.841 250.833 663.325 237.053 672.835 224.174C683.908 209.197 697.656 195.745 713.576 184.312C729.416 173.001 746.585 163.115 764.799 154.817C784.349 145.639 805.492 139.237 827.373 135.872C849.045 132.592 870.983 131.929 892.885 130.807C913.969 129.725 934.912 127.851 955.655 124.156C997.348 116.701 1037.53 103.773 1074.75 85.8426C1084.52 81.1268 1094.06 76.0669 1103.36 70.6629C1103.43 70.6133 1103.47 70.5455 1103.48 70.4719C1103.5 70.3984 1103.48 70.3241 1103.43 70.2629C1103.38 70.2016 1103.31 70.1576 1103.22 70.1388C1103.14 70.12 1103.05 70.1278 1102.97 70.1607C1065.67 91.7124 1024.54 107.951 981.243 118.219C960.927 123.091 940.195 126.505 919.269 128.425C897.235 130.402 875.095 130.69 853.047 132.409C831.568 134.088 809.064 136.988 788.924 144.193C770.844 150.757 753.545 158.82 737.282 168.262C721.052 177.638 705.507 188.315 692.424 200.877C680.18 212.598 670.117 225.792 661.675 239.668C645.792 265.746 635.368 294.286 614.535 318.163C602.609 331.772 587.243 344.885 569.695 353.232C550.032 362.581 528.12 362.524 506.939 358.477C488.629 354.982 471.134 349.074 452.634 346.398C437.05 344.207 421.211 343.395 405.368 343.973C372.856 345.046 338.122 351.189 310.918 367.563C283.005 384.373 268.583 413.144 250.109 436.627C238.124 451.854 224.255 465.963 207.517 477.613C190.78 489.263 171.127 497.788 150.662 503.655C141.955 506.128 133.098 508.177 124.133 509.792C123.68 509.875 123.904 510.443 124.357 510.36L124.328 510.354Z" fill="#B4B4B4"/>
<path d="M120.214 514.2C160.805 508.308 198.081 492.902 225.745 466.352C251.298 441.846 264.781 411.014 287.419 384.892C308.653 360.37 344.909 349.552 378.967 345.741C396.614 343.773 414.432 343.555 432.06 345.092C449.779 346.627 466.321 350.708 483.092 355.463C501.23 360.607 520.161 365.793 539.678 364.463C560.267 363.062 577.169 353.606 591.985 341.841C618.784 320.613 632.393 292.923 645.482 264.665C652.082 250.428 659.02 236.268 668.173 222.981C678.752 207.634 692.289 193.869 708.207 182.272C724.318 170.657 741.921 160.633 760.666 152.399C769.725 148.324 779.066 144.734 788.635 141.649C800.229 137.959 812.731 135.968 824.915 134.561C847.503 131.954 870.245 132.35 892.92 132.242C915.26 132.096 937.456 130.965 959.532 127.581C1001.49 121.136 1042.01 108.789 1079.4 91.055C1089.75 86.1503 1099.81 80.845 1109.58 75.1392C1109.96 74.9154 1109.54 74.4149 1109.19 74.637C1071.22 96.6845 1029.02 112.841 984.607 122.336C963.545 126.893 942.061 129.758 920.441 130.892C897.863 132.02 875.288 131.227 852.707 131.968C830.829 132.684 807.74 134.69 787.024 141.484C768.611 147.627 751.002 155.438 734.508 164.78C717.763 174.146 701.779 184.994 688.544 197.871C676.092 209.976 666.098 223.69 657.984 238.128C643.08 264.658 634.252 293.599 614.759 318.238C603.135 332.944 587.535 346.967 569.413 355.936C549.513 365.783 527.112 365.367 505.724 360.702C487.203 356.67 469.616 350.017 450.811 346.842C435.177 344.268 419.223 343.168 403.238 343.562C370.447 344.24 335.17 350.237 307.852 366.94C279.318 384.384 266.197 414.565 248.336 439.086C237.248 454.334 224.211 468.492 208.186 480.262C191.21 492.734 171.142 501.67 149.903 507.485C140.167 510.123 130.234 512.166 120.179 513.597C119.726 513.663 119.761 514.267 120.214 514.2Z" fill="#B4B4B4"/>
<path d="M116.176 518.025C158.137 513.434 196.859 497.637 224.58 469.768C249.799 444.442 261.696 412.716 283.563 385.614C304.245 359.944 341.47 348.756 376.13 345.128C394.054 343.251 412.14 343.24 429.982 345.098C448.084 346.981 464.764 351.644 481.741 356.984C499.312 362.549 517.744 368.168 537.01 367.449C558.064 366.659 575.272 357.218 590.277 345.103C617.518 323.107 630.223 294.298 642.242 265.012C648.525 249.735 655.202 234.517 664.531 220.331C674.889 204.624 688.492 190.59 704.677 178.914C721.548 166.845 740.119 156.616 759.944 148.474C768.808 144.749 777.943 141.523 787.289 138.818C799.018 135.475 811.613 133.939 823.853 133.005C847.079 131.226 870.287 132.742 893.454 133.557C916.373 134.379 939.103 134.074 961.877 131.214C1005.15 125.742 1047.04 113.633 1085.48 95.4814C1095.83 90.5767 1105.87 85.2779 1115.6 79.5849C1115.68 79.5397 1115.73 79.4703 1115.75 79.392C1115.77 79.3137 1115.75 79.2329 1115.7 79.1674C1115.65 79.1019 1115.57 79.057 1115.48 79.0426C1115.38 79.0282 1115.29 79.0456 1115.21 79.0908C1076.39 101.766 1032.89 117.912 987.123 126.629C965.951 130.72 944.384 132.977 922.757 133.364C899.295 133.712 875.969 131.799 852.53 131.548C829.873 131.317 806 132.463 784.347 139.029C765.865 144.735 748.179 152.217 731.64 161.327C714.492 170.659 698.058 181.63 684.66 194.815C671.911 207.373 661.971 221.715 654.173 236.821C639.793 264.685 632.353 295.039 612.809 320.941C601.305 336.237 585.108 351.304 566.111 359.976C546.099 369.208 523.967 367.84 503.127 362.594C484.887 357.997 467.638 350.921 449.026 347.29C433.032 344.277 416.637 342.886 400.183 343.147C367.165 343.523 331.404 349.548 304.14 366.701C275.407 384.818 263.643 416.06 246.588 441.495C236.06 457.179 223.457 471.771 207.536 483.859C189.926 497.231 168.709 506.573 146.179 512.155C136.353 514.576 126.331 516.336 116.207 517.418C115.751 517.444 115.787 518.072 116.242 518.021L116.176 518.025Z" fill="#B4B4B4"/>
<path d="M112.147 521.886C155.45 518.573 195.675 502.415 223.375 473.191C248.165 447.034 258.573 414.433 279.569 386.445C299.6 359.747 337.392 348.146 372.639 344.614C390.974 342.778 409.467 342.954 427.657 345.137C445.957 347.309 462.686 352.485 479.665 358.358C497.043 364.37 515.23 370.536 534.425 370.403C555.849 370.245 573.414 360.88 588.537 348.5C616.066 325.874 627.928 296.33 638.858 266.179C644.614 250.351 650.647 234.54 659.674 219.759C669.485 203.57 682.864 189.087 699.072 177.109C716.35 164.542 735.549 154.03 756.122 145.872C765.378 142.111 774.921 138.902 784.681 136.266C796.947 132.997 810.154 131.806 822.895 131.303C847.046 130.358 870.977 133.003 894.907 134.824C917.574 136.557 940.208 137.048 962.947 134.925C1007.61 130.608 1051 118.877 1090.63 100.402C1101.35 95.4245 1111.75 89.9713 1121.8 84.0653C1122.17 83.8416 1121.75 83.3411 1121.4 83.5631C1081.38 107.054 1036.14 123.225 988.615 131.026C966.448 134.72 943.909 136.295 921.424 135.72C898.028 135.063 874.892 132.154 851.581 130.984C828.452 129.835 804.075 130.187 781.728 136.461C762.429 142.029 743.979 149.606 726.806 159.017C709.176 168.418 692.549 179.658 679.291 193.311C666.745 206.237 657.227 220.942 649.994 236.435C636.426 265.48 630.401 297.076 610.794 324.039C599.584 339.464 583.519 354.838 564.467 363.376C544.032 372.552 521.483 370.392 500.573 364.448C482.59 359.336 465.646 351.765 447.193 347.754C430.93 344.318 414.184 342.636 397.347 342.749C363.682 342.815 326.847 348.886 299.488 367.037C270.725 386.117 260.442 418.742 244.009 445.046C233.944 461.163 221.506 476.133 205.494 488.452C187.748 502.115 166.111 511.433 143.151 516.661C132.983 518.955 122.616 520.495 112.168 521.263C112.084 521.279 112.009 521.321 111.957 521.379C111.905 521.438 111.879 521.51 111.883 521.582C111.887 521.655 111.922 521.723 111.98 521.775C112.039 521.827 112.118 521.859 112.203 521.866L112.147 521.886Z" fill="#B4B4B4"/>
<path d="M108.121 525.685C152.125 523.777 193.503 507.601 221.141 477.637C246.251 450.428 255.144 416.511 275.626 387.219C295.121 359.325 333.88 347.314 369.872 343.964C388.615 342.216 407.502 342.628 426.017 345.189C444.444 347.757 461.096 353.415 478.018 359.783C495.73 366.47 514.476 373.387 534.395 373.252C555.791 373.104 573.253 363.431 588.058 350.842C616.126 326.99 626.578 295.808 636.578 264.394C641.834 247.845 647.598 231.331 656.771 215.936C666.683 199.261 680.518 184.44 697.405 172.406C715.231 159.813 735.08 149.461 756.323 141.675C765.546 138.182 775.058 135.292 784.775 133.029C797.239 130.208 810.612 129.58 823.411 129.591C848.191 129.619 872.57 133.441 897.005 136.234C919.693 138.821 942.408 140.067 965.361 138.497C1010.8 135.4 1055.71 123.703 1096.02 105.19C1107.02 100.132 1117.67 94.5529 1127.94 88.4795C1128 88.4299 1128.05 88.362 1128.06 88.2885C1128.07 88.215 1128.05 88.1407 1128 88.0794C1127.95 88.0182 1127.88 87.9741 1127.8 87.9553C1127.71 87.9365 1127.62 87.9443 1127.55 87.9772C1086.63 112.13 1040.01 128.269 991.139 135.197C968.353 138.467 945.239 139.405 922.294 137.993C898.334 136.48 874.762 132.45 850.882 130.343C828.247 128.35 804.031 127.676 781.827 133.127C762.009 137.987 742.989 145.603 725.354 154.738C707.496 163.983 690.435 175.151 676.918 188.771C663.638 202.192 653.9 217.716 646.784 234.067C633.776 264.064 629.322 296.619 610.539 324.802C599.504 341.298 582.913 357.938 562.769 366.718C541.798 375.86 518.991 372.851 498.07 366.213C480.352 360.585 463.689 352.602 445.413 348.193C429.079 344.371 412.181 342.4 395.156 342.332C361.009 341.99 323.35 347.979 295.792 366.65C266.669 386.421 257.72 420.189 242.073 447.4C232.333 464.354 219.934 480.17 203.408 492.995C185.477 506.911 163.497 516.232 140.078 521.123C129.565 523.287 118.852 524.599 108.084 525.041C108 525.058 107.926 525.099 107.873 525.157C107.821 525.216 107.795 525.288 107.799 525.36C107.803 525.433 107.838 525.501 107.896 525.553C107.955 525.605 108.034 525.638 108.119 525.645L108.121 525.685Z" fill="#B4B4B4"/>
<path d="M104.092 529.511C149.374 528.951 192.301 512.378 219.897 481.02C244.936 452.596 252.006 417.314 272.378 386.947C291.521 358.387 331.354 346.33 367.66 343.301C386.259 341.737 404.974 342.349 423.277 345.122C442.373 348.055 459.367 354.338 476.698 361.362C494.03 368.385 512.233 375.657 531.873 376.127C553.889 376.646 571.906 366.86 586.95 353.781C615.387 329.052 624.778 296.833 633.731 264.446C638.459 247.338 643.673 230.218 652.621 214.23C662.221 197.039 676.106 181.769 693.3 169.495C711.26 156.822 731.339 146.504 752.845 138.897C762.348 135.434 772.147 132.613 782.148 130.46C794.633 127.832 807.889 127.51 820.632 127.863C845.517 128.547 869.781 133.175 894.111 136.959C917.979 140.681 941.924 143.075 966.323 142.124C1013.38 140.258 1060.2 128.821 1101.94 109.774C1113.03 104.71 1123.76 99.099 1134.08 92.9687C1134.46 92.745 1134.04 92.2445 1133.69 92.4665C1091.53 117.462 1043.09 133.589 992.453 139.482C968.707 142.291 944.69 142.47 921.009 140.013C896.803 137.376 873.131 132.44 849.012 129.491C826.477 126.757 802.285 125.355 779.873 130.341C759.239 134.926 739.404 142.622 721.086 151.99C702.768 161.358 685.543 172.649 672.119 186.707C659.395 200.031 650.178 215.332 643.649 231.447C630.796 263.139 628.078 297.539 608.965 327.421C598.013 344.534 580.816 362.226 559.688 370.643C538.823 378.963 516.464 375.153 496.267 368.183C478.511 362.056 461.921 353.513 443.55 348.624C427.31 344.465 410.433 342.217 393.388 341.942C358.595 341.129 319.833 347.004 291.968 366.452C262.581 386.933 254.97 421.761 240.144 449.821C230.86 467.403 218.715 483.818 202.024 497.104C183.649 511.74 160.682 521.296 136.271 525.825C125.658 527.765 114.862 528.798 104.047 528.908C103.591 528.935 103.625 529.522 104.082 529.512L104.092 529.511Z" fill="#B4B4B4"/>
<path d="M100.062 533.346C146.547 534.137 191.139 517.178 218.613 484.381C243.19 455.047 248.786 419.003 268.382 387.728C287.009 358.011 327.791 345.535 364.888 342.687C383.9 341.215 403.01 342.065 421.633 345.21C440.469 348.424 457.117 355.01 474.087 362.361C491.567 369.973 510.045 378.045 530.177 378.947C552.516 379.948 570.872 370.077 585.973 356.664C614.977 330.877 623.188 297.362 631.112 263.832C635.269 246.239 639.985 228.599 648.724 212.114C658.268 194.061 672.653 178.089 690.713 165.495C709.168 152.751 729.827 142.525 751.925 135.196C762.139 131.654 772.712 128.945 783.497 127.104C796.33 125.054 809.905 125.141 822.811 126.009C847.8 127.68 871.938 133.414 896.209 138.154C920.065 142.822 944.065 146.004 968.716 145.619C1016.38 144.873 1064.07 133.951 1106.5 114.944C1118.16 109.705 1129.42 103.84 1140.22 97.3863C1140.61 97.1621 1140.18 96.6621 1139.84 96.8836C1096.98 122.396 1047.43 138.428 995.772 143.489C971.425 145.912 946.864 145.45 922.798 142.115C898.257 138.641 874.442 132.55 850.027 128.609C827.142 124.919 802.403 122.789 779.275 127.26C758.144 131.34 737.757 138.866 719.006 148.162C700.255 157.458 682.003 169.124 668.237 183.703C655.208 197.513 646.03 213.481 639.909 230.25C627.822 263.134 626.671 298.759 607.654 329.815C596.971 347.284 579.692 365.562 558.167 373.856C537.007 382.032 514.545 377.574 494.518 370.093C476.723 363.46 460.254 354.368 441.715 349.054C425.226 344.454 407.998 341.9 390.558 341.468C355.489 340.34 316.211 346.189 288.284 366.036C274.278 375.986 266.047 388.888 259.308 403.021C251.496 419.379 245.828 436.388 237.871 452.706C229.113 470.677 217.308 487.517 200.645 501.117C181.833 516.448 157.946 526.243 132.569 530.384C121.83 532.111 110.927 532.879 100.042 532.677C99.5841 532.663 99.619 533.267 100.077 533.281L100.062 533.346Z" fill="#B4B4B4"/>
<path d="M96.0316 537.17C143.137 539.29 188.963 522.42 216.41 488.826C241.561 458.045 245.178 420.243 264.966 387.511C283.229 357.267 324.718 344.661 362.106 342.054C381.531 340.673 401.035 341.763 419.968 345.287C439.084 348.881 455.738 356.056 472.718 363.932C490.345 372.109 509.11 380.85 529.724 381.845C551.561 382.899 569.559 373.275 584.284 360.118C614.19 333.439 621.418 298.584 628.275 263.912C631.839 245.943 635.925 227.943 644.275 211.005C653.241 192.605 667.348 176.264 685.36 163.413C704.021 150.101 725.767 139.703 748.422 132.312C758.928 128.803 769.793 126.162 780.863 124.428C793.997 122.474 807.852 123.11 820.964 124.41C846.605 126.964 871.211 133.558 895.99 139.182C920.132 144.648 944.478 148.723 969.627 149.036C1018.82 149.646 1068.55 139.01 1112.4 119.461C1124.16 114.212 1135.51 108.306 1146.36 101.784C1146.74 101.561 1146.32 101.06 1145.97 101.29C1102.06 127.554 1050.91 143.537 997.8 147.592C972.535 149.511 947.145 148.306 922.43 144.015C897.398 139.633 873.17 132.654 848.183 127.89C825.18 123.488 800.099 120.393 776.592 124.571C754.896 128.425 733.935 135.92 714.718 145.388C695.674 154.742 677.482 166.436 663.862 181.249C650.879 195.363 642.034 211.651 636.333 228.743C624.964 262.844 625.376 299.623 606.586 331.981C596.189 349.943 578.719 368.862 556.671 377.17C535.219 385.233 512.696 380.069 492.795 372.112C474.667 364.844 457.898 355.011 438.886 349.264C422.444 344.436 405.211 341.687 387.734 341.104C352.391 339.677 312.575 345.452 284.586 365.731C270.326 376.059 262.247 389.437 255.823 404.092C248.364 421.108 243.217 438.733 235.594 455.718C227.235 474.304 215.589 491.756 198.597 505.763C179.44 521.55 154.801 531.372 128.731 535.06C117.894 536.572 106.917 537.077 95.9967 536.566C95.538 536.544 95.5824 537.147 96.0316 537.17Z" fill="#B4B4B4"/>
<path d="M91.9074 540.994C139.058 544.395 185.692 528.149 213.312 494.407C239.312 462.657 241.615 423.549 260.408 389.285C277.75 357.6 319.66 344.211 357.97 341.559C377.839 340.158 397.784 341.38 417.094 345.18C436.578 349.059 453.333 356.656 470.45 365.081C488.029 373.753 506.753 383.102 527.562 384.667C549.576 386.309 567.874 376.934 582.715 363.633C597.556 350.332 607.874 334.144 614.101 316.747C620.328 299.35 622.781 281.283 625.71 263.383C628.759 244.757 632.382 226.009 640.637 208.422C649.532 189.365 664.049 172.491 682.776 159.444C701.93 146.072 724.29 135.743 747.517 128.691C758.352 125.286 769.563 122.865 780.959 121.468C794.612 119.927 808.882 121.137 822.34 122.982C848.028 126.519 872.533 133.999 897.246 140.45C921.628 146.791 946.326 151.668 972.004 152.557C1021.75 154.249 1072.38 144.174 1116.96 124.64C1129.3 119.242 1141.2 113.109 1152.54 106.288C1152.92 106.064 1152.5 105.564 1152.15 105.786C1107.28 132.697 1054.68 148.574 1000.27 151.624C974.973 153.039 949.638 151.258 925.099 146.34C899.674 141.246 875.248 133.317 850.05 127.54C826.774 122.201 801.05 117.884 776.762 121.396C754.846 124.593 733.57 131.751 714.037 140.874C694.005 150.252 674.732 162.235 660.512 177.688C647.25 192.085 638.489 208.837 633.041 226.358C622.131 261.652 624.325 299.579 605.989 333.341C595.991 351.787 578.717 371.285 556.439 379.913C534.638 388.376 511.659 382.737 491.613 374.248C473.561 366.637 457.022 356.346 438.151 350.058C421.689 344.55 403.961 341.708 386.246 340.755C350.234 338.801 309.267 344.449 280.877 365.364C266.709 375.792 258.796 389.249 252.758 403.987C245.73 421.212 241.167 439.038 234.265 456.296C226.43 475.877 215.191 494.436 197.79 509.274C178.491 525.731 153.312 535.932 126.525 539.427C115.095 540.896 103.526 541.21 92.0615 540.363C91.6118 540.333 91.4554 540.923 91.9055 540.962L91.9074 540.994Z" fill="#B4B4B4"/>
<path d="M87.8759 544.82C136.755 549.599 185.555 532.565 212.904 496.627C237.906 463.764 238.407 423.977 256.934 389.066C274.077 356.755 316.953 343.245 355.738 340.905C375.687 339.675 395.68 341.123 414.977 345.197C434.41 349.346 451 357.227 467.881 366.021C485.646 375.263 504.571 385.448 525.873 387.47C548.44 389.612 567.255 379.941 582.266 366.122C613.336 337.502 618.269 300.204 623.028 263.53C625.521 244.347 628.566 224.986 636.592 206.726C645.097 187.168 659.632 169.82 678.659 156.518C697.729 143.174 720.039 132.969 743.235 126.048C754.602 122.542 766.365 120.099 778.313 118.763C792.002 117.349 806.2 118.805 819.616 120.92C846.546 125.167 872.047 133.874 897.805 141.427C922.68 148.708 947.944 154.481 974.419 155.962C1025.2 158.797 1077.23 149.086 1122.87 129.256C1135.3 123.833 1147.25 117.649 1158.65 110.755C1159.03 110.523 1158.61 110.023 1158.26 110.253C1112.55 137.748 1058.65 153.508 1003.13 155.609C976.325 156.603 949.585 153.974 923.915 147.821C898.558 141.763 874.26 133.092 849.095 126.562C824.907 120.282 798.245 115.228 772.677 118.871C750.719 121.982 729.35 129.023 709.778 138.117C689.592 147.488 670.202 159.574 656.137 175.245C642.616 190.286 634.071 207.801 629.124 226.076C619.315 262.429 622.898 301.309 604.687 336.08C594.903 354.765 577.567 374.678 554.997 383.186C532.902 391.512 509.805 385.162 489.924 376.227C471.803 368.087 455.31 357.277 436.337 350.526C419.582 344.575 401.398 341.429 383.227 340.324C347.277 338.14 306.367 343.607 277.885 364.423C246.405 387.455 243.649 426.46 232.311 457.967C225.071 478.12 214.35 497.399 196.926 512.828C177.643 529.906 152.188 540.446 124.889 543.809C112.649 545.321 100.26 545.476 88.0347 544.27C87.5841 544.223 87.4276 544.814 87.8782 544.86L87.8759 544.82Z" fill="#B4B4B4"/>
<path d="M83.8502 548.646C107.98 551.602 133.212 549.408 155.943 541.205C178.851 532.928 197.969 518.452 211.133 500.54C223.43 483.802 229.946 464.814 235.13 445.862C240.314 426.911 244.075 406.919 253.436 388.841C270.409 356.046 313.812 342.434 352.951 340.291C373.116 339.169 393.3 340.818 412.72 345.174C432.669 349.672 449.449 358.205 466.584 367.589C484.161 377.214 502.909 387.797 524.227 390.254C546.724 392.844 565.681 383.472 580.728 369.626C612.651 340.254 616.705 301.772 620.372 264.168C622.311 244.314 624.732 224.215 632.504 205.194C640.725 184.973 655.37 166.981 674.803 153.228C694.969 139.015 718.16 128.255 743.055 121.561C768.682 114.653 794.103 114.41 820.119 119.332C847.446 124.525 873.068 134.178 899.077 142.597C923.92 150.647 949.258 157.191 975.968 159.303C1028.15 163.431 1082.06 154.111 1129.08 133.676C1141.5 128.275 1153.44 122.097 1164.8 115.195C1165.18 114.972 1164.76 114.471 1164.41 114.693C1117.74 142.859 1062.36 158.515 1005.59 159.592C978.754 160.085 952.077 156.909 926.59 150.185C900.566 143.302 875.847 133.613 850.1 126.084C825.525 118.89 799.138 113.311 772.765 115.547C750.07 117.465 727.76 124.545 707.643 133.783C686.977 143.255 667.158 155.665 652.789 171.675C638.657 187.341 630.116 205.768 625.535 224.927C616.569 262.353 621.682 302.138 603.841 338.051C594.31 357.31 576.773 377.864 553.548 386.418C531.2 394.655 507.867 387.502 488.209 378.159C470.06 369.52 453.604 358.199 434.509 350.995C417.743 344.698 399.408 341.245 381.064 339.948C344.615 337.358 302.821 342.722 274.095 364.085C259.385 375.029 251.51 389.146 246.036 404.739C239.548 423.217 236.039 442.297 229.937 460.866C223.195 481.377 212.898 501.068 195.505 516.874C175.829 534.734 149.367 545.478 121.091 548.445C108.748 549.711 96.2929 549.579 84.0542 548.053C83.6031 547.998 83.4467 548.588 83.8977 548.643L83.8502 548.646Z" fill="#B4B4B4"/>
<path d="M79.8176 552.482C104.49 556.085 130.531 554.207 153.919 545.83C177.111 537.52 196.421 522.725 209.344 504.457C221.787 486.935 227.861 467.052 232.626 447.285C237.229 428.004 240.471 407.937 249.396 389.569C265.865 355.665 310.179 341.644 350.168 339.686C370.965 338.65 391.753 340.595 411.654 345.439C431.628 350.364 448.247 359.407 465.261 369.177C482.67 379.176 501.267 390.13 522.591 393.023C545.644 396.146 565.097 386.462 580.288 372.14C612.706 341.609 615.286 301.686 617.923 263.092C619.31 243.085 621.198 222.846 628.516 203.537C636.495 182.366 651.608 163.538 671.967 149.405C692.207 135.422 715.43 124.916 740.3 118.493C766.589 111.667 792.509 111.807 818.862 117.436C846.603 123.365 872.428 133.878 898.65 143.204C923.54 152.051 948.951 159.536 975.946 162.447C1029.19 168.193 1084.89 159.512 1133.3 138.973C1146.42 133.392 1159 126.931 1170.93 119.655C1171.31 119.423 1170.89 118.922 1170.54 119.152C1122.52 148.213 1065.15 163.759 1006.7 163.551C978.471 163.362 950.576 159.134 924.187 151.045C898.26 143.203 873.573 132.762 847.837 124.602C823.714 116.97 797.678 110.878 771.505 112.618C748.293 114.163 725.443 121.128 704.867 130.344C683.694 139.781 663.453 152.312 648.919 168.615C634.55 184.787 626.176 203.778 622.025 223.461C613.778 262.121 620.567 303.044 602.898 340.263C593.551 359.899 575.897 381.243 552.139 389.65C529.94 397.491 507.066 390.207 487.772 380.721C469.379 371.668 452.918 359.75 433.689 351.884C416.646 344.917 397.748 341.117 378.866 339.585C341.945 336.585 299.316 341.829 270.305 363.709C255.301 375.025 247.54 389.62 242.371 405.696C236.216 424.84 233.24 444.552 227.49 463.771C221.263 484.631 211.382 504.759 194.001 520.928C174.341 539.223 147.564 550.13 118.906 552.918C105.892 554.15 92.7735 553.805 79.9456 551.893C79.8561 551.885 79.7656 551.905 79.6918 551.951C79.618 551.996 79.5662 552.062 79.5467 552.137C79.5271 552.212 79.5412 552.29 79.5861 552.356C79.6311 552.421 79.7037 552.47 79.7896 552.492L79.8176 552.482Z" fill="#B4B4B4"/>
<path d="M75.7897 556.285C100.976 560.544 127.867 559.013 151.91 550.436C175.627 541.975 195.183 526.657 207.965 507.751C220.001 489.953 225.549 469.883 229.791 449.969C234.033 430.054 236.676 409.352 245.399 390.293C261.17 355.671 305.641 341.076 346.077 339.116C367.537 338.041 388.981 340.165 409.433 345.391C430.003 350.733 446.863 360.481 464.199 370.879C481.536 381.277 499.883 392.52 521.218 395.776C544.065 399.299 563.613 389.932 578.799 375.675C612.297 344.209 613.833 302.893 615.434 263.197C616.284 242.292 617.611 221.085 624.953 200.886C632.557 179.531 647.641 160.536 668.177 146.452C688.828 132.282 713.379 121.924 738.708 115.638C750.8 112.638 763.359 110.474 775.918 110.119C790.541 109.701 805.462 112.447 819.374 115.881C873.853 129.153 920.7 158.28 977.593 165.671C1032.01 172.746 1089.47 164.545 1139.21 143.541C1152.42 137.947 1165.09 131.446 1177.08 124.104C1177.46 123.88 1177.04 123.379 1176.69 123.61C1127.78 153.271 1069.04 168.679 1009.51 167.467C980.516 166.774 951.983 161.816 925.178 152.813C898.945 144.133 874.095 132.837 848.024 123.833C823.869 115.484 796.822 107.901 770.184 109.845C746.279 111.591 722.668 118.415 701.267 127.703C679.522 137.132 658.545 149.803 644.059 166.757C630.278 182.895 622.452 201.644 618.724 221.052C611.009 261.151 619.612 303.463 602.101 342.256C592.994 362.427 575.009 384.638 550.548 392.916C527.797 400.603 504.598 392.304 485.347 382.259C466.874 372.629 450.359 360.125 430.844 351.928C413.673 344.702 394.544 340.721 375.419 339.099C338.212 335.93 295.062 341.228 266.12 363.653C251.07 375.302 243.576 390.237 238.768 406.632C232.948 426.443 230.493 446.779 225.087 466.664C219.284 488.097 209.65 508.873 191.961 525.495C171.995 544.26 144.44 555.228 115.097 557.531C101.967 558.535 88.7706 557.925 75.919 555.72C75.8271 555.704 75.7307 555.719 75.6511 555.763C75.5714 555.807 75.515 555.876 75.4942 555.954C75.4735 556.033 75.4901 556.114 75.5404 556.181C75.5908 556.248 75.6707 556.294 75.7626 556.31L75.7897 556.285Z" fill="#B4B4B4"/>
<path d="M71.7623 560.133C97.212 564.991 124.546 563.87 149.089 555.369C173.633 546.868 193.852 530.834 206.567 511.084C218.451 492.633 223.464 471.891 227.225 451.399C230.986 430.907 233.049 409.568 241.78 390C257.665 354.548 303.356 339.955 344.581 338.45C366.03 337.623 387.408 340.022 407.727 345.536C428.538 351.268 445.453 361.626 462.835 372.49C480.217 383.353 498.613 395.103 520.231 398.625C543.321 402.4 563.167 392.758 578.354 378.193C612.176 345.749 612.415 303.248 612.991 262.795C613.296 241.542 614.048 219.94 620.992 199.297C628.423 177.171 643.116 157.864 664.338 143.346C685.56 128.828 710.923 118.35 737.035 112.245C749.259 109.39 761.953 107.421 774.611 107.294C789.85 107.139 805.414 110.462 819.811 114.369C874.648 129.372 921.439 160.173 979.075 168.87C1034.8 177.314 1094.17 169.56 1145.36 148.028C1158.58 142.439 1171.24 135.926 1183.22 128.559C1183.6 128.327 1183.18 127.827 1182.84 128.056C1133.37 158.37 1072.26 173.677 1011.9 171.356C982.059 170.207 953.444 164.337 926.108 154.558C899.833 145.145 875.019 133.153 848.95 123.365C824.752 114.269 797.339 105.624 770.24 106.844C745.707 107.949 721.316 114.648 699.201 123.937C676.789 133.372 654.958 146.27 640.206 163.74C626.013 180.492 618.467 200.121 615.191 220.27C608.553 261.025 618.304 303.731 601.718 343.366C592.943 364.342 574.659 387.789 549.189 396.102C526.114 403.629 502.787 394.603 483.696 384.178C465.47 374.227 449.24 361.52 430.059 352.844C412.816 345.048 393.38 340.69 373.972 338.785C335.932 335.067 291.327 340.247 261.944 363.602C246.874 375.575 239.63 390.875 235.163 407.565C229.678 428.068 227.763 449.002 222.748 469.55C217.35 491.558 207.992 512.988 190.034 530.062C169.716 549.332 141.371 560.329 111.361 562.13C98.1312 562.903 84.8766 562.038 72.0152 559.561C71.9233 559.545 71.8268 559.561 71.7472 559.605C71.6675 559.649 71.6111 559.717 71.5904 559.796C71.5696 559.874 71.5862 559.955 71.6366 560.022C71.6869 560.089 71.7668 560.135 71.8587 560.152L71.7623 560.133Z" fill="#B4B4B4"/>
<path d="M67.7301 563.968C93.4133 569.402 121.249 568.721 146.264 560.289C171.278 551.858 191.851 535.505 204.512 515.338C216.571 496.126 221.155 474.537 224.482 453.303C227.788 432.199 229.262 409.91 238.177 389.717C254.008 353.84 300.18 339.154 341.79 337.878C364.056 337.128 386.213 339.893 407.132 346.032C427.749 352.187 444.386 363.013 461.487 374.135C478.589 385.257 497.397 397.71 519.296 401.473C542.736 405.535 562.794 395.598 577.98 380.687C612.134 347.222 610.978 303.51 610.528 262.293C610.281 240.393 610.496 218.08 617.414 196.654C624.411 174.163 639.894 154.107 661.477 139.58C683.161 124.979 709.158 114.577 735.803 108.797C748.038 106.135 760.736 104.392 773.34 104.494C789.834 104.614 806.521 108.727 821.831 113.437C876.166 130.149 922.339 161.777 979.817 171.88C1036.9 181.917 1098.47 174.706 1151.27 152.58C1164.58 146.983 1177.31 140.438 1189.34 133.018C1189.72 132.786 1189.3 132.286 1188.95 132.516C1137.77 164.027 1073.69 179.151 1011.28 175.026C981.869 173.086 953.862 166.518 927.185 156.265C900.304 145.943 875.053 132.983 848.388 122.277C824.115 112.554 796.556 103.192 769.038 103.936C743.489 104.606 717.888 111.456 694.943 121.076C673.134 130.226 651.877 142.663 637.34 159.555C622.371 176.901 614.756 197.486 611.75 218.508C605.833 260.53 617.25 304.366 600.982 345.372C592.513 366.524 574.564 390.17 549.154 398.85C525.892 406.776 502.38 397.518 483.223 386.774C464.734 376.394 448.502 363.162 429.187 353.815C411.92 345.432 392.213 340.678 372.4 338.53C334.035 334.289 288.897 339.161 259 362.53C243.052 374.982 235.665 391.098 231.401 408.664C226.339 429.554 224.933 450.879 220.408 471.843C215.483 494.606 206.423 516.899 187.959 534.616C167.697 554.044 139.209 565.025 109.123 566.677C95.221 567.4 81.3119 566.298 67.8884 563.41C67.4445 563.315 67.2981 563.913 67.7325 564.009L67.7301 563.968Z" fill="#B4B4B4"/>
<path d="M63.7153 567.795C90.2794 573.961 119.407 573.536 145.39 564.54C171.017 555.662 191.645 538.449 203.779 517.416C215.12 497.802 219.017 476.042 221.811 454.67C224.606 433.297 225.605 410.849 234.131 390.372C249.669 353.05 297.519 338.058 340.339 337.253C362.592 336.761 384.678 339.799 405.461 346.211C426.436 352.805 443.169 364.312 460.444 375.957C477.521 387.476 496.026 400.124 517.928 404.267C541.814 408.795 562.246 398.57 577.589 383.238C612.265 348.58 609.516 303.37 608.059 261.218C607.298 239.162 607.029 216.707 613.447 195.044C620.353 171.754 635.342 151.469 657.708 136.449C679.549 121.758 705.815 111.413 732.658 105.751C745.538 103.036 758.905 101.334 772.142 101.658C788.824 102.074 805.608 106.553 820.968 111.607C876.48 129.898 923.18 163.732 982.241 175.149C1040.22 186.328 1103.27 179.686 1157.2 157.156C1170.6 151.537 1183.42 144.949 1195.51 137.467C1195.88 137.235 1195.47 136.734 1195.12 136.964C1142.96 169.162 1077.47 183.98 1014.03 178.849C983.704 176.396 955.086 168.984 927.832 157.811C900.956 146.762 875.753 133.137 849.114 121.727C823.942 110.959 795.24 100.459 766.275 101.061C740.46 101.585 714.545 108.292 691.316 117.936C668.869 127.252 647.018 140.135 632.482 157.714C617.946 175.293 610.786 195.989 608.297 217.046C603.175 260.305 616.259 305.273 600.087 347.621C591.863 369.203 573.663 393.631 547.621 402.097C523.815 409.837 499.986 399.556 480.915 388.321C462.623 377.535 446.517 364.021 427.362 354.318C409.907 345.477 389.764 340.425 369.605 338.079C330.987 333.579 285.272 338.355 255.224 362.087C239.375 374.599 232.025 390.704 228.029 408.279C223.146 429.804 222.262 451.745 218.242 473.366C213.871 496.647 205.493 519.691 187.057 538.06C166.54 558.496 137.085 569.905 105.921 571.215C91.7023 571.767 77.5131 570.407 63.8803 567.188C63.4454 567.084 63.289 567.674 63.7334 567.778L63.7153 567.795Z" fill="#B4B4B4"/>
<path d="M59.6848 571.62C86.4824 578.362 116.084 578.394 142.566 569.458C168.328 560.766 189.081 543.578 201.233 522.52C212.97 502.188 216.539 479.528 218.936 457.37C221.286 435.563 221.793 412.692 229.865 391.611C244.627 353.051 293.218 337.369 337.016 336.669C360.045 336.219 382.871 339.574 404.221 346.548C425.249 353.551 441.879 365.589 459.089 377.593C476.299 389.597 495.169 402.958 517.603 407.24C541.249 411.726 561.507 401.471 576.63 386.296C612.392 350.316 608.002 303.408 605.54 260.03C604.214 237.095 603.467 213.65 610.129 191.085C617.092 167.622 632.379 147.384 655.046 132.476C677.714 117.568 705.334 107.064 733.33 101.908C747.097 99.3757 761.471 97.9386 775.464 99.1478C791.229 100.505 806.829 105.101 821.296 110.223C877.263 130.102 923.964 165.446 983.722 178.203C1042.58 190.793 1107.33 184.779 1162.56 161.947C1176.25 156.27 1189.33 149.568 1201.65 141.923C1202.03 141.691 1201.61 141.191 1201.26 141.421C1148.6 174.019 1082.23 188.596 1018.22 182.788C987.265 179.984 958.054 172.041 930.502 160.175C902.951 148.309 877.281 133.71 850.109 121.33C825.493 110.117 797.269 98.8231 768.632 98.1704C742.333 97.5681 715.501 103.916 691.577 113.237C668.278 122.328 645.377 135.183 630.027 153.011C614.676 170.838 607.301 192.274 604.962 213.96C600.211 258.352 614.939 304.048 599.962 347.789C592.335 370.144 574.225 395.793 547.541 404.854C523.568 412.999 499.487 402.474 480.4 390.974C461.855 379.766 445.683 365.772 426.439 355.339C409.234 346.056 389.145 340.622 368.976 337.937C329.552 332.684 282.302 337.129 251.531 361.525C235.275 374.415 227.957 391.084 224.249 409.191C219.647 431.613 219.327 454.409 215.587 476.91C211.697 500.276 203.692 523.5 185.477 542.075C164.778 563.159 134.706 574.773 102.877 575.775C88.26 576.181 73.7083 574.568 59.7919 571C59.3471 570.889 59.2002 571.479 59.6355 571.591L59.6848 571.62Z" fill="#B4B4B4"/>
<path d="M55.6522 575.448C82.6642 582.767 112.75 583.247 139.731 574.379C166.403 565.618 187.743 547.702 199.742 525.797C210.95 505.383 214.083 482.771 215.989 460.691C217.976 438.041 217.892 414.348 225.768 392.35C239.981 352.699 289.537 336.566 334.196 336.09C357.448 335.752 380.462 339.307 401.921 346.553C423.109 353.854 439.703 366.249 456.869 378.643C474.274 391.225 493.309 405.296 516.186 410.004C540.298 414.963 560.933 404.46 576.211 388.825C612.307 351.872 606.547 303.687 603.043 259.594C601.211 236.325 599.891 212.51 606.183 189.482C612.748 165.42 628.07 144.615 651.212 129.348C674.8 113.886 703.447 103.347 732.459 98.4392C746.455 96.0793 761.175 94.8645 775.288 96.4946C791.061 98.3274 806.502 103.143 820.911 108.575C877.33 129.841 924.018 166.761 984.369 181.049C1044.27 195.226 1110.88 190.049 1167.62 166.88C1181.71 161.107 1195.16 154.242 1207.79 146.373C1208.16 146.142 1207.75 145.641 1207.4 145.879C1153.57 179.304 1085.32 193.562 1020.11 186.507C988.384 183.086 958.692 174.242 930.764 161.477C903.152 148.88 877.483 133.651 850.253 120.58C825.326 108.618 796.68 96.436 767.319 95.3084C740.576 94.2797 713.144 100.469 688.715 109.795C664.809 118.929 641.163 132.077 625.751 150.498C610.599 168.629 603.542 190.119 601.581 211.912C597.448 257.762 614.013 304.757 599.184 350.055C591.782 372.664 573.681 398.797 546.724 407.93C522.252 416.169 497.808 404.809 478.693 392.818C460.102 381.161 443.962 366.729 424.638 355.905C407.264 346.171 386.795 340.428 366.226 337.564C326.346 332.023 278.228 336.445 247.343 361.518C230.849 374.898 223.833 392.179 220.469 410.791C216.342 433.686 216.521 456.881 213.199 479.843C209.803 503.511 202.194 527.165 184.04 546.124C163.254 567.851 132.433 579.686 99.9569 580.386C84.9314 580.644 70.0082 578.779 55.7996 574.866C55.3638 574.746 55.2079 575.344 55.6432 575.456L55.6522 575.448Z" fill="#B4B4B4"/>
<path d="M51.6276 579.281C79.522 587.357 110.939 588.123 138.913 578.633C166.019 569.451 187.218 550.736 198.701 528.158C209.577 506.786 211.946 483.322 213.378 460.47C214.811 437.618 214.166 413.126 222.525 390.898C237.556 350.917 288.307 335.321 333.441 335.496C356.91 335.592 380.603 339.413 401.982 347.381C423.361 355.349 439.904 368.675 457.201 381.522C474.498 394.369 493.522 408.585 516.533 413.116C541.152 417.949 561.883 406.31 576.935 390.244C612.443 352.171 604.96 303.036 600.554 258.503C598.223 234.689 596.384 210.298 602.618 186.603C609.081 162.079 624.706 140.917 648.407 125.602C672.444 109.985 701.72 99.6113 731.257 95.0606C745.322 92.8906 760.038 91.9424 774.144 93.7829C790.238 95.8798 805.912 101.101 820.515 106.918C877.402 129.546 924.112 167.99 985.065 183.794C1046.02 199.598 1114.38 195.28 1172.68 171.795C1187.18 165.94 1201 158.922 1213.96 150.837C1214.33 150.605 1213.91 150.104 1213.56 150.334C1158.29 184.747 1087.78 198.628 1020.97 190.082C988.822 185.967 958.984 176.26 930.955 162.734C903.377 149.416 877.708 133.517 850.432 119.826C825.393 107.225 796.539 94.2718 766.788 92.4885C739.39 90.8437 711.029 96.9493 685.899 106.348C661.758 115.375 637.911 128.502 622.321 146.973C606.901 165.249 599.93 187.082 598.202 209.103C594.498 256.285 612.817 304.269 598.789 351.055C591.87 374.128 574.259 400.483 547.301 410.416C523.04 419.352 498.438 408.22 479.377 396.178C459.891 383.869 443.303 368.454 423.326 356.707C406.367 346.74 386.3 340.698 365.988 337.505C325.671 331.157 276.662 335.009 244.819 359.992C227.781 373.364 220.292 390.85 217.033 409.803C212.988 433.291 213.686 457.053 210.961 480.618C208.14 505.004 201.321 529.621 183.093 549.456C162.32 572.063 130.869 584.387 97.612 584.922C81.9726 585.112 66.4643 583.004 51.7746 578.691C51.3388 578.571 51.1919 579.161 51.6186 579.29L51.6276 579.281Z" fill="#B4B4B4"/>
<path d="M47.507 583.079C75.3705 591.609 106.908 592.974 135.227 583.835C163.05 574.861 184.962 555.798 196.507 532.652C207.483 510.685 209.471 486.573 210.48 463.156C211.507 439.56 210.318 414.558 218.415 391.595C232.898 350.531 284.68 334.472 330.639 334.906C354.525 335.139 378.652 339.21 400.256 347.601C421.616 355.893 438.076 369.595 455.267 382.755C472.458 395.915 491.685 410.838 514.951 415.83C539.722 421.156 560.774 409.627 575.938 393.336C612.16 354.439 603.587 304.091 598.179 258.865C595.296 234.728 592.834 209.962 598.461 185.825C604.219 161.148 619.125 139.414 642.613 123.699C666.946 107.435 696.984 96.7271 727.202 92.0885C741.579 89.8842 756.565 88.969 770.964 90.7683C787.503 92.8313 803.589 98.4168 818.456 104.525C876.636 128.402 923.565 168.982 985.636 186.497C1047.49 203.912 1117.82 200.53 1177.67 176.729C1192.59 170.785 1206.8 163.601 1220.08 155.285C1220.45 155.054 1220.04 154.553 1219.69 154.783C1163.23 190.055 1090.79 203.547 1022.76 193.708C989.876 188.949 959.606 178.346 931.229 163.92C903.374 149.762 877.481 133.117 849.853 118.615C824.105 105.135 794.409 91.2934 763.4 89.5021C735.919 87.9105 707.537 93.8235 682.234 103.192C657.752 112.27 633.497 125.591 617.97 144.495C602.444 163.399 595.903 185.755 594.672 208.297C592.052 256.087 611.341 304.353 598.386 351.909C591.996 375.379 574.835 402.282 547.851 412.902C523.466 422.508 498.674 411.548 479.397 399.236C459.695 386.649 443.08 370.921 423.315 358.41C406.498 347.756 386.314 341.173 365.727 337.519C324.857 330.331 274.637 333.68 241.891 358.877C224.419 372.322 216.602 390.069 213.477 409.369C209.644 433.055 210.743 456.996 208.707 480.78C206.54 506.08 200.548 531.982 182.077 552.889C161.415 576.264 129.438 589.038 95.5666 589.504C79.244 589.637 63.0828 587.276 47.8567 582.534C47.4299 582.405 47.0992 582.949 47.526 583.078L47.507 583.079Z" fill="#B4B4B4"/>
<path d="M43.4823 586.91C71.8105 596.059 104.221 597.858 133.25 588.476C161.372 579.397 183.313 560.017 194.659 536.543C205.588 513.933 207.08 489.155 207.685 465.172C208.261 440.867 206.416 414.902 214.748 391.223C229.369 349.578 281.975 333.616 328.525 334.363C352.822 334.775 377.331 339.194 399.123 348.043C420.916 356.891 437.34 371.46 454.739 385.092C472.138 398.724 491.617 414.198 515.444 419.005C540.938 424.143 562.19 411.133 577.051 394.222C612.127 354.284 601.963 303.286 595.687 257.9C592.31 233.461 589.361 208.343 594.679 183.797C600.109 158.719 614.959 136.519 638.777 120.584C663.678 103.931 694.626 93.1304 725.566 88.7731C740.463 86.6679 755.9 85.9688 770.78 88.1763C787.573 90.6688 803.826 96.6805 818.867 103.158C877.92 128.777 925.279 171.197 988.78 189.857C1051.12 208.173 1122.36 205.425 1183.07 181.517C1198.27 175.514 1212.73 168.214 1226.22 159.732C1226.6 159.5 1226.18 158.999 1225.83 159.229C1168.34 195.264 1094.23 208.368 1025.12 197.387C991.614 192.059 960.965 180.695 932.297 165.502C904.11 150.556 877.961 133.119 850.023 117.852C824.171 103.747 794.276 89.086 762.84 86.6735C734.687 84.5071 705.422 90.2936 679.418 99.7429C654.506 108.798 629.773 122.251 614.111 141.47C598.45 160.688 592.047 183.763 591.206 206.783C589.444 255.411 609.916 304.207 597.961 352.73C592.121 376.483 575.785 403.145 549.4 414.909C524.437 426.042 498.665 414.792 478.808 401.835C458.718 388.794 441.942 372.429 421.929 359.263C405.147 348.219 384.969 341.256 364.226 337.369C322.741 329.595 271.304 332.659 238.049 358.45C220.473 372.079 212.67 390.076 209.777 409.573C206.163 433.932 207.784 458.489 206.195 482.917C204.528 508.794 199.037 535.296 180.511 556.877C159.86 580.929 127.05 593.978 92.5777 594.107C75.8471 594.09 59.3203 591.474 43.8144 586.391C43.3872 586.254 43.056 586.79 43.4837 586.935L43.4823 586.91Z" fill="#B4B4B4"/>
<path d="M39.4537 590.74C68.0111 600.393 100.851 602.683 130.419 593.399C159.593 584.227 182.083 563.944 193.229 539.496C203.821 516.178 204.707 490.798 204.785 466.272C204.888 441.527 202.53 414.937 210.999 390.822C225.959 348.132 280.445 332.368 327.906 333.878C352.482 334.669 377.208 339.537 398.981 349.032C421.027 358.649 437.714 374.301 455.502 388.556C472.669 402.291 492.337 417.915 516.301 422.286C542.031 426.893 563.21 412.774 577.563 395.65C612.052 354.632 600.32 302.731 593.172 256.919C589.341 232.377 585.947 207.148 590.767 182.388C595.769 156.673 610.569 133.774 634.937 117.451C660.176 100.545 691.734 89.7572 723.188 85.5478C738.536 83.4892 754.485 82.9299 769.667 85.4187C786.493 88.1434 802.723 94.4068 817.722 101.145C877.563 128.043 925.079 172.181 989.379 192.467C1052.64 212.425 1125.76 210.658 1188.1 186.438C1203.71 180.356 1218.55 172.899 1232.37 164.192C1232.74 163.961 1232.33 163.46 1231.98 163.69C1173.24 200.596 1097.2 213.246 1026.88 200.955C992.659 194.966 961.596 182.697 932.592 166.636C904.385 151.021 878.23 132.978 850.199 117.103C823.822 102.141 793.249 86.485 760.793 83.7439C732.152 81.3635 702.288 87.0232 675.767 96.5912C650.217 105.812 624.944 119.66 609.327 139.651C594.022 159.252 588.178 182.287 587.757 205.315C586.807 254.793 608.469 304.068 597.517 353.616C592.234 377.611 576.535 404.405 550.525 417.044C525.591 429.177 499.636 418.559 479.403 405.365C458.999 392.011 442.133 375.401 422.381 361.461C405.489 349.52 385.088 341.818 363.678 337.445C321.612 328.857 268.985 331.457 234.862 357.549C216.984 371.227 208.909 389.466 206.144 409.214C202.62 434.448 204.81 459.787 203.688 485.036C202.513 511.353 197.651 538.675 179.051 560.792C158.241 585.565 124.866 598.888 89.6243 598.731C72.4729 598.553 55.573 595.658 39.7939 590.196C39.3662 590.051 39.0356 590.595 39.4632 590.74L39.4537 590.74Z" fill="#B4B4B4"/>
<path d="M35.425 594.566C64.8363 604.976 99.0791 607.638 129.636 597.659C159.081 588.051 181.376 567.044 191.901 542.067C202.066 517.959 202.209 491.927 201.842 466.805C201.476 441.683 198.648 414.386 207.435 389.841C222.791 346.902 278.054 331.392 325.786 333.306C350.773 334.283 375.882 339.5 397.818 349.526C419.931 359.632 436.613 375.857 454.441 390.466C471.718 404.63 491.713 420.962 516.208 425.286C542.205 429.886 563.406 415.006 577.612 397.648C611.905 355.713 598.855 302.936 590.814 256.675C586.516 231.797 582.521 206.223 586.885 181.005C591.287 155.461 605.286 132.213 629.163 115.653C654.618 98.0317 686.949 86.9245 719.062 82.5882C734.674 80.482 750.844 79.9423 766.345 82.3399C783.809 85.0601 800.567 91.7289 816.007 98.8454C876.969 126.986 924.697 172.994 989.943 194.969C1054.4 216.698 1129.88 215.861 1194.02 190.988C1209.7 184.883 1224.6 177.384 1238.47 168.619C1238.84 168.387 1238.42 167.886 1238.09 168.124C1178.12 205.908 1100.1 218.092 1028.62 204.463C993.239 197.733 961.459 184.279 931.808 167.092C903.153 150.478 876.536 131.533 847.888 114.878C821.431 99.5248 790.801 83.5252 757.979 80.7165C728.5 78.1989 697.714 84.0491 670.482 94.0296C644.624 103.519 619.439 117.749 604.164 138.358C589.261 158.485 584.165 181.929 584.329 205.19C584.687 255.035 606.977 304.452 597.094 354.527C592.24 379.031 576.917 406.062 550.906 419.516C526.024 432.381 499.73 421.822 479.38 408.409C458.484 394.632 441.37 377.366 421.462 362.701C404.462 350.216 384.049 341.982 362.183 337.28C319.721 328.118 266.111 330.355 231.461 356.735C213.204 370.629 205.017 389.23 202.417 409.356C199.135 434.988 201.74 460.747 201.156 486.409C200.557 512.798 196.65 540.315 178.905 563.037C158.401 589.309 123.918 603.585 87.4315 603.322C69.6197 603.073 52.0971 599.915 35.8222 594.018C35.404 593.873 35.0733 594.417 35.4915 594.562L35.425 594.566Z" fill="#B4B4B4"/>
<path d="M31.3946 598.416C61.5838 609.588 97.0204 612.625 128.525 602.051C157.879 592.206 179.845 570.943 190.079 545.878C200.343 520.666 199.78 493.48 198.878 467.34C198.03 441.632 194.606 413.417 204.059 388.364C220.761 344.144 279.309 329.736 328.24 333.107C353.117 334.817 377.91 340.682 399.269 351.421C421.697 362.703 438.55 380.396 457.099 395.617C474.241 409.74 495.112 426.393 520.204 428.841C546.82 431.468 567.725 413.602 580.607 395.602C612.289 351.363 595.882 297.222 587.214 250.182C582.57 224.92 578.731 198.755 584.171 173.184C589.655 147.401 605.372 125.03 630.273 109.201C656.269 92.6797 688.389 82.376 720.282 78.8598C734.989 77.242 750.075 77.0718 764.593 79.4456C780.948 82.1087 796.554 88.3113 811.061 94.9328C874.322 123.788 922.578 172.156 988.79 196.82C1053.49 220.925 1132.68 220.85 1198.17 196.214C1214.61 190.01 1230.2 182.255 1244.65 173.097C1245.02 172.866 1244.61 172.365 1244.26 172.595C1182.46 211.64 1101.73 222.591 1028.56 207.341C991.853 199.702 959.9 184.724 929.551 166.165C900.309 148.309 872.974 128.315 843.231 111.029C818.094 96.4234 789.266 81.4257 758.305 77.9926C729.357 74.7741 698.882 79.92 671.739 89.1203C645.699 97.9418 619.667 111.511 603.35 131.421C587.327 150.975 581.184 174.431 580.865 197.744C580.171 249.023 603.938 298.75 597.31 350.251C594.037 376.044 580.641 403.117 555.564 419.36C544.449 426.551 531.104 429.955 517.395 427.898C504.301 425.934 492.538 419.945 482.131 413.353C460.267 399.47 442.733 381.542 422.804 365.852C406.044 352.74 385.83 343.187 363.772 337.955C320.398 327.36 264.71 328.764 228.58 355.578C210.104 369.299 201.33 387.973 198.781 408.169C195.435 434.668 198.633 461.29 198.556 487.794C198.483 514.718 195.265 542.938 177.687 566.417C157.213 593.706 121.857 608.524 84.4079 607.937C66.1733 607.538 48.2758 604.113 31.7244 597.856C31.3057 597.703 30.9746 598.238 31.3932 598.392L31.3946 598.416Z" fill="#B4B4B4"/>
</g>
</svg>
