<svg width="819" height="665" viewBox="0 0 819 665" fill="none" xmlns="http://www.w3.org/2000/svg">
<path d="M168.838 498.491C210.16 452.455 265.584 423.704 323.426 403.864C380.963 384.175 440.756 372.469 499.456 356.979C556.239 341.993 612.611 322.667 661.466 289.28C684.901 273.089 706.444 254.316 725.688 233.315C748.069 209.171 767.006 182.129 788.361 157.062C831.289 106.574 881.117 62.3855 936.376 25.8011C943.477 21.1061 950.65 16.5259 957.895 12.0606C958.257 11.8344 957.85 11.2866 957.524 11.5108C901.313 46.2605 849.972 87.8958 805.393 136.735C793.957 149.298 782.931 162.193 772.313 175.422C761.816 188.525 751.874 201.971 741.093 214.805C721.846 237.732 700.634 259.095 676.876 277.321C629.44 313.803 573.478 335.721 516.292 351.766C457.779 368.182 397.939 379.542 339.935 397.803C283.298 415.619 227.636 440.573 184.042 481.894C178.584 487.065 173.363 492.472 168.34 498.065C168.046 498.385 168.545 498.829 168.839 498.509L168.838 498.491Z" fill="#B4B4B4"/>
<path d="M165.098 502.681C187.496 480.054 213.406 460.909 240.467 444.233C267.93 427.356 296.967 413.185 327.168 401.918C357.37 390.621 388.751 382.736 420.207 375.829C452.288 368.787 484.799 363.453 516.606 355.204C571.581 340.91 622.988 315.35 667.568 280.146C690.217 262.181 711.236 242.106 730.998 220.978C753.262 197.135 773.348 171.42 796.148 148.037C840.147 102.926 890.18 64.4365 942.993 30.1958C949.875 25.7336 956.78 21.3445 963.706 17.0285C964.077 16.8017 963.661 16.2456 963.335 16.4698C910.07 49.7013 858.906 86.5244 813.445 129.971C790.21 152.174 769.361 176.256 748.409 200.576C727.745 224.668 705.311 247.185 681.294 267.936C638.608 304.639 588.91 332.286 535.216 349.201C503.448 359.196 470.43 364.552 437.898 371.369C406.319 377.998 374.772 385.178 344.099 395.271C285.327 414.612 228.693 445.28 181.939 485.98C175.956 491.182 170.176 496.601 164.6 502.237C164.296 502.549 164.795 502.993 165.098 502.681Z" fill="#B4B4B4"/>
<path d="M161.358 506.875C185.94 484.363 213.68 464.916 241.611 446.761C268.467 429.302 296.7 413.281 326.445 401.18C355.562 389.33 386.321 381.802 417.104 375.755C449.067 369.444 481.641 366.131 513.414 358.849C542.985 352.069 571.211 339.636 597.623 324.845C620.661 311.909 642.081 296.461 662.212 279.4C684.333 260.635 705.41 240.485 725.846 219.907C748.97 196.568 770.535 171.731 794.669 149.351C841.492 105.996 894.5 69.8692 948.095 35.5653C955.209 30.9886 962.346 26.467 969.508 22.0005C969.869 21.7654 969.463 21.2177 969.137 21.4418C914.759 55.6481 860.609 91.0016 811.89 133.065C787.73 153.921 765.947 176.834 744.092 200.037C722.548 222.91 699.933 244.854 676.586 265.885C634.55 303.733 586.152 336.54 531.605 353.307C499.561 363.158 465.818 366.172 432.984 372.088C402.482 377.583 372.017 384.183 342.688 394.359C313.489 404.491 285.768 418.867 259.343 434.828C230.938 451.909 203.737 470.916 177.931 491.716C172.106 496.451 166.415 501.359 160.86 506.44C160.537 506.727 161.045 507.17 161.359 506.884L161.358 506.875Z" fill="#B4B4B4"/>
<path d="M157.555 511.096C183.569 489.58 211.841 470.531 239.538 451.265C266.137 432.768 293.734 414.401 323.477 401.175C351.977 388.539 382.593 381.154 413.175 375.815C428.612 373.071 444.135 370.829 459.743 369.087C476.202 367.242 492.716 365.716 508.994 362.605C539.009 356.861 566.906 343.671 592.877 327.897C614.968 314.472 635.19 298.378 654.362 281.096C676.835 260.847 698.559 239.696 720.377 218.789C744.903 195.306 768.395 170.767 794.614 149.106C843.893 108.384 899.03 75.1248 952.982 41.1216C960.445 36.4235 967.888 31.7177 975.309 27.0041C975.68 26.7774 975.308 26.2187 974.946 26.4449C920.102 61.2227 863.89 94.5623 812.333 134.166C786.696 153.857 763.5 175.808 740.478 198.427C717.455 221.046 693.745 243.357 670.164 265.58C650.697 283.932 630.657 301.782 608.577 316.939C584.156 333.739 556.73 349.053 528.168 357.381C496.199 366.683 462.325 367.42 429.589 372.42C399.649 376.981 369.712 383.131 341.165 393.413C311.935 403.94 285.013 420.082 259.188 437.151C231.205 455.648 203.701 475.17 176.81 495.246C170.16 500.192 163.609 505.274 157.22 510.562C156.897 510.83 157.268 511.389 157.592 511.12L157.555 511.096Z" fill="#B4B4B4"/>
<path d="M153.816 515.312C167.447 505.16 181.584 495.729 195.577 486.119C210.1 476.113 224.285 465.653 238.413 455.151C264.534 435.789 290.985 415.355 320.407 401.211C348.074 387.9 378.484 380.661 408.668 375.853C423.703 373.457 438.771 371.64 453.95 370.503C470.586 369.246 487.298 368.681 503.832 366.279C560.946 357.941 609.003 319.86 649.207 280.735C671.179 259.39 692.762 237.801 715.325 217.109C740.548 193.961 765.397 170.353 792.976 149.978C818.57 131.066 845.76 114.463 872.98 98.045C901.439 80.8416 930.084 63.922 958.352 46.3547C965.957 41.6246 973.549 36.8298 981.128 31.9703C981.19 31.9161 981.229 31.8416 981.24 31.7604C981.251 31.6793 981.231 31.5971 981.186 31.529C981.141 31.4608 981.072 31.4114 980.993 31.3898C980.915 31.3682 980.83 31.376 980.757 31.4116C951.681 49.9895 922.102 67.7397 892.523 85.4899C865.212 101.868 837.76 118.112 811.442 136.066C784.444 154.461 760.037 175.367 735.917 197.38C711.797 219.393 687.83 241.567 664.626 264.598C645.583 283.497 626.471 302.445 605.024 318.654C593.804 327.16 582.012 334.883 569.731 341.768C554.955 350.031 539.637 357.567 523.191 361.803C491.224 370.043 457.441 368.659 424.837 372.847C395.212 376.676 365.489 382.528 337.5 393.198C308.449 404.187 282.652 422.049 257.672 440.149C244.026 450.034 230.574 460.193 216.966 470.128C202.784 480.481 188.193 490.251 173.758 500.234C166.892 504.969 160.109 509.771 153.435 514.745C153.093 515.005 153.482 515.563 153.807 515.303L153.816 515.312Z" fill="#B4B4B4"/>
<path d="M150.076 519.5C163.963 510.217 178.183 501.442 192.088 492.176C206.914 482.304 221.14 471.645 235.141 460.633C260.386 440.795 285.08 418.82 313.34 403.28C340.364 388.426 371.288 381.264 401.545 376.631C416.267 374.378 431.134 372.626 446.005 371.578C462.779 370.385 479.63 370.838 496.398 369.556C512.968 368.249 529.437 365.02 544.555 357.898C558.316 351.367 571.499 343.684 583.963 334.929C605.899 319.611 624.944 300.9 643.351 281.511C664.788 258.93 686.276 236.632 709.551 215.917C735.595 192.757 761.964 169.81 791.148 150.637C818.07 132.942 846.649 117.972 874.868 102.479C904.88 86.0333 934.752 69.3373 963.92 51.4323C971.655 46.6888 979.334 41.8621 986.958 36.9524C987.32 36.7262 986.913 36.1696 986.587 36.4026C956.899 55.5069 926.372 73.2226 895.516 90.3416C867.296 105.969 838.657 120.836 810.999 137.386C781.961 154.765 755.691 175.1 730.054 197.112C705.216 218.435 681.251 240.501 658.704 264.244C639.858 284.078 621.418 304.442 600.17 321.79C588.894 330.996 576.908 339.297 564.324 346.615C548.781 355.645 532.829 363.173 515.05 366.424C498.368 369.504 481.361 369.604 464.456 370.056C448.94 370.462 433.521 371.774 418.107 373.629C388.619 377.209 358.833 382.752 331.236 394.015C302.713 405.644 278.329 425.414 254.419 444.416C240.767 455.283 227.119 466.229 213.091 476.618C199.063 487.006 184.476 496.374 169.846 505.762C163.108 510.088 156.37 514.432 149.702 518.888C149.666 518.912 149.635 518.943 149.611 518.98C149.587 519.016 149.57 519.057 149.562 519.099C149.553 519.142 149.554 519.186 149.562 519.229C149.571 519.271 149.588 519.312 149.612 519.348C149.637 519.384 149.668 519.415 149.704 519.439C149.741 519.463 149.781 519.48 149.824 519.488C149.867 519.496 149.911 519.496 149.953 519.487C149.996 519.479 150.037 519.462 150.073 519.437L150.076 519.5Z" fill="#B4B4B4"/>
<path d="M146.339 523.696C160.773 515.069 175.384 506.736 189.512 497.627C204.702 487.709 219.277 476.881 233.157 465.201C257.896 444.643 281.174 421.027 308.762 404.204C335.402 387.954 366.873 380.225 397.491 375.973C411.981 373.979 426.569 372.789 441.19 372.409C458.123 371.966 475.158 373.292 492.081 372.67C509.003 372.048 525.749 369.303 541.152 362.164C555.368 355.63 568.88 346.967 581.369 337.596C603.113 321.272 621.329 301.198 639.124 280.782C660.051 256.811 681.409 233.807 705.5 212.991C731.767 190.282 758.987 168.492 789.065 151.034C817.561 134.471 847.806 121.127 877.325 106.504C908.675 90.9902 939.558 74.6373 969.463 56.5202C977.281 51.7718 985.033 46.9082 992.718 41.9295C992.78 41.8753 992.819 41.8008 992.83 41.7197C992.841 41.6386 992.821 41.5563 992.776 41.4882C992.731 41.4201 992.662 41.3706 992.583 41.3491C992.505 41.3275 992.421 41.3352 992.347 41.3708C962.045 60.9747 930.545 78.6932 898.42 95.1625C869.328 110.073 839.49 123.491 810.479 138.558C795.47 146.274 780.896 154.808 766.821 164.12C752.213 173.891 738.562 184.784 724.966 195.844C699.599 216.519 675.666 238.512 653.917 262.941C635.695 283.372 618.465 304.764 597.997 323.094C573.62 344.97 543.706 365.417 510.751 370.331C494.035 372.825 477.099 372.135 460.272 371.779C444.814 371.414 429.348 371.951 413.952 373.387C384.206 376.206 354.061 382.01 326.622 394.165C298.251 406.723 275.042 428.281 251.821 448.386C238.374 460.035 224.815 471.584 210.553 482.254C196.454 492.798 181.487 502.08 166.36 511.06C159.561 515.104 152.74 519.086 145.95 523.139C145.588 523.356 145.95 523.915 146.321 523.697L146.339 523.696Z" fill="#B4B4B4"/>
<path d="M142.602 527.884C157.566 519.941 172.559 512.031 186.945 503.059C202.027 493.523 216.33 482.808 229.719 471.014C254.55 449.415 276.722 423.668 304.145 405.212C329.687 388.035 360.957 380.076 391.123 376.02C405.859 374.053 420.706 373.031 435.573 372.957C452.251 372.885 468.823 374.845 485.481 375.212C502.14 375.578 519.09 374.053 534.742 367.81C549.913 361.765 564.116 352.08 576.924 342.048C598.954 324.797 616.632 303.281 633.974 281.526C654.08 256.318 675.08 232.53 699.699 211.577C726.48 188.821 754.843 167.651 786.156 151.63C816.92 135.856 849.561 124.132 881.092 110.035C913.005 95.7646 944.298 80.0218 974.32 62.0763C982.482 57.195 990.547 52.1526 998.517 46.9492C998.578 46.895 998.618 46.8205 998.629 46.7394C998.639 46.6583 998.62 46.576 998.575 46.5079C998.53 46.4398 998.461 46.3903 998.382 46.3688C998.303 46.3472 998.219 46.3549 998.146 46.3905C966.734 66.6976 933.953 84.8028 900.038 100.576C869.487 114.955 837.941 126.928 807.18 140.757C791.697 147.637 776.665 155.488 762.172 164.264C747.387 173.304 733.504 183.72 719.849 194.381C693.596 214.858 669.501 237.298 648.179 262.934C630.263 284.499 613.816 307.371 593.5 326.79C568.941 350.31 538.599 371.237 503.91 374.083C487.13 375.473 470.338 373.722 453.593 372.781C438.435 371.968 423.239 372.209 408.114 373.501C378.473 375.975 348.224 381.839 321.24 394.762C293.561 408.02 271.899 431.016 249.85 451.784C236.663 464.213 223.173 476.355 208.723 487.313C194.504 498.096 179.176 507.31 163.553 515.899C156.486 519.78 149.349 523.549 142.222 527.326C141.85 527.526 142.221 528.085 142.593 527.885L142.602 527.884Z" fill="#B4B4B4"/>
<path d="M138.784 532.112C153.81 525.076 168.742 517.821 182.986 509.313C198.471 499.968 213.001 489.125 226.365 476.938C251.042 454.67 271.712 427.653 298.209 407.376C322.48 388.755 353.764 380.269 383.588 376.161C398.438 374.124 413.418 373.168 428.407 373.301C445.373 373.426 462.038 375.916 478.896 377.262C495.475 378.579 512.34 378.344 528.293 373.155C544.561 367.858 559.419 357.466 572.628 346.795C595.105 328.634 612.198 305.662 629.091 282.46C648.488 255.802 669.124 230.965 694.446 209.667C722.536 186.077 752.86 165.008 786.514 150.28C818.324 136.381 851.839 126.82 884.113 113.832C917.009 100.771 948.872 85.2418 979.428 67.3772C987.852 62.4093 996.148 57.2346 1004.32 51.8531C1004.38 51.7989 1004.42 51.7244 1004.43 51.6433C1004.44 51.5622 1004.42 51.4799 1004.37 51.4118C1004.33 51.3437 1004.26 51.2942 1004.18 51.2727C1004.1 51.2511 1004.02 51.2588 1003.94 51.2944C972.212 71.9936 938.755 89.9201 903.945 104.875C872.442 118.524 839.847 128.888 807.762 140.955C791.372 147.001 775.432 154.202 760.06 162.503C744.412 171.102 729.756 181.437 715.486 192.125C688.59 212.273 664.41 234.95 643.83 261.534C626.072 284.438 610.47 309.109 590.127 329.922C578.774 341.523 566.109 351.762 552.388 360.434C535.838 370.897 518.521 376.728 498.852 377.25C481.092 377.733 463.531 374.732 445.885 373.343C431.398 372.294 416.853 372.348 402.374 373.503C373.401 375.661 343.747 381.456 317.612 394.562C289.795 408.506 269.322 433.236 247.926 455.118C235.201 468.136 221.987 480.717 207.583 491.851C193.461 502.771 177.996 511.922 162.097 520.062C154.341 524.081 146.478 527.785 138.569 531.482C138.187 531.656 138.402 532.295 138.784 532.112Z" fill="#B4B4B4"/>
<path d="M135.045 536.3C150.801 529.855 166.356 522.885 181.079 514.322C196.661 505.179 211.139 494.272 224.228 481.819C248.777 458.736 268.047 430.193 293.835 408.476C317.663 388.355 349.893 379.564 380.301 375.672C395.302 373.76 410.431 373.046 425.546 373.537C442.41 374.078 458.878 377.169 475.582 379.246C492.07 381.301 508.974 381.903 525.08 377.178C541.886 372.243 556.901 361.476 570.141 350.276C592.436 331.421 608.554 307.487 624.518 283.34C633.217 270.171 642.111 257.125 652.096 244.891C663.605 230.903 676.445 218.066 690.436 206.56C718.963 182.962 750.276 162.631 785.032 149.668C818.459 137.194 853.503 129.829 887.133 117.771C921.164 105.676 954.007 90.4712 985.248 72.3504C993.675 67.4299 1001.96 62.2707 1010.1 56.8728C1010.16 56.8186 1010.2 56.7441 1010.21 56.663C1010.23 56.5818 1010.21 56.4996 1010.16 56.4315C1010.12 56.3633 1010.05 56.3139 1009.97 56.2923C1009.89 56.2708 1009.81 56.2785 1009.73 56.3141C977.664 77.3716 943.527 95.0954 907.854 109.209C874.878 122.398 840.751 131.102 806.904 141.575C789.774 146.713 773.086 153.224 757.003 161.045C741.013 168.995 726.026 179.001 711.555 189.451C683.65 209.595 659.158 232.897 639.035 260.882C622.034 284.528 607.747 310.203 588.135 331.902C576.886 344.331 564.07 355.246 550.009 364.373C533.817 375.152 514.687 380.657 495.243 380.135C477.497 379.796 460.109 375.92 442.514 374.01C428.284 372.566 413.96 372.296 399.687 373.203C370.082 374.915 339.499 380.719 313.117 394.785C285.549 409.491 266.499 435.683 245.968 458.47C233.52 472.266 220.367 485.434 205.734 496.928C190.896 508.595 174.398 517.949 157.33 525.933C149.926 529.396 142.4 532.599 134.84 535.696C134.439 535.862 134.654 536.492 135.046 536.327L135.045 536.3Z" fill="#B4B4B4"/>
<path d="M131.316 540.497C147.531 534.748 163.474 528.149 178.499 519.72C194.576 510.603 209.367 499.386 222.483 486.365C246.385 462.9 264.181 434.014 288.285 410.806C310.826 389.116 343.23 379.637 373.513 375.601C388.827 373.575 404.288 372.899 419.72 373.579C436.479 374.306 452.674 377.609 469.141 380.539C485.942 383.521 503.272 385.464 520.076 381.555C537.778 377.443 553.125 366.55 566.647 354.825C589.241 335.283 604.655 310.292 619.802 284.978C628.086 271.111 636.574 257.383 646.391 244.552C657.303 230.351 669.752 217.4 683.51 205.935C712.334 181.784 744.946 161.377 780.806 149.761C816.019 138.362 852.935 133.424 888.252 122.303C923.716 111.229 957.869 96.3309 990.111 77.871C998.887 72.8113 1007.49 67.4702 1015.92 61.8475C1015.98 61.7977 1016.03 61.7233 1016.05 61.6398C1016.06 61.5564 1016.04 61.4702 1016 61.3993C1015.95 61.3284 1015.88 61.2782 1015.8 61.2592C1015.71 61.2402 1015.63 61.2538 1015.55 61.2972C982.83 82.9285 947.657 100.603 910.77 113.95C893.857 120.149 876.627 125.448 859.153 129.824C840.956 134.34 822.545 137.922 804.364 142.41C785.733 146.919 767.567 153.17 750.106 161.079C734.453 168.232 719.692 178.136 705.673 188.051C677.514 207.986 653.443 231.603 634.311 260.379C617.619 285.515 604.329 312.989 584.54 335.948C573.255 349.007 560.159 360.383 545.651 369.731C528.211 381.004 508.532 384.428 488.063 382.541C470.664 380.933 453.783 376.268 436.429 374.202C422.138 372.579 407.734 372.197 393.377 373.059C363.671 374.715 332.74 380.824 306.837 396.077C280.078 411.816 262.657 439.467 243.129 462.785C231.241 476.995 218.406 490.403 203.883 501.962C188.721 514.041 171.611 523.465 153.798 531.056C146.325 534.255 138.726 537.14 131.1 539.849C131.023 539.883 130.961 539.945 130.927 540.022C130.893 540.099 130.889 540.186 130.916 540.267C130.943 540.347 130.999 540.414 131.073 540.455C131.147 540.496 131.233 540.507 131.315 540.488L131.316 540.497Z" fill="#B4B4B4"/>
<path d="M127.577 544.684C162.903 534.019 194.97 517.32 220.93 490.702C244.522 466.515 260.886 436.48 284.109 412.073C305.982 389.03 338.923 379.1 369.605 375.165C385.092 373.187 400.731 372.68 416.313 373.651C433.285 374.65 449.474 378.471 465.992 382.112C482.69 385.788 499.99 388.616 516.999 385.312C535.075 381.803 550.355 370.994 563.906 358.99C587.23 338.335 601.972 311.598 616.571 284.54C624.238 270.342 632.188 256.262 641.677 243.155C652.403 228.339 664.947 214.929 679.015 203.24C708.347 178.747 742.037 158.635 779.103 148.717C816.018 138.834 854.417 136.381 891.313 126.16C927.598 116.201 962.504 101.769 995.229 83.1973C1004.27 78.051 1013.1 72.5804 1021.73 66.7852C1021.8 66.7311 1021.84 66.6565 1021.85 66.5754C1021.86 66.4943 1021.84 66.4121 1021.79 66.3439C1021.75 66.2758 1021.68 66.2264 1021.6 66.2048C1021.52 66.1832 1021.44 66.1909 1021.36 66.2266C987.869 88.5429 951.513 106.231 913.282 118.811C896.161 124.514 878.706 129.16 861.015 132.723C841.603 136.587 822.002 139.05 802.588 142.744C783.528 146.372 764.654 151.373 746.793 159.065C730.734 165.983 715.428 175.722 701.088 185.647C672.604 205.351 648.679 229.201 630.471 258.816C614.15 285.278 602.081 314.404 582.432 338.711C571.318 352.466 558.098 364.376 543.264 374.001C525.789 385.285 505.681 387.778 485.398 385.087C467.772 382.652 450.798 377.127 433.285 374.65C418.762 372.645 404.082 372 389.439 372.724C359.733 374.085 328.599 380.224 303.004 396.021C275.987 412.695 259.815 442.192 240.791 466.668C229.319 481.425 216.659 495.252 202.068 507.011C186.965 519.194 169.731 528.465 151.731 535.62C143.746 538.759 135.607 541.551 127.387 544.035C126.975 544.157 127.19 544.787 127.602 544.665L127.577 544.684Z" fill="#B4B4B4"/>
<path d="M123.833 548.872C160.095 539.724 192.993 523.04 218.834 495.599C242.573 470.394 257.575 438.742 280.355 412.844C301.509 388.789 334.722 378.459 365.553 374.65C381.485 372.671 397.578 372.338 413.578 373.657C430.133 375.02 445.872 379.09 461.878 383.305C479.1 387.861 497.109 391.817 514.991 388.802C533.156 385.743 548.298 375.022 561.69 362.894C585.61 341.133 599.521 312.829 613.431 284.203C620.402 269.85 627.72 255.636 636.646 242.374C647.366 226.485 660.31 212.216 675.083 200.004C704.763 175.357 739.37 155.656 777.267 147.466C796.952 143.212 817.048 141.595 837.05 139.447C856.329 137.439 875.453 134.601 894.319 130.083C931.675 121.14 967.6 107.028 1001.05 88.1531C1010.09 83.0427 1018.91 77.5849 1027.51 71.7796C1027.87 71.5356 1027.46 70.979 1027.15 71.2205C993.289 93.9375 956.229 111.469 917.192 123.235C898.894 128.808 880.208 133.022 861.289 135.84C841.412 138.775 821.368 140.06 801.43 142.712C781.785 145.33 761.643 149.236 743.347 156.988C727.125 163.844 711.698 172.894 697.138 182.725C682.389 192.682 668.284 203.896 656.038 216.85C644.262 229.304 634.414 243.45 626.002 258.342C610.536 285.692 599.869 315.754 580.745 340.968C569.749 355.475 556.11 368.572 540.604 378.261C522.516 389.598 501.707 390.909 481.133 387.056C463.549 383.789 446.666 377.545 428.967 374.766C414.455 372.537 399.761 371.728 385.092 372.35C355.223 373.516 323.686 379.785 298.353 396.415C271.698 413.934 256.941 444.75 238.773 469.98C227.595 485.497 214.987 499.918 200.15 512.058C184.706 524.662 166.849 533.978 148.149 540.754C140.093 543.649 131.896 546.137 123.589 548.208C123.167 548.313 123.382 548.943 123.804 548.838L123.833 548.872Z" fill="#B4B4B4"/>
<path d="M120.101 553.063C157.51 545.383 191.469 528.513 217.28 499.949C240.768 473.947 254.389 441.25 276.24 414.111C296.534 388.91 329.967 378.077 361.018 374.21C377.346 372.181 393.849 371.968 410.224 373.578C426.606 375.183 442.054 379.466 457.752 384.217C474.889 389.473 492.772 394.49 510.889 392.46C529.512 390.366 544.834 380.134 558.418 367.772C582.821 345.564 596.197 316.496 609.069 286.744C615.676 271.501 622.555 256.349 631.341 242.211C641.573 225.772 654.326 211.044 669.133 198.566C683.868 186.224 699.861 175.468 716.85 166.477C735.081 156.526 754.833 149.659 775.306 146.155C795.583 142.741 816.136 142.222 836.65 141.196C856.398 140.205 876.007 138.339 895.409 134.459C934.409 126.627 971.941 112.735 1006.64 93.2865C1015.76 88.1714 1024.65 82.6737 1033.31 76.7935C1033.37 76.7393 1033.41 76.6648 1033.42 76.5836C1033.43 76.5025 1033.41 76.4203 1033.37 76.3522C1033.32 76.284 1033.26 76.2346 1033.18 76.213C1033.1 76.1915 1033.01 76.1992 1032.94 76.2348C998.191 99.6835 959.803 117.225 919.331 128.148C900.34 133.333 880.944 136.903 861.352 138.821C840.723 140.791 819.977 140.893 799.332 142.578C779.219 144.223 758.158 147.209 739.355 154.973C722.475 162.05 706.342 170.79 691.194 181.063C676.075 191.265 661.611 202.911 649.473 216.662C638.112 229.493 628.81 243.973 621.035 259.222C606.403 287.88 596.913 319.311 577.622 345.49C566.578 360.41 552.306 374.748 535.942 383.799C517.606 393.937 497.07 393.661 477.182 388.983C459.989 384.944 443.536 378.247 426.173 375.109C411.548 372.538 396.696 371.485 381.855 371.97C351.397 372.839 318.907 379.288 293.572 397.114C267.577 415.416 254.342 447.064 237.258 472.829C226.175 489.536 213.314 504.989 197.743 517.699C182.171 530.408 163.836 539.635 144.715 545.918C136.58 548.565 128.299 550.743 119.913 552.44C119.49 552.527 119.705 553.158 120.128 553.071L120.101 553.063Z" fill="#B4B4B4"/>
<path d="M116.285 557.271C154.266 551.156 189.049 534.497 214.716 505.432C238.423 478.605 250.759 444.671 271.719 416.03C291.38 389.143 325.251 377.544 357.132 373.665C373.65 371.662 390.346 371.595 406.88 373.465C423.5 375.333 439.042 380.003 454.805 385.42C471.853 391.279 489.645 397.194 507.921 395.914C527.203 394.567 542.951 384.284 556.72 371.429C581.629 348.237 594.112 317.775 606.103 286.681C612.15 271.015 618.514 255.437 626.962 240.846C636.727 223.993 649.279 208.916 664.083 196.258C679.068 183.581 695.467 172.677 712.954 163.763C721.403 159.349 730.122 155.473 739.059 152.158C749.889 148.193 761.586 146.115 772.99 144.679C794.132 142.019 815.449 142.678 836.698 142.779C857.631 142.836 878.421 141.803 899.077 138.278C938.331 131.565 976.183 118.319 1011.06 99.0888C1020.7 93.7705 1030.08 88.0068 1039.18 81.7977C1039.53 81.5542 1039.13 80.997 1038.81 81.239C1003.44 105.229 964.057 122.669 922.524 132.727C902.831 137.557 882.725 140.513 862.475 141.556C841.327 142.583 820.164 141.486 799.01 142.085C778.514 142.664 756.896 144.655 737.548 151.96C720.353 158.568 703.927 167.027 688.56 177.188C672.959 187.373 658.086 199.202 645.808 213.301C634.257 226.554 625.024 241.61 617.561 257.483C603.852 286.65 595.861 318.539 577.833 345.573C567.083 361.708 552.6 377.049 535.705 386.783C517.151 397.469 496.155 396.791 476.066 391.428C458.669 386.794 442.124 379.272 424.47 375.58C409.793 372.585 394.832 371.214 379.856 371.493C349.132 371.923 316.132 378.205 290.693 396.394C264.122 415.39 252.12 448.609 235.621 475.527C225.379 492.266 213.299 507.781 198.395 520.63C182.608 534.245 163.889 543.923 144.041 550.14C134.944 552.961 125.654 555.121 116.246 556.604C115.822 556.673 115.86 557.34 116.285 557.271Z" fill="#B4B4B4"/>
<path d="M112.536 561.46C151.815 556.796 187.948 539.72 213.656 509.198C237.043 481.461 247.883 446.524 268.111 416.793C287.243 388.633 322.019 376.633 354.465 372.963C371.244 371.062 388.193 371.227 404.932 373.453C421.914 375.71 437.591 381.025 453.553 387.09C470.073 393.409 487.401 399.797 505.449 399.19C525.172 398.522 541.207 388.259 555.15 375.019C580.465 350.982 592.09 319.275 603.069 287.035C608.808 270.218 614.918 253.468 623.522 237.886C633.076 220.632 645.687 205.258 660.741 192.516C676.434 179.346 693.738 168.225 712.237 159.422C720.508 155.393 729.037 151.918 737.769 149.02C748.728 145.44 760.517 143.866 771.978 142.953C793.727 141.213 815.49 143.114 837.209 144.241C858.696 145.372 879.994 145.256 901.308 142.318C941.812 136.693 980.949 123.722 1016.79 104.041C1026.44 98.7228 1035.8 92.966 1044.87 86.7709C1044.94 86.7217 1044.99 86.6455 1045.01 86.5592C1045.02 86.4728 1045 86.3834 1044.96 86.3105C1044.91 86.2376 1044.83 86.1872 1044.74 86.1704C1044.66 86.1537 1044.57 86.1719 1044.5 86.2211C1008.34 110.897 967.725 128.311 924.923 137.498C905.122 141.812 884.932 144.095 864.668 144.312C842.685 144.468 820.806 142.128 798.838 141.622C777.604 141.146 755.243 142.181 735.014 149.224C717.749 155.348 701.248 163.443 685.838 173.347C669.859 183.491 654.565 195.452 642.137 209.89C630.311 223.641 621.137 239.39 613.975 256.004C600.771 286.65 594.094 320.114 576.03 348.543C565.398 365.331 550.367 381.82 532.648 391.217C513.984 401.222 493.23 399.495 473.649 393.497C456.511 388.24 440.278 380.253 422.8 376.061C407.782 372.575 392.404 370.879 376.987 371.008C346.048 371.102 312.594 377.411 287.211 396.096C260.46 415.834 249.74 450.237 234.005 478.174C224.291 495.4 212.623 511.4 197.82 524.6C181.447 539.203 161.655 549.318 140.596 555.267C131.411 557.846 122.036 559.693 112.559 560.789C112.132 560.814 112.172 561.508 112.598 561.456L112.536 561.46Z" fill="#B4B4B4"/>
<path d="M108.798 565.687C149.347 562.449 186.886 544.988 212.561 512.968C235.537 484.309 244.974 448.391 264.377 417.672C282.889 388.37 318.193 375.92 351.19 372.361C368.354 370.51 385.686 370.885 402.754 373.475C419.924 376.052 435.652 381.934 451.621 388.588C467.965 395.399 485.069 402.389 503.056 402.429C523.132 402.463 539.502 392.287 553.553 378.756C579.131 354.025 589.96 321.499 599.91 288.292C605.15 270.86 610.649 253.45 618.965 237.206C628.002 219.416 640.399 203.544 655.472 190.467C671.541 176.751 689.431 165.324 708.631 156.51C717.269 152.445 726.18 148.992 735.301 146.175C746.765 142.683 759.129 141.495 771.064 141.063C793.689 140.254 816.14 143.409 838.584 145.654C859.843 147.79 881.059 148.553 902.348 146.429C944.162 142.094 984.711 129.555 1021.67 109.528C1031.66 104.133 1041.36 98.2093 1050.72 91.7818C1051.07 91.5383 1050.67 90.9812 1050.34 91.2231C1013.07 116.787 970.823 134.215 926.364 142.371C905.626 146.237 884.52 147.757 863.442 146.903C841.511 145.949 819.801 142.51 797.944 140.99C776.258 139.495 753.417 139.647 732.536 146.362C714.504 152.325 697.288 160.517 681.286 170.748C664.856 180.963 649.383 193.22 637.092 208.176C625.46 222.336 616.683 238.49 610.056 255.537C597.624 287.496 592.285 322.346 574.174 351.947C563.818 368.879 548.913 385.709 531.141 394.958C512.08 404.897 490.928 402.291 471.275 395.52C454.372 389.696 438.42 381.167 421.087 376.556C405.814 372.601 390.104 370.58 374.326 370.54C342.778 370.285 308.318 376.634 282.855 396.423C256.086 417.223 246.767 453.17 231.623 482.072C222.348 499.781 210.838 516.201 195.952 529.656C179.455 544.579 159.268 554.663 137.802 560.216C128.297 562.651 118.596 564.252 108.812 564.999C108.734 565.016 108.664 565.061 108.616 565.125C108.567 565.189 108.543 565.268 108.548 565.349C108.553 565.429 108.586 565.505 108.641 565.563C108.696 565.621 108.771 565.657 108.851 565.666L108.798 565.687Z" fill="#B4B4B4"/>
<path d="M105.063 569.846C146.282 568.166 184.901 550.697 210.51 517.86C233.776 488.041 241.78 450.654 260.689 418.49C278.687 387.861 314.893 374.967 348.59 371.616C366.137 369.867 383.841 370.506 401.217 373.517C418.511 376.533 434.171 382.946 450.092 390.147C466.756 397.707 484.39 405.532 503.056 405.577C523.105 405.622 539.375 395.104 553.127 381.34C579.199 355.26 588.69 320.91 597.755 286.299C602.52 268.065 607.76 249.875 616.207 232.954C625.334 214.627 638.154 198.387 653.863 185.256C670.446 171.516 688.946 160.271 708.778 151.875C717.387 148.106 726.273 145.005 735.358 142.6C747.011 139.605 759.536 139.041 771.531 139.177C794.753 139.449 817.638 143.909 840.563 147.233C861.85 150.313 883.15 151.91 904.644 150.399C947.198 147.42 989.167 134.933 1026.77 114.872C1037.02 109.39 1046.95 103.33 1056.51 96.7191C1056.57 96.665 1056.61 96.5904 1056.62 96.5093C1056.64 96.4282 1056.62 96.3459 1056.57 96.2778C1056.53 96.2097 1056.46 96.1602 1056.38 96.1387C1056.3 96.1171 1056.22 96.1248 1056.14 96.1604C1018.04 122.448 974.504 139.825 928.77 147.005C907.448 150.395 885.796 151.207 864.28 149.423C841.811 147.518 819.682 142.836 797.282 140.276C776.051 137.854 753.351 136.873 732.595 142.679C714.071 147.856 696.321 156.086 679.883 166.007C663.237 176.047 647.358 188.221 634.823 203.137C622.509 217.836 613.534 234.894 607.024 252.89C595.126 285.906 591.269 321.831 573.941 352.788C563.761 370.907 548.374 389.13 529.582 398.634C510.019 408.53 488.616 404.984 468.945 397.447C452.286 391.055 436.593 382.074 419.423 377.024C404.079 372.642 388.224 370.3 372.268 370.059C340.265 369.349 305.031 375.599 279.388 395.96C252.288 417.521 244.23 454.743 229.832 484.655C220.869 503.292 209.403 520.646 194.041 534.655C177.372 549.856 156.865 559.941 134.966 565.117C125.135 567.405 115.108 568.75 105.021 569.134C104.943 569.151 104.874 569.196 104.825 569.26C104.777 569.324 104.753 569.404 104.757 569.484C104.762 569.564 104.795 569.64 104.85 569.698C104.906 569.756 104.98 569.793 105.06 569.801L105.063 569.846Z" fill="#B4B4B4"/>
<path d="M101.323 574.035C143.754 573.857 183.821 555.964 209.376 521.586C232.565 490.425 238.847 451.512 257.643 418.159C275.304 386.791 312.516 373.856 346.51 370.863C363.924 369.316 381.469 370.175 398.649 373.417C416.573 376.843 432.559 383.951 448.87 391.879C465.18 399.808 482.31 408.019 500.72 408.731C521.357 409.518 538.146 398.881 552.117 384.577C578.525 357.532 587.013 322.026 595.087 286.33C599.352 267.473 604.071 248.608 612.301 231.031C621.13 212.13 633.994 195.394 649.987 182.001C666.695 168.173 685.411 156.969 705.492 148.774C714.364 145.04 723.519 142.018 732.87 139.737C744.545 136.955 756.965 136.728 768.91 137.242C792.237 138.24 815.021 143.589 837.858 148.007C860.262 152.352 882.725 155.23 905.58 154.417C949.66 152.813 993.432 140.633 1032.36 119.994C1042.7 114.508 1052.7 108.413 1062.32 101.74C1062.67 101.497 1062.27 100.94 1061.95 101.181C1022.68 128.388 977.434 145.734 930.043 151.752C907.817 154.625 885.312 154.588 863.095 151.644C840.385 148.495 818.153 142.81 795.521 139.317C774.376 136.078 751.692 134.293 730.737 139.584C711.445 144.448 692.932 152.758 675.857 162.93C658.781 173.102 642.749 185.41 630.305 200.812C618.511 215.409 610.023 232.225 604.06 249.966C592.324 284.856 590.112 322.837 572.491 355.667C562.395 374.468 546.45 393.848 526.733 402.942C507.26 411.931 486.27 407.505 467.275 399.606C450.575 392.664 434.945 383.063 417.681 377.484C402.421 372.73 386.584 370.082 370.608 369.612C337.994 368.375 301.726 374.489 275.802 395.705C248.461 418.047 241.668 456.454 228.047 487.312C219.517 506.647 208.296 524.666 192.784 539.183C175.706 555.175 154.276 565.51 131.443 570.276C121.517 572.316 111.41 573.352 101.276 573.369C100.849 573.393 100.886 574.043 101.314 574.036L101.323 574.035Z" fill="#B4B4B4"/>
<path d="M97.585 578.231C141.156 579.558 182.779 561.254 208.207 525.286C230.954 493.114 235.847 453.345 253.906 418.981C271.073 386.329 309.17 372.942 343.907 370.156C361.71 368.715 379.627 369.84 397.109 373.496C414.792 377.23 430.459 384.669 446.433 392.957C462.888 401.537 480.284 410.635 499.159 411.828C520.103 413.151 537.209 402.424 551.23 387.751C578.16 359.542 585.528 322.593 592.628 285.623C596.352 266.226 600.6 246.782 608.629 228.654C617.397 208.8 630.723 191.293 647.525 177.555C664.695 163.654 683.956 152.557 704.594 144.674C714.132 140.86 724.013 137.969 734.102 136.041C746.108 133.901 758.832 134.129 770.935 135.214C794.369 137.303 817.045 143.873 839.836 149.347C862.239 154.736 884.761 158.485 907.858 158.301C952.518 157.94 997.108 146.337 1036.68 125.75C1047.56 120.075 1058.05 113.704 1068.11 106.679C1068.47 106.435 1068.06 105.878 1067.75 106.12C1027.84 133.891 981.55 151.122 933.193 156.21C910.4 158.651 887.378 157.9 864.792 153.981C841.761 149.905 819.383 142.943 796.465 138.351C774.982 134.051 751.778 131.457 730.147 136.172C710.385 140.474 691.352 148.591 673.87 158.679C656.389 168.768 639.398 181.479 626.639 197.453C614.563 212.584 606.118 230.138 600.545 248.606C589.537 284.82 588.806 324.17 571.287 358.297C561.445 377.494 545.431 397.521 525.34 406.475C505.59 415.303 484.496 410.159 465.655 401.698C448.914 394.196 433.392 383.991 415.967 377.939C400.469 372.696 384.299 369.706 367.952 369.06C335.076 367.471 298.325 373.551 272.346 395.208C259.318 406.065 251.73 420.24 245.551 435.789C238.39 453.787 233.244 472.525 225.946 490.476C217.914 510.247 207.014 528.737 191.531 543.601C174.051 560.357 151.761 570.947 128.02 575.275C117.972 577.078 107.763 577.821 97.5601 577.492C97.1305 577.472 97.1691 578.139 97.5987 578.159L97.585 578.231Z" fill="#B4B4B4"/>
<path d="M93.8454 582.417C138.01 585.217 180.791 567.025 206.186 530.175C229.456 496.411 232.478 454.679 250.703 418.708C267.524 385.47 306.282 371.946 341.294 369.43C359.484 368.093 377.773 369.487 395.55 373.566C413.499 377.722 429.176 385.812 445.166 394.678C461.764 403.884 479.435 413.725 498.762 415.026C519.237 416.403 536.01 405.945 549.681 391.551C577.447 362.365 583.882 323.926 589.97 285.685C593.135 265.865 596.789 246.018 604.449 227.385C612.673 207.143 625.734 189.225 642.488 175.201C659.847 160.675 680.125 149.398 701.283 141.453C711.095 137.678 721.251 134.867 731.608 133.059C743.897 131.027 756.888 131.864 769.188 133.429C793.242 136.5 816.366 144.026 839.642 150.48C862.319 156.755 885.175 161.493 908.745 162.085C954.85 163.238 1001.35 151.97 1042.26 130.798C1053.22 125.113 1063.8 118.698 1073.91 111.598C1074.26 111.355 1073.86 110.797 1073.54 111.048C1032.65 139.639 984.87 156.801 935.133 160.763C911.475 162.637 887.67 161.059 864.466 156.077C840.966 150.993 818.192 143.045 794.73 137.539C773.13 132.451 749.596 128.787 727.607 133.174C707.313 137.222 687.742 145.298 669.825 155.573C652.07 165.721 635.135 178.465 622.516 194.699C610.486 210.166 602.356 228.077 597.179 246.906C586.857 284.472 587.601 325.112 570.308 360.681C560.739 380.424 544.552 401.157 523.97 410.122C503.945 418.823 482.788 412.897 464.06 403.912C447.001 395.706 431.19 384.678 413.318 378.143C397.862 372.648 381.685 369.444 365.302 368.63C332.166 366.709 294.91 372.702 268.878 394.835C255.615 406.107 248.174 420.81 242.296 436.939C235.472 455.667 230.82 475.09 223.842 493.782C216.189 514.236 205.444 533.404 189.657 548.714C171.858 565.971 148.864 576.583 124.468 580.404C114.327 581.969 104.046 582.42 93.8068 581.75C93.3767 581.721 93.4242 582.388 93.8454 582.417Z" fill="#B4B4B4"/>
<path d="M90.0179 586.602C134.238 590.819 177.782 573.323 203.337 536.312C227.394 501.485 229.171 458.299 246.45 420.625C262.393 385.785 301.538 371.4 337.413 368.843C356.02 367.489 374.723 369.032 392.856 373.419C411.153 377.894 426.929 386.452 443.052 395.926C459.61 405.679 477.248 416.191 496.764 418.123C517.41 420.151 534.467 409.971 548.246 395.42C562.024 380.869 571.536 363.083 577.202 343.922C582.868 324.762 584.991 304.824 587.561 285.075C590.237 264.526 593.451 243.847 601.016 224.496C609.166 203.527 622.606 185.025 640.029 170.792C657.848 156.204 678.702 145.01 700.4 137.444C710.521 133.788 721.004 131.222 731.67 129.789C744.449 128.22 757.834 129.695 770.464 131.865C794.571 136.022 817.609 144.526 840.831 151.894C863.742 159.137 886.935 164.766 911.007 165.998C957.645 168.352 1005 157.714 1046.58 136.565C1058.1 130.721 1069.18 124.061 1079.75 116.635C1080.1 116.391 1079.7 115.834 1079.37 116.076C1037.59 145.373 988.444 162.403 937.49 165.243C913.795 166.56 890.035 164.345 866.991 158.672C843.115 152.797 820.147 143.799 796.476 137.171C774.612 131.045 750.463 126.025 727.735 129.669C707.229 132.988 687.36 140.689 669.144 150.579C650.462 160.746 632.518 173.797 619.342 190.733C607.053 206.51 599.006 224.933 594.071 244.239C584.191 283.128 586.616 325.054 569.761 362.177C560.572 382.461 544.573 403.835 523.78 413.151C503.432 422.29 481.842 415.836 462.973 406.261C445.982 397.676 430.383 386.145 412.637 379.013C397.156 372.768 380.515 369.456 363.905 368.23C330.137 365.72 291.801 371.562 265.399 394.394C252.223 405.778 244.938 420.569 239.423 436.793C233.005 455.757 228.902 475.407 222.602 494.408C215.45 515.966 205.098 536.362 188.936 552.586C171.01 570.582 147.513 581.607 122.444 585.208C111.747 586.72 100.909 586.954 90.1562 585.907C89.7345 585.869 89.5937 586.519 90.0159 586.566L90.0179 586.602Z" fill="#B4B4B4"/>
<path d="M86.2769 590.793C132.13 596.548 177.696 578.204 202.977 538.763C226.087 502.697 226.169 458.743 243.191 420.352C258.942 384.818 298.991 370.309 335.315 368.101C353.999 366.936 372.749 368.731 390.872 373.42C409.124 378.193 424.748 387.063 440.653 396.942C457.392 407.327 475.226 418.765 495.208 421.206C516.378 423.793 533.916 413.29 547.849 398.168C576.687 366.849 580.947 325.688 585.05 285.214C587.199 264.044 589.864 242.682 597.207 222.586C604.988 201.059 618.44 182.033 636.142 167.521C653.883 152.964 674.691 141.906 696.361 134.485C706.98 130.722 717.98 128.137 729.163 126.777C741.978 125.349 755.298 127.095 767.892 129.562C793.17 134.517 817.152 144.385 841.364 152.981C864.747 161.268 888.479 167.893 913.304 169.786C960.917 173.414 1009.59 163.19 1052.16 141.725C1063.75 135.854 1074.9 129.138 1085.51 121.632C1085.86 121.38 1085.47 120.823 1085.14 121.074C1042.58 151.007 992.214 167.895 940.208 169.676C915.096 170.513 890.012 167.349 865.896 160.3C842.074 153.36 819.219 143.543 795.572 136.083C772.843 128.91 747.808 123.066 723.883 126.842C703.336 130.065 683.379 137.637 665.125 147.494C646.299 157.651 628.246 170.816 615.217 187.993C602.694 204.48 594.856 223.748 590.398 243.892C581.559 283.961 585.295 326.954 568.567 365.194C559.581 385.743 543.528 407.575 522.46 416.756C501.835 425.741 480.128 418.499 461.41 408.434C444.349 399.263 428.788 387.159 410.941 379.516C395.181 372.778 378.11 369.125 361.07 367.727C327.359 364.964 289.074 370.606 262.585 393.328C233.309 418.469 231.105 461.537 220.787 496.238C214.198 518.433 204.339 539.631 188.16 556.507C170.256 575.189 146.504 586.586 120.954 590.037C109.498 591.588 97.889 591.638 86.4204 590.187C85.9977 590.131 85.8568 590.782 86.2795 590.837L86.2769 590.793Z" fill="#B4B4B4"/>
<path d="M82.5401 594.978C105.181 598.479 128.806 596.3 150.029 587.459C171.416 578.537 189.191 562.728 201.353 543.067C212.714 524.693 218.636 503.777 223.31 482.888C227.983 462 231.313 439.949 239.91 420.065C255.496 383.997 296.038 369.379 332.696 367.393C351.583 366.35 370.514 368.368 388.755 373.37C407.494 378.534 423.303 388.125 439.452 398.66C456.018 409.466 473.69 421.341 493.691 424.263C514.8 427.344 532.473 417.173 546.44 402.022C576.07 369.881 579.495 327.402 582.565 285.891C584.189 263.974 586.262 241.79 593.36 220.851C600.868 198.589 614.417 178.852 632.495 163.847C651.254 148.339 672.883 136.676 696.148 129.523C720.096 122.14 743.917 122.119 768.345 127.81C794.006 133.815 818.111 144.728 842.566 154.283C865.926 163.42 889.735 170.896 914.787 173.491C963.724 178.559 1014.16 168.787 1058.03 146.667C1069.61 140.82 1080.74 134.111 1091.32 126.595C1091.67 126.352 1091.27 125.795 1090.95 126.037C1047.48 156.702 995.741 173.46 942.554 174.098C917.405 174.381 892.375 170.612 868.424 162.936C843.969 155.077 820.71 144.132 796.508 135.562C773.408 127.375 748.625 120.954 723.931 123.168C702.682 125.066 681.844 132.671 663.081 142.682C643.807 152.946 625.354 166.464 612.044 184.014C598.953 201.185 591.128 221.462 587.022 242.585C578.984 283.848 584.162 327.855 567.793 367.36C559.049 388.547 542.814 411.086 521.132 420.31C500.269 429.193 478.333 421.063 459.82 410.549C442.728 400.827 427.196 388.159 409.231 380.013C393.458 372.893 376.242 368.899 359.039 367.288C324.855 364.071 285.741 369.591 259.029 392.915C245.35 404.863 238.108 420.384 233.13 437.559C227.229 457.911 224.127 478.959 218.589 499.415C212.47 522.011 203.012 543.667 186.867 560.962C168.602 580.503 143.907 592.115 117.438 595.119C105.883 596.397 94.2097 596.13 82.7255 594.325C82.3022 594.26 82.1614 594.911 82.5846 594.975L82.5401 594.978Z" fill="#B4B4B4"/>
<path d="M78.7997 599.176C101.956 603.397 126.342 601.576 148.178 592.547C169.831 583.592 187.783 567.434 199.716 547.375C211.206 528.136 216.705 506.228 220.978 484.434C225.104 463.176 227.946 441.037 236.132 420.829C251.236 383.53 292.627 368.471 330.083 366.697C349.563 365.753 369.063 368.105 387.761 373.651C406.527 379.287 422.189 389.44 438.229 400.401C454.64 411.617 472.175 423.901 492.187 427.305C513.821 430.98 531.956 420.47 546.053 404.794C576.136 371.377 578.165 327.292 580.261 284.677C581.366 262.585 582.939 240.242 589.608 218.98C596.879 195.665 610.859 175.01 629.801 159.594C648.633 144.341 670.293 132.96 693.538 126.105C718.108 118.819 742.4 119.226 767.15 125.702C793.205 132.523 817.509 144.389 842.174 154.949C865.585 164.966 889.471 173.483 914.798 176.963C964.75 183.829 1016.87 174.78 1062.03 152.558C1074.27 146.52 1086 139.504 1097.11 131.58C1097.46 131.328 1097.06 130.771 1096.74 131.022C1052.02 162.662 998.402 179.281 943.626 178.481C917.173 177.998 890.99 173.055 866.181 163.861C841.808 154.944 818.572 143.167 794.374 133.901C771.693 125.234 747.235 118.25 722.723 119.918C700.986 121.398 679.64 128.872 660.447 138.854C640.697 149.074 621.851 162.722 608.389 180.593C595.08 198.322 587.417 219.222 583.719 240.929C576.367 283.563 583.128 328.844 566.932 369.794C558.363 391.398 542.027 414.809 519.845 423.866C499.117 432.313 477.61 424.042 459.437 413.374C442.112 403.193 426.57 389.864 408.473 380.986C392.434 373.122 374.686 368.74 356.977 366.864C322.347 363.19 282.449 368.568 255.474 392.46C241.525 404.817 234.393 420.867 229.705 438.579C224.124 459.671 221.527 481.421 216.325 502.599C210.693 525.587 201.629 547.729 185.498 565.424C167.252 585.446 142.264 597.236 115.435 600.038C103.252 601.272 90.954 600.764 78.9139 598.526C78.83 598.516 78.7453 598.538 78.6766 598.587C78.6079 598.636 78.56 598.71 78.5424 598.792C78.5248 598.875 78.5388 598.961 78.5816 599.034C78.6243 599.107 78.6928 599.161 78.7736 599.186L78.7997 599.176Z" fill="#B4B4B4"/>
<path d="M75.0612 603.337C98.7057 608.289 123.891 606.859 146.34 597.616C168.483 588.499 186.661 571.765 198.455 551.001C209.561 531.454 214.565 509.333 218.347 487.371C222.128 465.41 224.404 442.563 232.393 421.59C246.835 383.49 288.368 367.798 326.244 366.026C346.344 365.047 366.461 367.603 385.678 373.576C405.007 379.678 420.902 390.612 437.25 402.269C453.597 413.926 470.901 426.528 490.927 430.332C512.372 434.447 530.599 424.289 544.691 408.684C575.777 374.245 576.815 328.611 577.929 284.767C578.521 261.678 579.559 238.26 586.243 216.015C593.161 192.494 607.111 171.654 626.22 156.293C645.435 140.839 668.341 129.633 692.017 122.935C703.319 119.737 715.068 117.469 726.834 117.199C740.534 116.88 754.544 120.059 767.615 123.989C818.798 139.182 862.984 171.82 916.372 180.54C967.436 188.886 1021.2 180.385 1067.61 157.663C1079.94 151.61 1091.75 144.551 1102.92 136.556C1103.27 136.312 1102.87 135.755 1102.54 136.006C1056.99 168.302 1002.1 184.753 946.298 182.834C919.122 181.787 892.334 176.031 867.127 165.823C842.458 155.977 819.06 143.255 794.541 133.052C771.823 123.594 746.403 114.951 721.458 116.841C699.073 118.537 677.012 125.847 657.047 135.9C636.761 146.107 617.226 159.902 603.815 178.493C591.058 196.189 583.907 216.828 580.602 238.235C573.762 282.464 582.237 329.297 566.203 371.987C557.866 394.185 541.228 418.551 518.385 427.459C497.139 435.73 475.317 426.335 457.179 415.049C439.773 404.23 424.175 390.253 405.807 381.007C389.644 372.855 371.68 368.271 353.741 366.292C318.842 362.429 278.456 367.862 251.552 392.357C237.561 405.082 230.683 421.51 226.337 439.577C221.076 461.41 218.973 483.854 214.1 505.771C208.871 529.396 200.045 552.256 183.63 570.45C165.102 590.988 139.385 602.839 111.909 605.097C99.6144 606.079 87.2421 605.276 75.1769 602.715C75.0906 602.696 75.0004 602.712 74.9262 602.76C74.852 602.808 74.7998 602.883 74.7811 602.97C74.7624 603.056 74.7788 603.146 74.8266 603.22C74.8744 603.295 74.9497 603.347 75.036 603.365L75.0612 603.337Z" fill="#B4B4B4"/>
<path d="M71.3241 607.552C95.2212 613.167 120.826 612.195 143.744 603.042C166.662 593.888 185.454 576.369 197.177 554.672C208.134 534.402 212.631 511.533 215.955 488.929C219.28 466.324 221.006 442.768 228.998 421.233C243.539 382.217 286.215 366.539 324.835 365.278C344.927 364.573 364.985 367.432 384.08 373.722C403.639 380.257 419.591 391.866 435.986 404.038C452.381 416.21 469.735 429.371 490.028 433.472C511.704 437.868 530.208 427.408 544.299 411.465C575.679 375.947 575.489 328.991 575.635 284.302C575.714 260.823 576.208 236.963 582.515 214.222C589.263 189.849 602.845 168.659 622.592 152.826C642.338 136.992 666.005 125.662 690.416 119.172C701.843 116.136 713.721 114.084 725.582 114.067C739.861 114.044 754.479 117.867 768.009 122.323C819.544 139.434 863.694 173.921 917.791 184.091C970.095 193.963 1025.66 185.973 1073.42 162.682C1085.75 156.635 1097.56 149.563 1108.71 141.54C1109.06 141.287 1108.66 140.73 1108.35 140.981C1062.28 173.992 1005.17 190.309 948.574 187.157C920.601 185.597 893.727 178.833 868.015 167.762C843.3 157.107 819.929 143.615 795.404 132.547C772.638 122.261 746.864 112.443 721.48 113.528C698.5 114.509 675.708 121.674 655.074 131.721C634.162 141.928 613.83 155.966 600.175 175.124C587.037 193.494 580.156 215.108 577.283 237.338C571.458 282.303 581.012 329.582 565.855 373.212C557.836 396.302 540.929 422.031 517.142 430.967C495.59 439.059 473.642 428.86 455.649 417.155C438.473 405.983 423.139 391.786 405.079 382.013C388.845 373.232 370.588 368.227 352.381 365.933C316.697 361.455 274.945 366.744 247.637 392.262C233.631 405.345 226.991 422.179 222.967 440.575C218.027 463.175 216.436 486.286 211.936 508.94C207.092 533.203 198.531 556.789 181.868 575.479C163.015 596.571 136.559 608.447 108.452 610.144C96.0623 610.869 83.6325 609.784 71.5554 606.923C71.4691 606.904 71.3789 606.92 71.3047 606.968C71.2305 607.016 71.1783 607.091 71.1596 607.178C71.1409 607.264 71.1573 607.354 71.2051 607.428C71.2529 607.503 71.3283 607.555 71.4146 607.574L71.3241 607.552Z" fill="#B4B4B4"/>
<path d="M67.5831 611.75C91.7046 618.004 117.784 617.522 141.144 608.45C164.504 599.378 183.624 581.51 195.293 559.351C206.407 538.242 210.493 514.434 213.404 491.005C216.296 467.721 217.461 443.108 225.619 420.885C240.106 381.399 283.232 365.623 322.214 364.618C343.073 364.007 363.864 367.277 383.528 374.263C402.909 381.264 418.605 393.388 434.74 405.843C450.875 418.298 468.622 432.239 489.18 436.611C511.187 441.327 529.887 430.543 543.973 414.216C575.654 377.573 574.145 329.267 573.322 283.722C572.878 259.524 572.862 234.873 579.137 211.268C585.475 186.486 599.79 164.478 619.874 148.637C640.053 132.716 664.314 121.477 689.228 115.35C700.668 112.528 712.55 110.725 724.364 110.961C739.822 111.254 755.499 115.961 769.894 121.314C820.975 140.307 864.553 175.702 918.517 187.424C972.11 199.068 1029.74 191.701 1079 167.769C1091.42 161.714 1103.29 154.607 1114.49 146.526C1114.85 146.274 1114.45 145.716 1114.12 145.967C1066.46 180.285 1006.56 196.371 948.029 191.206C920.451 188.775 894.141 181.247 869.041 169.659C843.75 157.992 819.96 143.427 794.867 131.339C772.025 120.361 746.107 109.748 720.327 110.302C696.39 110.794 672.465 118.113 651.056 128.518C630.707 138.416 610.908 151.95 597.449 170.472C583.59 189.491 576.654 212.161 574.042 235.358C568.905 281.729 580.032 330.274 565.185 375.421C557.455 398.709 540.864 424.66 517.136 434.003C495.414 442.534 473.289 432.076 455.232 420.018C437.805 408.37 422.464 393.593 404.272 383.078C388.009 373.647 369.495 368.202 350.906 365.636C314.911 360.578 272.658 365.521 244.868 391.049C230.044 404.652 223.278 422.386 219.453 441.752C214.913 464.784 213.802 488.331 209.767 511.45C205.372 536.553 197.099 561.095 179.968 580.49C161.169 601.758 134.579 613.614 106.4 615.146C93.3792 615.809 80.3338 614.456 67.726 611.135C67.3091 611.025 67.1777 611.684 67.5857 611.795L67.5831 611.75Z" fill="#B4B4B4"/>
<path d="M63.8577 615.937C88.812 623.009 116.104 622.822 140.366 613.136C164.296 603.576 183.459 584.759 194.627 561.639C205.063 540.078 208.503 516.075 210.914 492.488C213.325 468.901 214.042 444.109 221.834 421.568C236.032 380.483 280.728 364.384 320.848 363.911C341.697 363.585 362.425 367.157 381.963 374.443C401.684 381.933 417.477 394.809 433.78 407.844C449.895 420.737 467.36 434.891 487.925 439.682C510.354 444.918 529.402 433.82 543.631 417.029C575.79 379.074 572.774 329.096 570.998 282.509C570.07 258.133 569.599 233.321 575.403 209.448C581.648 183.783 595.498 161.516 616.311 145.139C636.636 129.12 661.151 117.946 686.251 111.951C698.294 109.077 710.805 107.327 723.213 107.814C738.851 108.436 754.623 113.548 769.066 119.282C821.267 140.031 865.361 177.868 920.819 191.057C975.263 203.973 1034.28 197.248 1084.6 172.88C1097.11 166.803 1109.06 159.649 1120.32 151.499C1120.66 151.247 1120.27 150.69 1119.95 150.941C1071.38 186.007 1010.15 201.741 950.644 195.454C922.203 192.449 895.312 183.981 869.662 171.372C844.369 158.902 820.617 143.603 795.541 130.737C771.847 118.594 744.847 106.714 717.709 107.097C693.522 107.425 669.302 114.583 647.627 125.012C626.681 135.087 606.33 149.108 592.878 168.389C579.427 187.669 572.918 210.467 570.791 233.707C566.412 281.453 579.111 331.264 564.368 377.896C556.871 401.661 540.053 428.473 515.731 437.574C493.497 445.893 471.066 434.302 453.084 421.704C435.836 409.608 420.612 394.521 402.567 383.613C386.122 373.676 367.196 367.898 348.282 365.109C312.048 359.761 269.253 364.593 241.325 390.522C226.594 404.191 219.863 421.914 216.289 441.292C211.923 465.028 211.308 489.261 207.752 513.11C203.882 538.79 196.255 564.169 179.157 584.285C160.128 606.664 132.636 618.983 103.444 620.127C90.124 620.598 76.8136 618.958 64.0065 615.268C63.5979 615.149 63.4571 615.8 63.8745 615.918L63.8577 615.937Z" fill="#B4B4B4"/>
<path d="M60.1182 620.127C85.2968 627.837 113.038 628.16 137.768 618.545C161.826 609.191 181.107 590.404 192.291 567.255C203.092 544.906 206.216 519.903 208.246 495.446C210.236 471.375 210.489 446.11 217.848 422.897C231.306 380.436 276.691 363.584 317.728 363.236C339.305 362.963 360.729 366.893 380.805 374.806C400.579 382.748 416.281 396.21 432.526 409.64C448.771 423.071 466.585 438.017 487.65 442.966C509.853 448.153 528.738 437.019 542.763 420.401C575.927 380.995 571.355 329.125 568.626 281.175C567.16 255.822 566.232 229.911 572.255 205.044C578.552 179.189 592.681 156.977 613.779 140.726C634.876 124.475 660.657 113.139 686.843 107.714C699.721 105.051 713.177 103.603 726.302 105.075C741.089 106.728 755.753 111.958 769.361 117.758C822.002 140.266 866.113 179.772 922.237 194.448C977.521 208.931 1038.14 202.917 1089.68 178.229C1102.45 172.089 1114.65 164.812 1126.11 156.485C1126.47 156.233 1126.07 155.675 1125.74 155.926C1076.71 191.43 1014.66 206.89 954.61 199.85C925.575 196.45 898.123 187.39 872.188 174.012C846.253 160.633 822.055 144.253 796.471 130.31C773.293 117.682 746.733 104.928 719.89 103.929C695.238 103.007 670.155 109.76 647.825 119.825C626.079 129.643 604.744 143.623 590.532 163.17C576.319 182.718 569.617 206.33 567.636 230.267C563.616 279.269 577.862 329.9 564.253 378.082C557.323 402.707 540.602 430.87 515.683 440.621C493.296 449.387 470.626 437.524 452.628 424.633C435.139 412.068 419.847 396.45 401.711 384.735C385.498 374.311 366.619 368.111 347.692 364.948C310.695 358.761 266.458 363.212 237.859 389.867C222.75 403.95 216.055 422.296 212.756 442.266C208.662 466.994 208.584 492.178 205.298 517.002C201.88 542.78 194.604 568.362 177.715 588.708C158.523 611.801 130.454 624.341 100.635 625.138C86.9415 625.444 73.2888 623.521 60.2125 619.443C59.7946 619.315 59.6626 619.966 60.0717 620.094L60.1182 620.127Z" fill="#B4B4B4"/>
<path d="M56.3772 624.315C81.7624 632.665 109.961 633.488 135.16 623.953C160.07 614.533 179.895 594.946 190.926 570.86C201.231 548.414 203.946 523.462 205.518 499.085C207.159 474.079 206.85 447.9 214.017 423.672C226.95 380.001 273.234 362.659 315.081 362.568C336.868 362.421 358.47 366.573 378.65 374.788C398.577 383.06 414.249 396.917 430.456 410.778C446.89 424.849 464.865 440.58 486.35 446.005C508.995 451.719 528.23 440.315 542.395 423.189C575.863 382.713 569.995 329.418 566.283 280.668C564.339 254.941 562.87 228.615 568.542 203.233C574.461 176.712 588.617 153.874 610.155 137.231C632.11 120.378 658.854 109.012 685.994 103.872C699.088 101.401 712.871 100.202 726.112 102.141C740.912 104.319 755.429 109.79 768.985 115.932C822.064 139.977 866.176 181.223 922.872 197.598C979.15 213.845 1041.51 208.773 1094.47 183.727C1107.62 177.486 1120.15 170.031 1131.92 161.46C1132.26 161.208 1131.87 160.651 1131.54 160.911C1081.42 197.317 1017.6 212.406 956.418 203.976C926.655 199.887 898.743 189.827 872.447 175.452C846.448 161.265 822.245 144.189 796.599 129.481C773.123 116.023 746.158 102.284 718.633 100.753C693.56 99.3557 667.914 105.927 645.111 115.993C622.796 125.852 600.765 140.149 586.501 160.351C572.478 180.236 566.073 203.911 564.448 227.97C561.021 278.589 577.003 330.673 563.547 380.578C556.83 405.485 540.121 434.183 514.949 444.011C492.094 452.875 469.076 440.087 451.046 426.652C433.511 413.591 418.245 397.489 400.03 385.342C383.654 374.418 364.415 367.873 345.111 364.509C307.685 357.998 262.634 362.416 233.935 389.817C218.608 404.44 212.202 423.465 209.23 443.996C205.586 469.252 205.979 494.881 203.089 520.218C200.137 546.336 193.237 572.396 176.409 593.166C157.141 616.969 128.372 629.746 97.9448 630.203C83.8664 630.342 69.8632 628.135 56.5097 623.674C56.1001 623.537 55.9598 624.196 56.3688 624.325L56.3772 624.315Z" fill="#B4B4B4"/>
<path d="M52.6422 628.511C78.8617 637.705 108.311 638.858 134.435 628.644C159.747 618.763 179.431 598.292 189.972 573.458C199.957 549.951 201.949 524.05 203.068 498.815C204.188 473.58 203.345 446.513 210.962 422.036C224.66 378.009 272.068 361.271 314.367 361.904C336.361 362.238 358.602 366.691 378.715 375.702C398.828 384.714 414.461 399.599 430.795 413.961C447.13 428.324 465.097 444.216 486.704 449.446C509.823 455.026 529.137 442.368 543.087 424.763C575.992 383.043 568.501 328.683 563.939 279.437C561.523 253.103 559.561 226.137 565.173 200.017C570.991 172.985 585.427 149.755 607.49 133.065C629.863 116.044 657.198 104.868 684.834 100.127C697.994 97.8665 711.776 96.9622 725.013 99.133C740.115 101.606 754.855 107.528 768.596 114.097C822.128 139.651 866.276 182.582 923.551 200.637C980.826 218.691 1044.85 214.586 1099.26 189.206C1112.79 182.878 1125.67 175.258 1137.73 166.451C1138.08 166.199 1137.69 165.642 1137.36 165.893C1085.9 203.376 1019.95 218.026 957.257 207.934C927.093 203.074 899.036 192.058 872.638 176.841C846.664 161.858 822.454 144.042 796.759 128.65C773.171 114.484 746.005 99.8912 718.107 97.6313C692.415 95.5473 665.897 102.017 642.438 112.157C619.902 121.895 597.682 136.167 583.251 156.424C568.979 176.466 562.658 200.52 561.253 224.834C558.242 276.928 575.876 330.122 563.185 381.678C556.927 407.103 540.679 436.051 515.512 446.762C492.864 456.4 469.699 443.861 451.72 430.37C433.339 416.581 417.644 399.388 398.808 386.215C382.818 375.036 363.954 368.166 344.887 364.44C307.043 357.034 261.152 360.814 231.554 388.106C215.717 402.714 208.869 421.961 206 442.87C202.438 468.781 203.323 495.043 200.999 521.052C198.593 547.968 192.442 575.1 175.553 596.838C156.306 621.613 126.952 634.923 95.7908 635.191C81.1363 635.249 66.5825 632.769 52.7742 627.861C52.3646 627.724 52.2327 628.374 52.6339 628.52L52.6422 628.511Z" fill="#B4B4B4"/>
<path d="M48.8176 632.669C75.0126 642.365 104.581 644.18 131.03 634.358C157.017 624.715 177.366 603.866 187.961 578.404C198.032 554.24 199.661 527.62 200.378 501.756C201.111 475.696 199.754 448.061 207.118 422.768C220.291 377.539 268.661 360.3 311.735 361.227C334.122 361.717 356.772 366.449 377.1 375.931C397.198 385.3 412.756 400.6 428.994 415.307C445.233 430.014 463.397 446.69 485.249 452.432C508.515 458.557 528.131 446.024 542.183 428.173C575.749 385.549 567.225 329.838 561.716 279.816C558.78 253.12 556.231 225.732 561.27 199.12C566.426 171.911 580.183 148.043 602.041 130.909C624.686 113.176 652.732 101.637 681.005 96.8063C694.457 94.5108 708.492 93.6454 722.003 95.7736C737.523 98.214 752.652 104.542 766.644 111.435C821.399 138.383 865.773 183.674 924.113 203.631C982.25 223.475 1048.12 220.423 1103.98 194.708C1117.9 188.286 1131.15 180.487 1143.51 171.429C1143.86 171.177 1143.47 170.619 1143.14 170.87C1090.58 209.291 1022.83 223.493 958.976 211.959C928.11 206.381 899.639 194.372 872.906 178.156C846.664 162.243 822.237 143.6 796.204 127.308C771.944 112.164 743.98 96.582 714.903 94.301C689.133 92.275 662.594 98.5318 638.972 108.636C616.118 118.429 593.517 132.91 579.151 153.645C564.784 174.38 558.872 199.017 557.938 223.911C555.948 276.687 574.494 330.203 562.816 382.619C557.056 408.488 541.236 438.046 516.051 449.517C493.294 459.893 469.953 447.542 451.768 433.751C433.182 419.653 417.458 402.113 398.814 388.098C382.95 376.163 363.971 368.693 344.643 364.455C306.272 356.116 259.242 359.327 228.8 386.847C212.557 401.532 205.404 421.065 202.664 442.359C199.302 468.491 200.565 494.953 198.888 521.211C197.104 549.144 191.74 577.704 174.635 600.623C155.499 626.249 125.656 640.051 93.9187 640.236C78.6234 640.224 63.4552 637.458 49.14 632.071C48.7388 631.924 48.4342 632.522 48.8354 632.668L48.8176 632.669Z" fill="#B4B4B4"/>
<path d="M45.0833 636.863C71.7197 647.247 102.11 649.55 129.223 639.467C155.489 629.709 175.862 608.511 186.266 582.685C196.288 557.81 197.445 530.449 197.778 503.957C198.082 477.109 196.1 448.403 203.677 422.322C216.974 376.452 266.118 359.328 309.749 360.607C332.522 361.298 355.534 366.42 376.042 376.408C396.551 386.397 412.084 402.653 428.523 417.884C444.961 433.115 463.366 450.401 485.741 455.944C509.683 461.869 529.473 447.702 543.234 429.162C575.717 385.378 565.695 328.932 559.372 278.726C555.97 251.691 552.961 223.91 557.706 196.841C562.55 169.186 576.251 144.804 598.417 127.429C621.59 109.273 650.488 97.6402 679.44 93.1271C693.38 90.9462 707.839 90.3241 721.806 92.9079C737.567 95.8252 752.857 102.626 767.016 109.929C822.606 138.809 867.401 186.139 927.091 207.374C985.688 228.217 1052.42 225.874 1109.09 200.051C1123.27 193.566 1136.75 185.641 1149.31 176.401C1149.66 176.148 1149.27 175.591 1148.94 175.842C1095.42 215.095 1026.1 228.852 961.225 216.048C929.769 209.834 900.936 196.98 873.922 179.915C847.362 163.128 822.687 143.607 796.356 126.467C771.993 110.632 743.834 94.1417 714.35 91.1702C687.946 88.5026 660.577 94.611 636.299 104.798C613.042 114.56 589.994 129.183 575.505 150.265C561.015 171.346 555.239 196.779 554.675 222.204C553.497 275.915 573.157 330.027 562.426 383.522C557.184 409.71 542.135 439.008 517.523 451.749C494.238 463.807 469.977 451.126 451.242 436.617C432.287 422.013 416.406 403.768 397.524 389.027C381.689 376.662 362.712 368.771 343.235 364.275C304.282 355.282 256.108 358.167 225.195 386.339C208.857 401.226 201.72 421.034 199.197 442.547C196.049 469.426 197.806 496.574 196.555 523.548C195.245 552.123 190.357 581.351 173.206 605.014C154.086 631.388 123.466 645.485 91.1625 645.292C75.4834 645.11 59.9701 642.06 45.3894 636.292C44.9877 636.137 44.6826 636.726 45.0848 636.89L45.0833 636.863Z" fill="#B4B4B4"/>
<path d="M41.3448 641.054C68.2009 651.996 98.9983 654.847 126.617 644.877C153.868 635.027 174.747 612.835 184.954 585.933C194.654 560.273 195.237 532.24 195.071 505.143C194.926 477.803 192.458 448.402 200.16 421.841C213.764 374.819 264.672 357.933 309.164 360.063C332.202 361.176 355.421 366.795 375.918 377.498C396.672 388.338 412.462 405.793 429.271 421.717C445.492 437.059 464.076 454.513 486.576 459.576C510.734 464.917 530.444 449.523 543.727 430.743C575.649 385.759 564.15 328.301 557.005 277.616C553.176 250.463 549.75 222.555 554.025 195.245C558.463 166.882 572.11 141.726 594.787 123.929C618.274 105.495 647.744 93.8834 677.179 89.5388C691.542 87.4138 706.484 86.9511 720.736 89.8487C736.53 93.0229 751.801 100.101 765.923 107.692C822.264 137.993 867.222 187.223 927.678 210.262C987.157 232.928 1055.66 231.688 1113.85 205.535C1128.42 198.967 1142.25 190.872 1155.12 181.388C1155.46 181.136 1155.07 180.578 1154.75 180.829C1100.06 221.033 1028.93 234.27 962.908 220.005C930.776 213.055 901.546 199.197 874.209 181.169C847.623 163.642 822.937 143.452 796.513 125.639C771.648 108.851 742.845 91.2563 712.403 87.9118C685.539 85.003 657.608 90.9654 632.847 101.279C608.993 111.218 585.443 126.272 571.003 148.207C556.851 169.715 551.599 195.109 551.428 220.548C551.019 275.204 571.8 329.858 562.018 384.495C557.301 410.955 542.849 440.407 518.597 454.118C495.349 467.28 470.923 455.296 451.833 440.521C432.582 425.569 416.614 407.053 397.968 391.459C382.022 378.1 362.828 369.392 342.722 364.352C303.216 354.454 253.923 356.814 222.199 385.31C205.578 400.249 198.188 420.321 195.789 442.113C192.732 469.959 195.031 497.978 194.225 525.863C193.381 554.929 189.091 585.068 171.875 609.324C152.614 636.492 121.467 650.888 88.4393 650.37C72.3643 650.007 56.4986 646.644 41.6583 640.456C41.2561 640.292 40.9515 640.889 41.3537 641.054L41.3448 641.054Z" fill="#B4B4B4"/>
<path d="M37.6059 645.241C65.2697 657.029 97.3857 660.303 125.925 649.575C153.425 639.247 174.114 616.254 183.734 588.76C193.026 562.222 192.906 533.462 192.318 505.702C191.73 477.942 188.814 447.755 196.81 420.721C210.783 373.429 262.421 356.83 307.171 359.41C330.597 360.732 354.177 366.741 374.833 378.033C395.654 389.413 411.445 407.502 428.294 423.816C444.624 439.634 463.521 457.874 486.517 462.889C510.925 468.225 530.649 451.991 543.792 432.951C575.522 386.953 562.778 328.513 554.792 277.323C550.522 249.794 546.529 221.499 550.373 193.679C554.25 165.5 567.142 139.95 589.357 121.885C613.041 102.664 643.231 90.7069 673.283 86.2284C687.894 84.0534 703.042 83.6145 717.592 86.4144C733.984 89.5898 749.754 97.1212 764.293 105.134C821.696 136.82 866.872 188.117 928.23 213.031C988.85 237.667 1059.57 237.476 1119.44 210.62C1134.08 204.027 1147.97 195.886 1160.87 186.337C1161.23 186.085 1160.83 185.528 1160.51 185.787C1104.68 226.95 1031.69 239.651 964.57 223.898C931.345 216.118 901.433 200.943 873.479 181.665C846.463 163.029 821.335 141.839 794.326 123.158C769.382 105.938 740.522 87.9621 709.736 84.5393C682.086 81.4707 653.291 87.6347 627.869 98.3968C603.728 108.629 580.266 124.107 566.151 146.728C552.381 168.821 547.833 194.674 548.213 220.375C549.034 275.452 570.404 330.268 561.63 385.498C557.32 412.524 543.223 442.24 518.978 456.852C495.786 470.824 471.042 458.902 451.84 443.885C432.124 428.459 415.918 409.216 397.118 392.818C381.066 378.859 361.856 369.563 341.318 364.155C301.436 353.618 251.218 355.568 219.003 384.378C202.03 399.551 194.538 420.023 192.297 442.234C189.471 470.522 192.163 499.008 191.866 527.355C191.562 556.505 188.168 586.87 171.759 611.802C152.8 640.63 120.624 656.067 86.4284 655.421C69.7339 654.974 53.282 651.313 37.9728 644.64C37.5795 644.475 37.2749 645.073 37.6682 645.237L37.6059 645.241Z" fill="#B4B4B4"/>
<path d="M33.8673 649.456C62.2675 662.094 95.506 665.794 124.927 654.417C152.34 643.825 172.719 620.547 182.065 592.953C191.438 565.197 190.646 535.155 189.546 506.264C188.501 477.852 185.018 446.645 193.633 419.057C208.854 370.363 263.582 355.014 309.47 359.214C332.799 361.346 356.091 368.067 376.211 380.14C397.34 392.823 413.306 412.536 430.837 429.533C447.038 445.305 466.76 463.907 490.298 466.857C515.267 470.018 534.683 450.481 546.58 430.719C575.84 382.15 559.937 322.171 551.357 270.114C546.758 242.157 542.906 213.211 547.755 185.012C552.644 156.578 567.155 132.015 590.336 114.768C614.537 96.7669 644.537 85.6954 674.392 82.1209C688.158 80.4767 702.294 80.4355 715.922 83.1995C731.275 86.3012 745.961 93.3061 759.62 100.763C819.186 133.261 864.879 187.17 927.168 215.065C988.038 242.328 1062.25 243.016 1123.38 216.434C1138.73 209.74 1153.27 201.323 1166.71 191.346C1167.06 191.094 1166.67 190.536 1166.34 190.787C1108.81 233.325 1033.26 244.639 964.538 227.077C930.068 218.28 899.977 201.42 871.355 180.619C843.778 160.605 817.966 138.249 789.925 118.861C766.226 102.479 739.064 85.6275 710.015 81.533C682.856 77.6951 654.347 83.084 629 92.9848C604.683 102.478 580.419 117.216 565.322 139.056C550.497 160.504 544.968 186.36 544.896 212.115C544.745 268.765 567.501 323.938 561.792 380.776C558.976 409.242 546.686 439.023 523.343 456.725C512.996 464.562 500.523 468.193 487.656 465.787C475.367 463.49 464.285 456.758 454.468 449.373C433.843 433.822 417.237 413.843 398.408 396.314C382.574 381.663 363.538 370.912 342.815 364.917C302.065 352.788 249.891 353.797 216.293 383.071C199.112 398.051 191.071 418.599 188.88 440.887C186.002 470.133 189.258 499.578 189.443 528.861C189.638 558.607 186.896 589.755 170.652 615.526C151.731 645.476 118.741 661.505 83.6407 660.491C66.5485 659.872 49.7427 655.914 34.1709 648.84C33.777 648.667 33.4719 649.255 33.8658 649.429L33.8673 649.456Z" fill="#B4B4B4"/>
</svg>
