<svg width="315" height="386" viewBox="0 0 315 386" fill="none" xmlns="http://www.w3.org/2000/svg">
    <mask id="mask0_21_7" style="mask-type:alpha" maskUnits="userSpaceOnUse" x="16" y="87" width="283" height="283">
        <circle cx="157.218" cy="228.219" r="141" transform="rotate(-97.04 157.218 228.219)" fill="#C4C4C4"/>
    </mask>
    <g mask="url(#mask0_21_7)">
        <path d="M58.7662 408.442C52.3993 377.691 37.5643 350.413 31.0389 319.439C26.4201 297.54 18.6394 276.636 15.2104 254.5C5.96402 194.884 0.330795 134.418 -7.01006 74.5667" stroke="#D8D8D8" stroke-width="0.75" stroke-miterlimit="10"/>
        <path d="M63.5586 407.921C56.7818 377.522 43.6604 349.761 37.0153 319.205C32.1627 296.881 23.4479 276.083 19.9205 253.394C10.7009 194.157 5.28744 133.514 -1.60729 73.9295" stroke="#D8D8D8" stroke-width="0.75" stroke-miterlimit="10"/>
        <path d="M67.4063 407.567C60.8185 377.719 50.312 348.94 43.311 319.173C37.8742 296.035 27.2295 275.193 23.5472 251.576C19.564 225.931 21.0312 200.116 18.1285 174.408C14.3088 140.622 7.73992 107.175 3.78882 73.3037" stroke="#D8D8D8" stroke-width="0.75" stroke-miterlimit="10"/>
        <path d="M70.4737 407.37C64.4753 378.135 57.3084 348.167 49.8657 319.312C43.5672 295.071 30.179 274.124 26.2793 249.073C22.3285 223.364 26.9494 197.875 24.8381 172.13C22.0797 138.615 13.2882 105.936 9.17139 72.5997" stroke="#D8D8D8" stroke-width="0.75" stroke-miterlimit="10"/>
        <path d="M72.9238 407.289C67.7857 378.411 64.1012 347.923 56.6267 319.626C49.8294 293.875 32.3281 272.992 28.3305 246.17C24.4545 220.25 32.8129 195.327 31.7995 169.497C30.5015 136.467 19.0061 104.575 14.5843 71.9512" stroke="#D8D8D8" stroke-width="0.75" stroke-miterlimit="10"/>
        <path d="M74.9298 407.303C70.8739 378.865 71.8704 347.608 63.5389 320.041C55.3297 292.892 33.8896 271.61 29.8304 242.901C26.1433 216.635 38.5889 192.497 38.9213 166.551C39.3265 134.258 24.7715 102.966 19.9638 71.2962" stroke="#D8D8D8" stroke-width="0.75" stroke-miterlimit="10"/>
        <path d="M76.6503 407.372C73.7737 379.101 79.8458 347.741 70.5328 320.466C60.8259 292.042 34.9404 269.928 31.0563 239.373C27.6479 212.589 44.3637 189.416 46.1835 163.356C48.3462 131.914 30.5979 101.117 25.3668 70.5882" stroke="#D8D8D8" stroke-width="0.75" stroke-miterlimit="10"/>
        <path d="M78.263 407.455C76.6071 379.033 88.003 348.436 77.5777 320.967C66.3036 291.274 36.2632 268.152 32.1262 235.795C28.6662 208.675 50.1714 186.099 53.4845 160.137C57.4194 129.665 36.3935 99.2526 30.7674 69.9311" stroke="#D8D8D8" stroke-width="0.75" stroke-miterlimit="10"/>
        <path d="M79.9139 407.546C79.4805 378.662 96.2559 349.606 84.5975 321.453C71.8477 290.664 37.4159 266.25 33.279 232.26C29.8766 204.71 55.9354 182.78 60.7752 156.943C66.315 127.391 42.19 97.4216 36.1876 69.2952" stroke="#D8D8D8" stroke-width="0.75" stroke-miterlimit="10"/>
        <path d="M81.7802 407.616C82.5 378.115 104.483 351.087 91.54 321.913C77.4533 290.171 38.727 264.352 34.6232 228.918C31.3766 200.915 61.7843 179.607 67.9324 153.92C74.8752 125.122 47.8767 95.7901 41.5404 68.632" stroke="#D8D8D8" stroke-width="0.75" stroke-miterlimit="10"/>
        <path d="M84.0461 407.538C85.7641 377.39 112.524 352.573 98.3784 322.228C83.1606 289.647 40.482 262.504 36.4532 225.801C33.3264 197.299 67.67 176.694 74.9889 151.104C83.082 122.809 53.5457 94.3044 46.9515 67.9136" stroke="#D8D8D8" stroke-width="0.75" stroke-miterlimit="10"/>
        <path d="M86.8505 407.395C89.2851 376.604 120.265 353.977 105.025 322.437C97.2829 306.415 83.8842 291.666 72.9698 277.859C61.3422 263.174 40.982 243.047 38.8968 223.143C35.8403 194.068 73.6047 174.321 81.8154 148.691C90.795 120.639 59.1188 93.1645 52.354 67.2684" stroke="#D8D8D8" stroke-width="0.75" stroke-miterlimit="10"/>
        <path d="M90.3704 407.099C93.1036 375.708 127.464 355.161 111.427 322.471C103.351 306.026 89.1439 290.853 77.7535 276.783C65.7466 261.963 44.2199 241.366 42.1415 221.028C39.1084 191.245 79.554 172.647 88.3927 146.799C97.9242 118.729 64.6142 92.3028 57.7882 66.6459" stroke="#D8D8D8" stroke-width="0.75" stroke-miterlimit="10"/>
        <path d="M94.758 406.64C97.2465 374.654 133.969 355.932 117.523 322.304C109.343 305.59 94.4596 290.078 82.7941 275.9C70.4873 260.936 48.4918 240.296 46.3891 219.598C43.2891 188.947 85.5136 171.863 94.523 145.439C104.205 117.039 69.8652 91.7366 63.1324 65.9373" stroke="#D8D8D8" stroke-width="0.75" stroke-miterlimit="10"/>
        <path d="M100.098 406.082C102.631 374.211 139.23 355.303 122.731 321.893C114.441 305.112 99.7491 289.516 88.1112 275.154C75.926 260.114 53.9915 239.315 51.72 218.718C48.3397 188.001 91.1245 171.211 100.085 144.803C109.831 116.102 75.1619 91.3147 68.5399 65.27" stroke="#D8D8D8" stroke-width="0.75" stroke-miterlimit="10"/>
        <path d="M105.902 406.006C108.626 374.616 142.717 354.012 126.558 321.477C118.202 304.645 104.454 288.941 93.1337 274.218C81.4908 259 59.8737 237.507 57.5347 217.261C54.0616 187.261 96.5218 170.128 105.495 144.474C115.53 115.748 80.5375 90.7079 73.897 64.5949" stroke="#D8D8D8" stroke-width="0.75" stroke-miterlimit="10"/>
        <path d="M112.021 406.42C114.45 375.258 144.934 353.094 129.633 321.31C121.488 304.31 108.742 288.402 97.9352 273.102C86.9416 257.511 66.0573 235.263 63.8346 215.225C60.5862 185.902 102.184 169.288 111.17 144.309C121.468 115.671 85.9722 89.9873 79.3291 63.9351" stroke="#D8D8D8" stroke-width="0.75" stroke-miterlimit="10"/>
        <path d="M118.415 407.222C120.115 376.199 146.126 352.412 131.975 321.211C124.192 304.036 112.594 287.714 102.485 271.864C92.2016 255.742 72.456 232.679 70.4774 212.741C67.6883 184.036 107.939 168.597 116.937 144.28C127.463 115.775 91.3534 89.2814 84.6954 63.2713" stroke="#D8D8D8" stroke-width="0.75" stroke-miterlimit="10"/>
        <path d="M125.012 408.324C125.679 377.419 146.566 351.877 133.879 321.19C126.681 303.7 116.252 286.973 106.988 270.534C97.5402 253.756 79.1403 229.921 77.5909 209.95C75.4001 181.766 114.035 168.169 122.892 144.344C133.493 115.96 96.8141 88.6095 90.0953 62.5968" stroke="#D8D8D8" stroke-width="0.75" stroke-miterlimit="10"/>
        <path d="M131.743 409.65C131.192 378.915 146.547 351.497 135.429 321.272C128.877 303.46 119.727 286.242 111.449 269.218C102.925 251.681 86.1497 227.132 85.0594 207.044C83.5661 178.633 121.217 168.653 128.976 144.51C138.489 114.901 102.596 89.0952 95.5139 61.9385" stroke="#D8D8D8" stroke-width="0.75" stroke-miterlimit="10"/>
        <path d="M138.55 411.066C136.745 382.25 146.286 353.685 138.092 325.356C131.288 301.833 120.531 279.271 111.357 256.625C105.192 241.385 93.9198 221.497 93.7773 204.677C93.5503 175.425 129.412 168.255 136.039 142.207C143.241 113.87 107.733 87.4331 100.915 61.2714" stroke="#D8D8D8" stroke-width="0.75" stroke-miterlimit="10"/>
        <path d="M145.378 412.521C142.333 383.535 146.406 354.104 139.32 325.608C133.349 301.73 124.543 278.484 116.825 255.144C111.568 239.258 101.747 219.13 101.908 202.072C102.168 173.827 135.716 167.669 142.198 142.565C149.502 114.327 113.133 86.7062 106.304 60.6165" stroke="#D8D8D8" stroke-width="0.75" stroke-miterlimit="10"/>
        <path d="M152.15 413.89C147.919 384.608 146.764 354.855 140.713 325.848C135.706 301.619 128.729 277.764 122.558 253.82C118.27 237.291 109.961 217.087 110.381 199.765C111.006 172.593 142.13 167.037 148.368 142.9C155.674 114.672 118.625 86.1177 111.704 59.9386" stroke="#D8D8D8" stroke-width="0.75" stroke-miterlimit="10"/>
        <path d="M158.818 415.102C153.516 385.387 147.518 355.83 142.463 326.075C138.307 301.559 133.331 277.175 128.644 252.766C125.359 235.629 118.623 215.513 119.192 197.931C119.995 171.795 148.677 166.46 154.529 143.187C161.684 114.806 124.114 85.5402 117.099 59.2518" stroke="#D8D8D8" stroke-width="0.75" stroke-miterlimit="10"/>
        <path d="M165.312 416.062C159.165 385.868 148.83 356.845 144.738 326.236C141.433 301.515 138.346 276.767 135.151 252.032C132.877 234.357 127.702 214.562 128.317 196.692C129.242 171.549 155.32 165.931 160.646 143.459C167.519 114.669 129.627 85.2413 122.498 58.6042" stroke="#D8D8D8" stroke-width="0.75" stroke-miterlimit="10"/>
        <path d="M171.567 416.679C164.899 386.025 150.91 357.767 147.724 326.33C143.457 284.276 136.476 238.436 137.799 196.196C138.549 172.001 162.104 165.445 166.713 143.615C172.927 114.142 135.224 85.1843 127.92 57.9441" stroke="#D8D8D8" stroke-width="0.75" stroke-miterlimit="10"/>
        <path d="M177.53 416.833C171.108 387.106 154.657 360.532 151.834 329.997C147.794 286.354 146.892 239.803 147.378 196.003C147.641 172.433 170.561 163.436 172.928 141.32C176.112 111.212 140.739 85.373 133.328 57.2694" stroke="#D8D8D8" stroke-width="0.75" stroke-miterlimit="10"/>
        <path d="M183.126 416.463C177.17 386.427 158.881 360.634 156.658 329.743C153.524 286.169 158.012 241.331 157.573 197.635C157.345 174.489 177.303 163.046 178.641 141.087C180.551 109.877 146.375 85.744 138.686 56.6067" stroke="#D8D8D8" stroke-width="0.75" stroke-miterlimit="10"/>
        <path d="M188.485 415.449C182.089 385.689 165.02 358.838 162.809 328.208C159.736 285.785 162.455 241.71 162.612 199.17C162.688 176.036 181.995 162.266 183.184 140.073C184.835 109.298 152.025 84.6338 144.078 55.9414" stroke="#D8D8D8" stroke-width="0.75" stroke-miterlimit="10"/>
        <path d="M193.77 413.797C187.065 382.835 171.779 353.86 169.808 321.991C167.364 282.453 166.825 241.46 167.357 201.866C167.662 178.805 184.336 163.204 186.36 141.079C189.216 109.783 157.599 84.1747 149.473 55.2526" stroke="#D8D8D8" stroke-width="0.75" stroke-miterlimit="10"/>
        <path d="M199.011 411.617C192.676 380.469 180.512 350.262 177.811 318.514C174.611 281.104 171.642 242.124 171.671 204.587C171.688 180.816 187.218 162.485 188.813 139.415C190.921 108.433 162.697 83.5347 154.887 54.6441" stroke="#D8D8D8" stroke-width="0.75" stroke-miterlimit="10"/>
        <path d="M204.205 409.024C192.24 342.489 177.309 275.514 175.812 207.586C175.271 182.805 189.435 161.73 190.505 137.436C191.86 106.96 167.489 82.6638 160.267 53.9626" stroke="#D8D8D8" stroke-width="0.75" stroke-miterlimit="10"/>
        <path d="M209.369 406.13C204.559 373.956 200.869 341.625 195.644 309.513C190.366 277.136 181.651 243.531 179.923 210.766C178.563 184.827 190.351 160.912 191.695 135.243C193.233 105.924 171.977 81.1522 165.663 53.2759" stroke="#D8D8D8" stroke-width="0.75" stroke-miterlimit="10"/>
        <path d="M214.507 403.046C210.74 370.341 212.075 336.684 205.143 304.45C198.746 274.68 186.876 244.407 184.155 214.051C181.727 186.884 191.594 160.062 192.571 132.968C193.545 104.635 176.419 79.9382 171.062 52.6289" stroke="#D8D8D8" stroke-width="0.75" stroke-miterlimit="10"/>
        <path d="M219.65 399.87C217.004 366.946 223.611 331.267 214.812 299.173C207.341 271.883 192.316 245.355 188.642 217.233C184.934 188.843 193.029 159.097 193.316 130.577C193.6 103.256 180.85 78.5828 176.451 51.941" stroke="#D8D8D8" stroke-width="0.75" stroke-miterlimit="10"/>
        <path d="M224.782 396.718C223.239 363.003 235.509 323.411 223.482 291.212C214.796 267.962 196.655 245.324 192.874 220.662C188.564 192.206 194.265 160.367 194.182 131.55C194.104 104.072 185.394 78.3356 181.851 51.2758" stroke="#D8D8D8" stroke-width="0.75" stroke-miterlimit="10"/>
        <path d="M229.932 393.703C229.384 359.724 245.914 318.649 232.882 286.393C224.061 264.569 202.753 247.049 198.278 223.459C192.616 193.931 196.48 159.538 195.425 129.37C194.495 102.914 189.864 76.9157 187.25 50.6077" stroke="#D8D8D8" stroke-width="0.75" stroke-miterlimit="10"/>
        <path d="M235.11 390.937C235.359 357.706 256.675 313.037 241.982 281.933C232.425 261.662 209.488 248.403 204.384 225.758C197.507 195.2 199.279 158.718 197.171 127.289C195.429 101.519 194.519 75.7055 192.657 49.9395" stroke="#D8D8D8" stroke-width="0.75" stroke-miterlimit="10"/>
        <path d="M240.324 388.529C241.078 356.042 266.514 308.103 250.645 278.001C240.529 258.827 216.905 249.562 211.366 227.384C203.433 195.788 202.875 157.981 199.612 125.355C197.065 99.8349 199.412 74.7783 198.036 49.2747" stroke="#D8D8D8" stroke-width="0.75" stroke-miterlimit="10"/>
        <path d="M245.586 386.584C246.226 364.922 251.78 345.847 257.122 324.975C261.209 309.115 267.25 290.151 258.71 274.762C248.408 256.205 225.196 250.275 219.38 228.232C210.719 195.466 207.488 157.466 202.993 123.682C199.564 98.0387 204.629 74.1076 203.45 48.6501" stroke="#D8D8D8" stroke-width="0.75" stroke-miterlimit="10"/>
        <path d="M250.907 385.209C251.448 363.156 257.579 344.182 263.388 323.091C267.671 307.679 274.253 287.712 265.953 272.394C255.956 253.94 234.191 250.26 228.476 228.053C219.701 193.951 213.266 157.022 207.392 122.189C203.021 96.2591 210.147 73.5948 208.784 47.9486" stroke="#D8D8D8" stroke-width="0.75" stroke-miterlimit="10"/>
        <path d="M256.264 384.527C256.726 362.404 262.952 343.468 268.877 322.342C273.172 307.02 279.725 286.815 271.838 271.415C262.357 252.898 241.909 249.357 236.408 227.255C227.729 192.627 219.481 156.677 212.744 121.548C207.742 95.4041 215.672 73.1242 214.183 47.2819" stroke="#D8D8D8" stroke-width="0.75" stroke-miterlimit="10"/>
        <path d="M261.763 384.515C262.317 362.642 268.167 343.601 273.753 322.578C277.887 307.105 284.112 287.262 276.399 271.801C267.215 253.398 247.557 248.51 241.891 226.942C232.95 192.891 224.574 157.702 217.407 123.161C211.838 96.3409 220.569 73.2164 219.618 46.5822" stroke="#D8D8D8" stroke-width="0.75" stroke-miterlimit="10"/>
        <path d="M267.296 385.09C268.005 351.993 295.186 304.474 280.324 273.058C271.624 254.666 253.149 248.01 247.382 227.009C238.252 193.878 229.28 160.143 221.396 126.657C214.842 98.7901 225.156 73.7975 225.021 45.944" stroke="#D8D8D8" stroke-width="0.75" stroke-miterlimit="10"/>
        <path d="M272.867 386.143C273.242 352.625 297.77 306.954 283.764 274.97C275.722 256.516 258.785 247.716 252.887 227.285C243.661 195.334 233.752 163.479 224.983 131.391C217.105 102.519 229.583 74.3981 230.405 45.2375" stroke="#D8D8D8" stroke-width="0.75" stroke-miterlimit="10"/>
        <path d="M278.485 387.559C278.315 353.543 299.77 310.086 286.825 277.386C279.517 259.003 264.872 247.219 258.439 227.842C248.407 197.603 238.137 167.394 228.463 137.031C219.042 107.493 234.02 74.8208 235.811 44.6135" stroke="#D8D8D8" stroke-width="0.75" stroke-miterlimit="10"/>
        <path d="M284.12 389.22C283.317 354.729 301.344 313.539 289.627 280.173C283.143 261.699 270.325 247.402 264.001 228.504C254.345 199.681 242.59 171.479 232.056 142.965C221.076 113.206 238.593 74.8197 241.209 43.9464" stroke="#D8D8D8" stroke-width="0.75" stroke-miterlimit="10"/>
        <path d="M289.769 391C288.153 356.699 301.841 319.209 292.952 285.575C287.791 266.06 275.26 249.038 269.059 229.581C259.918 200.925 244.294 174.441 234.865 145.901C224.984 115.987 243.44 74.1795 246.593 43.2498" stroke="#D8D8D8" stroke-width="0.75" stroke-miterlimit="10"/>
        <path d="M295.433 392.869C293.063 358.581 303.304 322.474 295.496 288.696C290.938 269.006 280.761 249.829 274.537 230.516C265.701 203.103 249.287 178.217 239.458 151.168C233.503 134.774 238.978 117.583 242.315 100.878C246.193 81.4464 249.796 62.3206 252.007 42.611" stroke="#D8D8D8" stroke-width="0.75" stroke-miterlimit="10"/>
        <path d="M301.082 394.639C297.988 360.531 304.908 325.428 298.11 291.677C294.089 271.679 286.226 250.765 280.038 231.337C271.654 205.056 252.316 181.7 244.973 155.201C235.676 121.697 253.449 76.5688 257.395 41.9442" stroke="#D8D8D8" stroke-width="0.75" stroke-miterlimit="10"/>
        <path d="M306.718 396.222C303.007 362.422 306.826 327.994 300.933 294.383C297.051 273.305 291.921 252.476 285.572 232.005C277.71 206.204 258.927 183.425 251.697 157.515C242.177 123.425 259.043 76.5849 262.784 41.2802" stroke="#D8D8D8" stroke-width="0.75" stroke-miterlimit="10"/>
        <path d="M312.278 397.51C305.391 342.156 306.175 286.652 291.104 232.42C283.936 206.604 266.659 183.457 259.849 157.607C250.678 122.748 265.061 76.6074 268.144 40.6183" stroke="#D8D8D8" stroke-width="0.75" stroke-miterlimit="10"/>
        <path d="M317.867 398.38C310.524 343.405 310.413 286.127 297.321 232.004C290.766 204.953 274.669 179.776 268.956 152.521C261.64 117.756 271.875 75.3112 273.603 39.9427" stroke="#D8D8D8" stroke-width="0.75" stroke-miterlimit="10"/>
        <path d="M323.374 398.74C315.964 343.391 312.994 286.869 302.774 231.927C297.422 203.116 285.934 175.284 281.125 146.376C275.366 111.821 279.425 74.2705 278.983 39.2808" stroke="#D8D8D8" stroke-width="0.75" stroke-miterlimit="10"/>
        <path d="M328.811 398.471C313.879 278.536 298.072 158.7 284.371 38.6141" stroke="#D8D8D8" stroke-width="0.75" stroke-miterlimit="10"/>
    </g>
    <path d="M222.757 70.5257C217.947 31.5762 182.473 3.90071 143.524 8.71069C104.574 13.5207 76.8987 48.9947 81.7087 87.9442C86.5187 126.894 121.993 154.569 160.942 149.759C199.892 144.949 227.567 109.475 222.757 70.5257Z" fill="#D83838"/>
</svg>
