<svg width="30" height="7" viewBox="0 0 30 7" fill="none" xmlns="http://www.w3.org/2000/svg">
<path id="Vector 15 (Stroke)" fill-rule="evenodd" clip-rule="evenodd" d="M5.94104 0.16402C6.15601 -0.0546734 6.50454 -0.0546734 6.71951 0.16402L12.1101 5.64804L17.5007 0.16402C17.7156 -0.0546734 18.0642 -0.0546734 18.2791 0.16402L23.6697 5.64804L29.0603 0.16402C29.2753 -0.0546734 29.6238 -0.0546734 29.8388 0.16402C30.0537 0.382714 30.0537 0.737286 29.8388 0.95598L24.059 6.83598C23.844 7.05467 23.4955 7.05467 23.2805 6.83598L17.8899 1.35196L12.4993 6.83598C12.2844 7.05467 11.9358 7.05467 11.7209 6.83598L6.33028 1.35196L0.939692 6.83598C0.724724 7.05467 0.376193 7.05467 0.161226 6.83598C-0.0537419 6.61729 -0.0537419 6.26271 0.161226 6.04402L5.94104 0.16402Z" fill="#D83838"/>
</svg>
