<svg width="465" height="482" viewBox="0 0 465 482" fill="none" xmlns="http://www.w3.org/2000/svg">
    <path d="M427.628 276.9C424.022 247.702 397.429 226.955 368.23 230.561C339.032 234.167 318.285 260.76 321.891 289.958C325.497 319.157 352.09 339.903 381.288 336.298C410.486 332.692 431.233 306.099 427.628 276.9Z" fill="#1C1C1C"/>
    <path d="M284.197 57.1237C258.854 37.3522 222.282 41.8686 202.51 67.2114C182.739 92.5542 187.255 129.127 212.598 148.898C237.941 168.67 274.513 164.153 294.285 138.81C314.056 113.468 309.54 76.8952 284.197 57.1237Z" stroke="#D9D9D9" stroke-miterlimit="10"/>
    <path d="M243.623 103.604L253.18 102.424" stroke="#D9D9D9" stroke-miterlimit="10"/>
    <path d="M247.818 98.2378L248.998 107.795" stroke="#D9D9D9" stroke-miterlimit="10"/>
    <path d="M375.486 221.583L294.198 191.681" stroke="#D9D9D9" stroke-miterlimit="10"/>
    <path d="M379.103 216.947L297.815 187.044" stroke="#D9D9D9" stroke-miterlimit="10"/>
    <path d="M382.724 212.318L301.435 182.405" stroke="#D9D9D9" stroke-miterlimit="10"/>
    <path d="M386.345 207.677L305.056 177.765" stroke="#D9D9D9" stroke-miterlimit="10"/>
    <path d="M389.962 203.036L308.673 173.124" stroke="#D9D9D9" stroke-miterlimit="10"/>
    <path d="M393.58 198.404L312.291 168.491" stroke="#D9D9D9" stroke-miterlimit="10"/>
    <path d="M397.201 193.763L315.912 163.85" stroke="#D9D9D9" stroke-miterlimit="10"/>
    <path d="M400.818 189.126L319.529 159.214" stroke="#D9D9D9" stroke-miterlimit="10"/>
    <path d="M404.429 184.487L323.151 154.583" stroke="#D9D9D9" stroke-miterlimit="10"/>
    <path d="M408.046 179.846L326.768 149.942" stroke="#D9D9D9" stroke-miterlimit="10"/>
    <path d="M411.665 175.208L330.378 145.306" stroke="#D9D9D9" stroke-miterlimit="10"/>
    <path d="M415.283 170.572L333.995 140.669" stroke="#D9D9D9" stroke-miterlimit="10"/>
    <path d="M418.904 165.943L337.615 136.03" stroke="#D9D9D9" stroke-miterlimit="10"/>
    <path d="M422.521 161.302L341.232 131.39" stroke="#D9D9D9" stroke-miterlimit="10"/>
    <path d="M426.142 156.665L344.853 126.753" stroke="#D9D9D9" stroke-miterlimit="10"/>
    <path d="M429.759 152.025L348.47 122.112" stroke="#D9D9D9" stroke-miterlimit="10"/>
    <path d="M110.39 462.772C110.318 462.191 109.789 461.779 109.208 461.85C108.627 461.922 108.214 462.451 108.286 463.032C108.358 463.613 108.887 464.026 109.468 463.954C110.049 463.883 110.462 463.353 110.39 462.772Z" fill="white"/>
    <path d="M118.931 461.718C118.859 461.137 118.33 460.724 117.749 460.796C117.168 460.867 116.755 461.397 116.827 461.978C116.899 462.559 117.428 462.971 118.009 462.9C118.59 462.828 119.003 462.299 118.931 461.718Z" fill="white"/>
    <path d="M127.488 460.659C127.416 460.078 126.887 459.665 126.306 459.737C125.725 459.809 125.312 460.338 125.383 460.919C125.455 461.5 125.984 461.913 126.565 461.841C127.146 461.769 127.559 461.24 127.488 460.659Z" fill="white"/>
    <path d="M134.852 458.694C135.063 458.668 135.276 458.706 135.465 458.803C135.654 458.9 135.809 459.052 135.911 459.238C136.012 459.424 136.056 459.636 136.036 459.847C136.015 460.059 135.932 460.259 135.797 460.422C135.662 460.586 135.48 460.705 135.277 460.764C135.073 460.823 134.856 460.82 134.654 460.755C134.452 460.689 134.275 460.565 134.144 460.398C134.014 460.231 133.937 460.028 133.923 459.816C133.905 459.546 133.991 459.279 134.164 459.07C134.337 458.861 134.583 458.727 134.852 458.694V458.694Z" fill="white"/>
    <path d="M143.398 457.637C143.609 457.609 143.823 457.645 144.013 457.741C144.203 457.836 144.359 457.987 144.463 458.173C144.566 458.358 144.611 458.571 144.592 458.783C144.573 458.994 144.49 459.195 144.356 459.36C144.221 459.524 144.04 459.644 143.836 459.704C143.632 459.764 143.415 459.762 143.212 459.697C143.01 459.632 142.832 459.508 142.701 459.34C142.57 459.173 142.492 458.97 142.478 458.758C142.458 458.488 142.542 458.222 142.714 458.013C142.885 457.804 143.13 457.669 143.398 457.637V457.637Z" fill="white"/>
    <path d="M58.2688 462.397C58.197 461.816 57.6678 461.404 57.0868 461.475C56.5058 461.547 56.093 462.076 56.1647 462.657C56.2365 463.238 56.7657 463.651 57.3467 463.579C57.9277 463.508 58.3405 462.978 58.2688 462.397Z" fill="white"/>
    <path d="M66.8156 461.343C66.7439 460.762 66.2147 460.349 65.6337 460.421C65.0527 460.492 64.6399 461.022 64.7116 461.603C64.7834 462.184 65.3125 462.596 65.8935 462.525C66.4745 462.453 66.8874 461.924 66.8156 461.343Z" fill="white"/>
    <path d="M75.3586 460.284C75.2868 459.703 74.7577 459.29 74.1767 459.362C73.5957 459.434 73.1828 459.963 73.2546 460.544C73.3263 461.125 73.8555 461.538 74.4365 461.466C75.0175 461.394 75.4303 460.865 75.3586 460.284Z" fill="white"/>
    <path d="M83.9133 459.23C83.8415 458.649 83.3124 458.236 82.7314 458.307C82.1504 458.379 81.7375 458.908 81.8093 459.489C81.881 460.07 82.4102 460.483 82.9912 460.411C83.5722 460.34 83.985 459.811 83.9133 459.23Z" fill="white"/>
    <path d="M91.2783 457.251C91.4227 457.218 91.5721 457.217 91.7171 457.246C91.8622 457.275 91.9995 457.334 92.1204 457.419C92.2412 457.504 92.343 457.614 92.419 457.74C92.495 457.867 92.5436 458.009 92.5617 458.155C92.5799 458.302 92.5671 458.451 92.5242 458.592C92.4813 458.734 92.4093 458.865 92.3128 458.977C92.2163 459.089 92.0974 459.18 91.9638 459.243C91.8302 459.306 91.6848 459.341 91.537 459.345C91.2737 459.352 91.0174 459.26 90.8179 459.088C90.6184 458.916 90.49 458.676 90.4577 458.415C90.4254 458.154 90.4916 457.89 90.6433 457.675C90.795 457.459 91.0214 457.308 91.2783 457.251V457.251Z" fill="white"/>
    <path d="M99.833 456.194C100.041 456.168 100.252 456.205 100.439 456.299C100.627 456.393 100.782 456.541 100.885 456.724C100.988 456.906 101.035 457.115 101.02 457.324C101.005 457.533 100.928 457.733 100.799 457.898C100.67 458.063 100.495 458.187 100.296 458.253C100.096 458.318 99.8824 458.324 99.6803 458.268C99.4783 458.212 99.2973 458.097 99.1604 457.939C99.0234 457.78 98.9366 457.584 98.9109 457.376C98.8924 457.238 98.9018 457.097 98.9383 456.962C98.9749 456.828 99.038 456.702 99.1238 456.592C99.2097 456.481 99.3166 456.39 99.4384 456.321C99.5601 456.253 99.6943 456.21 99.833 456.194V456.194Z" fill="white"/>
    <path d="M109.562 456.062C109.49 455.481 108.961 455.068 108.38 455.139C107.799 455.211 107.386 455.74 107.458 456.321C107.529 456.902 108.059 457.315 108.64 457.243C109.221 457.172 109.633 456.643 109.562 456.062Z" fill="white"/>
    <path d="M118.105 455.007C118.033 454.426 117.504 454.013 116.923 454.085C116.342 454.157 115.929 454.686 116.001 455.267C116.072 455.848 116.602 456.261 117.183 456.189C117.764 456.117 118.176 455.588 118.105 455.007Z" fill="white"/>
    <path d="M126.659 453.952C126.588 453.371 126.058 452.958 125.477 453.03C124.896 453.102 124.484 453.631 124.555 454.212C124.627 454.793 125.156 455.206 125.737 455.134C126.318 455.062 126.731 454.533 126.659 453.952Z" fill="white"/>
    <path d="M134.024 451.971C134.232 451.946 134.443 451.982 134.631 452.077C134.818 452.171 134.973 452.318 135.076 452.501C135.18 452.683 135.227 452.892 135.211 453.101C135.196 453.31 135.119 453.51 134.99 453.676C134.861 453.841 134.686 453.964 134.487 454.03C134.288 454.096 134.074 454.101 133.872 454.045C133.67 453.989 133.489 453.875 133.352 453.716C133.215 453.557 133.128 453.361 133.102 453.153C133.068 452.874 133.146 452.593 133.318 452.371C133.491 452.15 133.745 452.006 134.024 451.971V451.971Z" fill="white"/>
    <path d="M142.569 450.918C142.777 450.89 142.989 450.925 143.178 451.018C143.366 451.111 143.523 451.258 143.627 451.44C143.732 451.622 143.781 451.831 143.767 452.04C143.752 452.25 143.676 452.451 143.548 452.617C143.419 452.783 143.244 452.907 143.045 452.974C142.846 453.041 142.631 453.047 142.429 452.991C142.226 452.936 142.045 452.821 141.907 452.662C141.77 452.503 141.683 452.307 141.657 452.099C141.639 451.961 141.648 451.821 141.684 451.687C141.72 451.554 141.782 451.428 141.867 451.318C141.952 451.208 142.057 451.117 142.178 451.048C142.298 450.979 142.431 450.935 142.569 450.918V450.918Z" fill="white"/>
    <path d="M56.2591 454.757C56.4659 454.731 56.6756 454.767 56.862 454.86C57.0485 454.953 57.2033 455.099 57.3073 455.28C57.4112 455.46 57.4597 455.668 57.4465 455.876C57.4334 456.083 57.3592 456.283 57.2334 456.449C57.1075 456.615 56.9355 456.74 56.7389 456.809C56.5422 456.878 56.3297 456.887 56.1277 456.836C55.9258 456.785 55.7434 456.675 55.6034 456.521C55.4635 456.366 55.3721 456.174 55.3407 455.968C55.3194 455.828 55.3263 455.685 55.3612 455.548C55.3961 455.41 55.4582 455.281 55.5439 455.168C55.6295 455.055 55.7369 454.961 55.8598 454.89C55.9826 454.819 56.1184 454.774 56.2591 454.757V454.757Z" fill="white"/>
    <path d="M64.8019 453.702C65.0087 453.676 65.2184 453.713 65.4048 453.806C65.5912 453.899 65.7461 454.045 65.85 454.225C65.954 454.406 66.0024 454.613 65.9892 454.821C65.9761 455.029 65.902 455.228 65.7761 455.394C65.6503 455.56 65.4783 455.686 65.2816 455.754C65.085 455.823 64.8724 455.833 64.6704 455.781C64.4685 455.73 64.2861 455.62 64.1462 455.466C64.0062 455.312 63.9148 455.12 63.8834 454.914C63.8635 454.774 63.8715 454.631 63.9069 454.494C63.9424 454.357 64.0046 454.229 64.09 454.116C64.1754 454.004 64.2823 453.909 64.4045 453.838C64.5266 453.767 64.6617 453.721 64.8019 453.702V453.702Z" fill="white"/>
    <path d="M73.3478 452.645C73.5565 452.607 73.7718 452.632 73.9658 452.718C74.1598 452.804 74.3236 452.946 74.436 453.126C74.5484 453.306 74.6043 453.515 74.5963 453.727C74.5884 453.939 74.517 454.144 74.3914 454.315C74.2659 454.486 74.0919 454.615 73.892 454.686C73.6921 454.757 73.4755 454.767 73.2702 454.713C73.0649 454.66 72.8804 454.546 72.7404 454.387C72.6005 454.227 72.5116 454.03 72.4853 453.819C72.4516 453.55 72.5223 453.279 72.6827 453.06C72.8431 452.842 73.0811 452.693 73.3478 452.645V452.645Z" fill="white"/>
    <path d="M81.9037 451.589C82.1105 451.563 82.3202 451.599 82.5066 451.692C82.693 451.785 82.8479 451.931 82.9518 452.112C83.0558 452.292 83.1042 452.5 83.091 452.708C83.0779 452.915 83.0038 453.115 82.8779 453.281C82.7521 453.447 82.5801 453.572 82.3834 453.641C82.1868 453.71 81.9742 453.719 81.7722 453.668C81.5703 453.617 81.388 453.507 81.248 453.353C81.108 453.198 81.0166 453.006 80.9852 452.8C80.9639 452.66 80.9709 452.517 81.0058 452.38C81.0407 452.242 81.1028 452.113 81.1884 452C81.274 451.887 81.3815 451.793 81.5043 451.722C81.6272 451.651 81.763 451.606 81.9037 451.589V451.589Z" fill="white"/>
    <path d="M90.4494 450.531C90.6581 450.493 90.8734 450.519 91.0674 450.605C91.2614 450.691 91.4252 450.833 91.5376 451.013C91.65 451.193 91.7058 451.402 91.6979 451.614C91.6899 451.826 91.6186 452.031 91.493 452.202C91.3674 452.373 91.1935 452.502 90.9936 452.573C90.7937 452.644 90.5771 452.654 90.3718 452.6C90.1665 452.547 89.9819 452.433 89.842 452.274C89.702 452.114 89.6132 451.916 89.5868 451.706C89.5556 451.437 89.6272 451.167 89.7872 450.949C89.9473 450.731 90.1838 450.582 90.4494 450.531V450.531Z" fill="white"/>
    <path d="M99.0013 449.475C99.2081 449.45 99.4178 449.486 99.6042 449.579C99.7907 449.672 99.9455 449.818 100.049 449.999C100.153 450.179 100.202 450.386 100.189 450.594C100.176 450.802 100.101 451.002 99.9756 451.168C99.8497 451.334 99.6777 451.459 99.4811 451.528C99.2844 451.597 99.0718 451.606 98.8699 451.555C98.668 451.503 98.4856 451.394 98.3456 451.24C98.2057 451.085 98.1143 450.893 98.0829 450.687C98.0616 450.547 98.0685 450.404 98.1034 450.266C98.1383 450.129 98.2004 450 98.2861 449.887C98.3717 449.774 98.4791 449.679 98.602 449.609C98.7248 449.538 98.8606 449.493 99.0013 449.475V449.475Z" fill="white"/>
    <path d="M107.546 448.419C107.753 448.396 107.962 448.434 108.147 448.528C108.332 448.623 108.486 448.769 108.588 448.95C108.691 449.131 108.738 449.338 108.723 449.546C108.709 449.753 108.634 449.952 108.508 450.117C108.381 450.282 108.209 450.406 108.013 450.474C107.816 450.542 107.604 450.551 107.403 450.499C107.201 450.448 107.019 450.338 106.88 450.184C106.74 450.03 106.649 449.838 106.618 449.632C106.597 449.491 106.604 449.348 106.639 449.209C106.675 449.071 106.738 448.942 106.824 448.828C106.911 448.715 107.02 448.621 107.144 448.55C107.268 448.48 107.405 448.436 107.546 448.419V448.419Z" fill="white"/>
    <path d="M72.5197 445.938C72.7289 445.9 72.9446 445.925 73.1389 446.012C73.3332 446.098 73.497 446.24 73.6092 446.421C73.7214 446.602 73.7768 446.812 73.768 447.024C73.7593 447.236 73.687 447.441 73.5603 447.612C73.4337 447.783 73.2587 447.911 73.058 447.981C72.8573 448.051 72.6402 448.059 72.4348 448.004C72.2295 447.95 72.0455 447.834 71.9066 447.673C71.7677 447.512 71.6803 447.313 71.6559 447.102C71.6225 446.834 71.6937 446.564 71.8545 446.347C72.0154 446.13 72.2536 445.983 72.5197 445.938V445.938Z" fill="white"/>
    <path d="M81.0765 444.878C81.2849 444.852 81.4964 444.889 81.6839 444.983C81.8715 445.078 82.0266 445.226 82.1298 445.409C82.2329 445.592 82.2793 445.802 82.2632 446.011C82.247 446.221 82.169 446.421 82.039 446.586C81.909 446.751 81.7329 446.873 81.533 446.938C81.3332 447.003 81.1186 447.007 80.9165 446.949C80.7145 446.892 80.534 446.776 80.3981 446.615C80.2622 446.455 80.1769 446.258 80.1531 446.05C80.1286 445.911 80.1337 445.769 80.1681 445.632C80.2024 445.495 80.2652 445.367 80.3524 445.257C80.4396 445.146 80.5491 445.055 80.6739 444.99C80.7987 444.924 80.9359 444.886 81.0765 444.878Z" fill="white"/>
    <path d="M89.6213 443.824C89.8304 443.786 90.0461 443.812 90.2404 443.898C90.4347 443.985 90.5986 444.127 90.7108 444.308C90.823 444.488 90.8783 444.698 90.8696 444.911C90.8609 445.123 90.7885 445.328 90.6619 445.499C90.5353 445.669 90.3602 445.798 90.1595 445.868C89.9588 445.938 89.7417 445.946 89.5364 445.891C89.3311 445.836 89.147 445.721 89.0081 445.56C88.8692 445.399 88.7819 445.2 88.7575 444.989C88.7266 444.721 88.7987 444.452 88.9591 444.236C89.1195 444.019 89.3563 443.872 89.6213 443.824V443.824Z" fill="white"/>
    <path d="M98.1741 442.768C98.3826 442.742 98.594 442.779 98.7816 442.874C98.9691 442.969 99.1243 443.117 99.2274 443.3C99.3306 443.483 99.377 443.692 99.3608 443.902C99.3447 444.111 99.2666 444.311 99.1366 444.476C99.0066 444.641 98.8305 444.764 98.6307 444.829C98.4308 444.893 98.2163 444.897 98.0142 444.84C97.8121 444.782 97.6317 444.666 97.4957 444.506C97.3598 444.346 97.2746 444.149 97.2508 443.94C97.2263 443.801 97.2314 443.659 97.2657 443.523C97.3001 443.386 97.3629 443.258 97.45 443.147C97.5372 443.037 97.6468 442.946 97.7716 442.88C97.8963 442.815 98.0335 442.777 98.1741 442.768Z" fill="white"/>
    <path d="M106.721 441.714C106.984 441.707 107.24 441.799 107.44 441.97C107.639 442.142 107.768 442.382 107.8 442.644C107.832 442.905 107.766 443.169 107.614 443.384C107.463 443.599 107.236 443.75 106.979 443.808C106.835 443.84 106.686 443.842 106.541 443.813C106.396 443.784 106.258 443.725 106.137 443.64C106.016 443.555 105.915 443.445 105.839 443.318C105.763 443.192 105.714 443.05 105.696 442.903C105.678 442.757 105.691 442.608 105.734 442.466C105.776 442.325 105.848 442.194 105.945 442.082C106.041 441.97 106.16 441.879 106.294 441.816C106.428 441.752 106.573 441.718 106.721 441.714V441.714Z" fill="white"/>
    <path d="M72.8703 440.128C72.7986 439.547 72.2694 439.134 71.6884 439.206C71.1074 439.278 70.6946 439.807 70.7663 440.388C70.8381 440.969 71.3672 441.382 71.9482 441.31C72.5292 441.238 72.9421 440.709 72.8703 440.128Z" fill="white"/>
    <path d="M81.425 439.073C81.3533 438.492 80.8241 438.079 80.2431 438.151C79.6621 438.223 79.2492 438.752 79.321 439.333C79.3927 439.914 79.9219 440.327 80.5029 440.255C81.0839 440.183 81.4968 439.654 81.425 439.073Z" fill="white"/>
    <path d="M88.7892 437.106C88.9984 437.068 89.2141 437.093 89.4084 437.18C89.6027 437.266 89.7666 437.408 89.8788 437.589C89.991 437.77 90.0463 437.98 90.0376 438.192C90.0289 438.404 89.9565 438.609 89.8299 438.78C89.7032 438.951 89.5282 439.079 89.3275 439.149C89.1268 439.219 88.9097 439.227 88.7044 439.172C88.499 439.117 88.315 439.002 88.1761 438.841C88.0372 438.68 87.9499 438.481 87.9255 438.27C87.8946 438.003 87.9666 437.733 88.1271 437.517C88.2875 437.301 88.5243 437.154 88.7892 437.106V437.106Z" fill="white"/>
    <path d="M97.346 436.049C97.5545 436.024 97.7659 436.06 97.9534 436.155C98.141 436.25 98.2962 436.398 98.3993 436.581C98.5024 436.764 98.5489 436.974 98.5327 437.183C98.5165 437.392 98.4385 437.592 98.3085 437.757C98.1785 437.922 98.0024 438.045 97.8025 438.11C97.6027 438.175 97.3881 438.179 97.1861 438.121C96.984 438.064 96.8035 437.947 96.6676 437.787C96.5317 437.627 96.4464 437.43 96.4227 437.221C96.3982 437.083 96.4033 436.94 96.4376 436.804C96.4719 436.667 96.5347 436.539 96.6219 436.429C96.7091 436.318 96.8186 436.227 96.9434 436.162C97.0682 436.096 97.2054 436.058 97.346 436.049V436.049Z" fill="white"/>
    <path d="M107.07 435.905C106.998 435.324 106.469 434.911 105.888 434.983C105.307 435.055 104.894 435.584 104.966 436.165C105.037 436.746 105.566 437.159 106.147 437.087C106.728 437.015 107.141 436.486 107.07 435.905Z" fill="white"/>
    <path d="M115.616 434.851C115.545 434.27 115.016 433.857 114.434 433.929C113.853 434 113.441 434.529 113.512 435.11C113.584 435.691 114.113 436.104 114.694 436.033C115.275 435.961 115.688 435.432 115.616 434.851Z" fill="white"/>
    <path d="M124.169 433.792C124.097 433.211 123.568 432.798 122.987 432.87C122.406 432.942 121.993 433.471 122.065 434.052C122.137 434.633 122.666 435.046 123.247 434.974C123.828 434.902 124.241 434.373 124.169 433.792Z" fill="white"/>
    <path d="M148.18 148.63C143.37 109.68 107.896 82.0048 68.9463 86.8148C29.9968 91.6248 2.32132 127.099 7.13131 166.048C11.9413 204.998 47.4153 232.673 86.3648 227.863C125.314 223.053 152.99 187.579 148.18 148.63Z" fill="#D83838"/>
    <path d="M389.438 283.366C357.694 258.601 311.885 264.258 287.119 296.002C262.354 327.746 268.011 373.555 299.755 398.321C331.499 423.086 377.308 417.429 402.074 385.685C426.839 353.941 421.182 308.132 389.438 283.366Z" stroke="#D9D9D9" stroke-width="2" stroke-miterlimit="10"/>
    <path d="M389.737 295.316C362.631 274.169 323.513 279 302.366 306.106C281.219 333.212 286.049 372.33 313.156 393.477C340.262 414.625 379.379 409.794 400.527 382.688C421.674 355.581 416.843 316.464 389.737 295.316Z" stroke="#D9D9D9" stroke-width="1.8" stroke-miterlimit="10"/>
    <path d="M409.514 341.627C406.021 313.344 380.261 293.248 351.978 296.741C323.695 300.233 303.599 325.993 307.092 354.276C310.584 382.559 336.344 402.655 364.627 399.162C392.91 395.67 413.006 369.91 409.514 341.627Z" stroke="#D9D9D9" stroke-width="1.6" stroke-miterlimit="10"/>
    <path d="M405.794 346.488C403.022 324.048 382.585 308.103 360.145 310.874C337.704 313.645 321.76 334.083 324.531 356.523C327.302 378.963 347.74 394.908 370.18 392.137C392.62 389.366 408.565 368.928 405.794 346.488Z" stroke="#D9D9D9" stroke-width="1.4" stroke-miterlimit="10"/>
    <path d="M402.081 351.348C400.03 334.745 384.909 322.948 368.306 324.999C351.704 327.049 339.907 342.17 341.957 358.773C344.008 375.375 359.129 387.172 375.731 385.122C392.334 383.072 404.131 367.95 402.081 351.348Z" stroke="#D9D9D9" stroke-width="1.2" stroke-miterlimit="10"/>
    <path d="M398.371 356.224C397.042 345.458 387.237 337.809 376.472 339.139C365.707 340.468 358.058 350.273 359.388 361.038C360.717 371.803 370.521 379.452 381.287 378.123C392.052 376.793 399.701 366.989 398.371 356.224Z" stroke="#D9D9D9" stroke-miterlimit="10"/>
    <mask id="mask0_20_4" style="mask-type:alpha" maskUnits="userSpaceOnUse" x="37" y="126" width="283" height="283">
        <circle cx="178.314" cy="267.768" r="141" transform="rotate(-97.04 178.314 267.768)" fill="#C4C4C4"/>
    </mask>
    <g mask="url(#mask0_20_4)">
        <path d="M79.8617 447.992C73.4947 417.24 58.6597 389.963 52.1343 358.989C47.5155 337.09 39.7348 316.186 36.3058 294.049C27.0595 234.433 21.4262 173.968 14.0854 114.116" stroke="#D8D8D8" stroke-width="0.75" stroke-miterlimit="10"/>
        <path d="M84.654 447.47C77.8772 417.071 64.7558 389.31 58.1108 358.754C53.2582 336.431 44.5433 315.632 41.016 292.943C31.7963 233.707 26.3829 173.063 19.4881 113.479" stroke="#D8D8D8" stroke-width="0.75" stroke-miterlimit="10"/>
        <path d="M88.5018 447.116C81.9139 417.268 71.4075 388.489 64.4065 358.723C58.9696 335.585 48.3249 314.742 44.6426 291.125C40.6595 265.48 42.1267 239.666 39.224 213.958C35.4042 180.171 28.8354 146.724 24.8843 112.853" stroke="#D8D8D8" stroke-width="0.75" stroke-miterlimit="10"/>
        <path d="M91.5691 446.92C85.5708 417.684 78.4038 387.717 70.9612 358.862C64.6627 334.621 51.2744 313.674 47.3748 288.623C43.424 262.913 48.0449 237.425 45.9336 211.679C43.1751 178.165 34.3837 145.486 30.2668 112.149" stroke="#D8D8D8" stroke-width="0.75" stroke-miterlimit="10"/>
        <path d="M94.0192 446.839C88.8812 417.961 85.1967 387.472 77.7222 359.175C70.9248 333.424 53.4235 312.542 49.426 285.719C45.5499 259.799 53.9084 234.877 52.8949 209.046C51.5969 176.016 40.1016 144.125 35.6798 111.501" stroke="#D8D8D8" stroke-width="0.75" stroke-miterlimit="10"/>
        <path d="M96.0252 446.852C91.9693 418.415 92.9658 387.157 84.6344 359.59C76.4251 332.442 54.985 311.159 50.9258 282.45C47.2388 256.184 59.6843 232.047 60.0168 206.1C60.4219 173.807 45.867 142.515 41.0592 110.846" stroke="#D8D8D8" stroke-width="0.75" stroke-miterlimit="10"/>
        <path d="M97.7457 446.921C94.8691 418.651 100.941 387.29 91.6283 360.016C81.9213 331.591 56.0358 309.477 52.1517 278.923C48.7433 252.139 65.4592 228.965 67.279 202.906C69.4417 171.464 51.6934 140.667 46.4622 110.138" stroke="#D8D8D8" stroke-width="0.75" stroke-miterlimit="10"/>
        <path d="M99.3584 447.004C97.7026 418.583 109.098 387.985 98.6731 360.516C87.399 330.824 57.3586 307.701 53.2217 275.344C49.7617 248.224 71.2669 225.648 74.5799 199.686C78.5149 169.214 57.489 138.802 51.8629 109.48" stroke="#D8D8D8" stroke-width="0.75" stroke-miterlimit="10"/>
        <path d="M101.009 447.096C100.576 418.211 117.351 389.156 105.693 361.002C92.9432 330.213 58.5114 305.799 54.3744 271.81C50.9721 244.259 77.0309 222.33 81.8706 196.492C87.4104 166.94 63.2855 136.971 57.283 108.845" stroke="#D8D8D8" stroke-width="0.75" stroke-miterlimit="10"/>
        <path d="M102.876 447.165C103.595 417.665 125.579 390.636 112.635 361.463C98.5487 329.72 59.8224 303.902 55.7186 268.468C52.472 240.464 82.8798 219.157 89.0279 193.47C95.9707 164.672 68.9721 135.34 62.6358 108.181" stroke="#D8D8D8" stroke-width="0.75" stroke-miterlimit="10"/>
        <path d="M105.142 447.087C106.859 416.939 133.62 392.122 119.474 361.777C104.256 329.197 61.5774 302.053 57.5487 265.35C54.4219 236.848 88.7655 216.244 96.0843 190.654C104.177 162.359 74.6411 133.854 68.0469 107.463" stroke="#D8D8D8" stroke-width="0.75" stroke-miterlimit="10"/>
        <path d="M107.946 446.944C110.381 416.154 141.361 393.526 126.12 361.986C118.378 345.964 104.98 331.215 94.0652 317.409C82.4377 302.723 62.0775 282.597 59.9922 262.692C56.9357 233.618 94.7002 213.87 102.911 188.241C111.89 160.189 80.2143 132.714 73.4494 106.818" stroke="#D8D8D8" stroke-width="0.75" stroke-miterlimit="10"/>
        <path d="M111.466 446.649C114.199 415.257 148.56 394.711 132.522 362.02C124.446 345.576 110.239 330.403 98.849 316.333C86.8421 301.512 65.3154 280.916 63.237 260.577C60.2039 230.794 100.649 212.197 109.488 186.349C119.02 158.279 85.7096 131.852 78.8836 106.195" stroke="#D8D8D8" stroke-width="0.75" stroke-miterlimit="10"/>
        <path d="M115.853 446.189C118.342 414.203 155.064 395.481 138.619 361.853C130.439 345.14 115.555 329.627 103.89 315.45C91.5827 300.485 69.5872 279.846 67.4845 259.147C64.3845 228.496 106.609 211.412 115.618 184.989C125.301 156.588 90.9606 131.286 84.2278 105.487" stroke="#D8D8D8" stroke-width="0.75" stroke-miterlimit="10"/>
        <path d="M121.194 445.631C123.727 413.76 160.325 394.852 143.826 361.442C135.537 344.662 120.845 329.065 109.207 314.703C97.0214 299.663 75.0869 278.865 72.8154 258.268C69.4352 227.55 112.22 210.76 121.181 184.353C130.927 155.652 96.2573 130.864 89.6353 104.819" stroke="#D8D8D8" stroke-width="0.75" stroke-miterlimit="10"/>
        <path d="M126.998 445.556C129.721 414.165 163.813 393.561 147.653 361.027C139.297 344.194 125.549 328.491 114.229 313.767C102.586 298.549 80.9691 277.057 78.6301 256.811C75.157 226.81 117.617 209.677 126.591 184.024C136.626 155.297 101.633 130.257 94.9924 104.144" stroke="#D8D8D8" stroke-width="0.75" stroke-miterlimit="10"/>
        <path d="M133.117 445.97C135.546 414.807 166.029 392.644 150.728 360.86C142.583 343.86 129.837 327.952 119.031 312.651C108.037 297.061 87.1528 274.813 84.93 254.774C81.6817 225.451 123.279 208.838 132.265 183.858C142.563 155.22 107.068 129.537 100.425 103.484" stroke="#D8D8D8" stroke-width="0.75" stroke-miterlimit="10"/>
        <path d="M139.51 446.771C141.211 415.749 167.222 391.962 153.071 360.761C145.287 343.585 133.689 327.264 123.58 311.413C113.297 295.292 93.5514 272.228 91.5729 252.29C88.7837 223.586 129.035 208.146 138.032 183.83C148.558 155.325 112.449 128.831 105.791 102.821" stroke="#D8D8D8" stroke-width="0.75" stroke-miterlimit="10"/>
        <path d="M146.107 447.873C146.774 416.969 167.661 391.426 154.975 360.74C147.777 343.25 137.348 326.522 128.083 310.084C118.636 293.305 100.236 269.47 98.6864 249.5C96.4956 221.316 135.13 207.718 143.987 183.893C154.588 155.51 117.91 128.159 111.191 102.146" stroke="#D8D8D8" stroke-width="0.75" stroke-miterlimit="10"/>
        <path d="M152.839 449.199C152.288 418.465 167.643 391.046 156.525 360.821C149.972 343.01 140.823 325.791 132.544 308.768C124.02 291.23 107.245 266.681 106.155 246.593C104.662 218.182 142.312 208.202 150.072 184.059C159.584 154.45 123.691 128.645 116.609 101.488" stroke="#D8D8D8" stroke-width="0.75" stroke-miterlimit="10"/>
        <path d="M159.646 450.615C157.84 421.799 167.381 393.235 159.187 364.905C152.383 341.382 141.627 318.82 132.452 296.174C126.288 280.935 115.015 261.046 114.873 244.227C114.646 214.974 150.507 207.805 157.135 181.756C164.336 153.42 128.828 126.982 122.01 100.821" stroke="#D8D8D8" stroke-width="0.75" stroke-miterlimit="10"/>
        <path d="M166.474 452.07C163.428 423.085 167.502 393.654 160.416 365.157C154.444 341.279 145.639 318.033 137.92 294.693C132.664 278.808 122.843 258.679 123.003 241.621C123.263 213.376 156.811 207.218 163.294 182.114C170.598 153.876 134.228 126.256 127.399 100.166" stroke="#D8D8D8" stroke-width="0.75" stroke-miterlimit="10"/>
        <path d="M173.245 453.439C169.015 424.157 167.859 394.404 161.808 365.397C156.801 341.168 149.825 317.314 143.654 293.369C139.366 276.84 131.057 256.636 131.477 239.314C132.101 212.143 163.225 206.586 169.464 182.45C176.769 154.222 139.72 125.667 132.799 99.488" stroke="#D8D8D8" stroke-width="0.75" stroke-miterlimit="10"/>
        <path d="M179.913 454.651C174.611 424.937 168.613 395.379 163.558 365.624C159.402 341.109 154.426 316.725 149.739 292.315C146.454 275.179 139.718 255.063 140.287 237.48C141.09 211.345 169.773 206.009 175.624 182.737C182.78 154.356 145.21 125.09 138.195 98.8012" stroke="#D8D8D8" stroke-width="0.75" stroke-miterlimit="10"/>
        <path d="M186.407 455.611C180.26 425.417 169.925 396.395 165.833 365.786C162.528 341.064 159.442 316.316 156.246 291.581C153.973 273.907 148.798 254.112 149.412 236.242C150.337 211.099 176.415 205.48 181.741 183.008C188.615 154.218 150.722 124.791 143.594 98.1536" stroke="#D8D8D8" stroke-width="0.75" stroke-miterlimit="10"/>
        <path d="M192.662 456.229C185.995 425.575 172.006 397.316 168.819 365.88C164.553 323.826 157.572 277.986 158.895 235.745C159.645 211.551 183.199 204.994 187.808 183.165C194.023 153.691 156.319 124.734 149.016 97.4935" stroke="#D8D8D8" stroke-width="0.75" stroke-miterlimit="10"/>
        <path d="M198.626 456.382C192.204 426.655 175.753 400.081 172.929 369.547C168.89 325.903 167.988 279.353 168.473 235.553C168.736 211.983 191.656 202.986 194.024 180.869C197.208 150.762 161.834 124.922 154.424 96.8188" stroke="#D8D8D8" stroke-width="0.75" stroke-miterlimit="10"/>
        <path d="M204.221 456.013C198.265 425.976 179.976 400.183 177.753 369.293C174.619 325.718 179.107 280.88 178.669 237.185C178.44 214.038 198.398 202.596 199.737 180.636C201.646 149.427 167.471 125.293 159.782 96.1561" stroke="#D8D8D8" stroke-width="0.75" stroke-miterlimit="10"/>
        <path d="M209.58 454.999C203.185 425.238 186.115 398.388 183.904 367.758C180.832 325.335 183.55 281.259 183.708 238.719C183.783 215.585 203.091 201.815 204.28 179.622C205.93 148.848 173.12 124.183 165.174 95.4908" stroke="#D8D8D8" stroke-width="0.75" stroke-miterlimit="10"/>
        <path d="M214.866 453.346C208.161 422.384 192.874 393.409 190.903 361.541C188.459 322.002 187.921 281.009 188.452 241.416C188.758 218.354 205.432 202.753 207.455 180.628C210.311 149.332 178.694 123.724 170.568 94.802" stroke="#D8D8D8" stroke-width="0.75" stroke-miterlimit="10"/>
        <path d="M220.107 451.167C213.771 420.018 201.607 389.812 198.906 358.063C195.707 320.653 192.737 281.673 192.767 244.137C192.783 220.366 208.314 202.034 209.908 178.965C212.017 147.983 183.793 123.084 175.983 94.1935" stroke="#D8D8D8" stroke-width="0.75" stroke-miterlimit="10"/>
        <path d="M225.3 448.574C213.336 382.039 198.404 315.064 196.908 247.135C196.366 222.354 210.53 201.28 211.601 176.985C212.956 146.509 188.584 122.213 181.362 93.512" stroke="#D8D8D8" stroke-width="0.75" stroke-miterlimit="10"/>
        <path d="M230.464 445.679C225.655 413.506 221.964 381.174 216.739 349.063C211.461 316.685 202.747 283.08 201.018 250.315C199.659 224.376 211.446 200.461 212.791 174.793C214.329 145.473 193.072 120.702 186.758 92.8254" stroke="#D8D8D8" stroke-width="0.75" stroke-miterlimit="10"/>
        <path d="M235.603 442.595C231.836 409.891 233.171 376.233 226.238 344C219.841 314.229 207.971 283.956 205.25 253.601C202.822 226.433 212.689 199.612 213.666 172.518C214.641 144.185 197.515 119.488 192.157 92.1783" stroke="#D8D8D8" stroke-width="0.75" stroke-miterlimit="10"/>
        <path d="M240.745 439.419C238.1 406.495 244.707 370.816 235.907 338.723C228.436 311.433 213.411 284.904 209.737 256.782C206.03 228.393 214.125 198.646 214.411 170.126C214.695 142.806 201.945 118.132 197.547 91.4904" stroke="#D8D8D8" stroke-width="0.75" stroke-miterlimit="10"/>
        <path d="M245.878 436.268C244.334 402.553 256.604 362.96 244.577 330.762C235.892 307.511 217.751 284.874 213.969 260.211C209.659 231.755 215.36 199.916 215.278 171.099C215.199 143.622 206.489 117.885 202.946 90.8252" stroke="#D8D8D8" stroke-width="0.75" stroke-miterlimit="10"/>
        <path d="M251.028 433.253C250.479 399.274 267.009 358.198 253.978 325.942C245.157 304.119 223.849 286.598 219.374 263.009C213.712 233.48 217.576 199.087 216.52 168.919C215.591 142.463 210.96 116.465 208.346 90.1571" stroke="#D8D8D8" stroke-width="0.75" stroke-miterlimit="10"/>
        <path d="M256.205 430.487C256.454 397.256 277.77 352.586 263.077 321.483C253.521 301.211 230.583 287.952 225.479 265.307C218.602 234.75 220.374 198.267 218.266 166.839C216.525 141.068 215.614 115.255 213.752 89.4889" stroke="#D8D8D8" stroke-width="0.75" stroke-miterlimit="10"/>
        <path d="M261.42 428.079C262.174 395.592 287.61 347.653 271.741 317.551C261.624 298.376 238.001 289.111 232.461 266.933C224.529 235.337 223.971 197.531 220.708 164.905C218.16 139.384 220.507 114.328 219.131 88.8241" stroke="#D8D8D8" stroke-width="0.75" stroke-miterlimit="10"/>
        <path d="M266.681 426.133C267.321 404.471 272.875 385.397 278.217 364.525C282.304 348.664 288.346 329.701 279.805 314.312C269.503 295.754 246.291 289.824 240.476 267.781C231.815 235.016 228.583 197.015 224.088 163.231C220.66 137.588 225.725 113.657 224.546 88.1995" stroke="#D8D8D8" stroke-width="0.75" stroke-miterlimit="10"/>
        <path d="M272.002 424.758C272.543 402.705 278.674 383.731 284.483 362.64C288.766 347.229 295.349 327.262 287.049 311.943C277.052 293.489 255.287 289.809 249.572 267.602C240.796 233.501 234.361 196.571 228.488 161.738C224.117 135.808 231.243 113.144 229.879 87.498" stroke="#D8D8D8" stroke-width="0.75" stroke-miterlimit="10"/>
        <path d="M277.359 424.076C277.821 401.953 284.047 383.017 289.973 361.892C294.267 346.57 300.82 326.364 292.933 310.965C283.452 292.447 263.004 288.907 257.504 266.804C248.824 232.177 240.576 196.227 233.84 161.098C228.838 134.953 236.767 112.674 235.279 86.8313" stroke="#D8D8D8" stroke-width="0.75" stroke-miterlimit="10"/>
        <path d="M282.859 424.064C283.412 402.191 289.263 383.151 294.848 362.128C298.983 346.654 305.208 326.812 297.495 311.35C288.31 292.947 268.653 288.06 262.987 266.492C254.046 232.441 245.67 197.252 238.502 162.71C232.933 135.89 241.665 112.766 240.713 86.1316" stroke="#D8D8D8" stroke-width="0.75" stroke-miterlimit="10"/>
        <path d="M288.392 424.639C289.101 391.543 316.282 344.023 301.419 312.608C292.719 294.215 274.244 287.56 268.477 266.558C259.348 233.427 250.375 199.692 242.492 166.206C235.937 138.34 246.252 113.347 246.117 85.4935" stroke="#D8D8D8" stroke-width="0.75" stroke-miterlimit="10"/>
        <path d="M293.963 425.693C294.337 392.174 318.865 346.504 304.859 314.519C296.817 296.066 279.881 287.265 273.982 266.834C264.757 234.884 254.848 203.028 246.079 170.941C238.201 142.069 250.678 113.948 251.501 84.7869" stroke="#D8D8D8" stroke-width="0.75" stroke-miterlimit="10"/>
        <path d="M299.581 427.108C299.41 393.093 320.866 349.635 307.92 316.936C300.612 298.553 285.968 286.769 279.534 267.391C269.502 237.153 259.233 206.944 249.558 176.58C240.137 147.042 255.116 114.37 256.907 84.1629" stroke="#D8D8D8" stroke-width="0.75" stroke-miterlimit="10"/>
        <path d="M305.216 428.77C304.412 394.278 322.44 353.088 310.722 319.723C304.239 301.248 291.42 286.951 285.096 268.054C275.441 239.23 263.686 211.028 253.151 182.514C242.171 152.756 259.689 114.369 262.305 83.4958" stroke="#D8D8D8" stroke-width="0.75" stroke-miterlimit="10"/>
        <path d="M310.864 430.549C309.248 396.249 322.937 358.758 314.047 325.124C308.887 305.61 296.356 288.587 290.155 269.131C281.014 240.475 265.39 213.99 255.961 185.45C246.08 155.536 264.535 113.729 267.688 82.7993" stroke="#D8D8D8" stroke-width="0.75" stroke-miterlimit="10"/>
        <path d="M316.528 432.419C314.158 398.131 324.4 362.023 316.591 328.246C312.034 308.556 301.856 289.379 295.633 270.066C286.796 242.652 270.382 217.766 260.553 190.717C254.599 174.323 260.073 157.133 263.411 140.428C267.289 120.996 270.892 101.87 273.103 82.1604" stroke="#D8D8D8" stroke-width="0.75" stroke-miterlimit="10"/>
        <path d="M322.177 434.188C319.083 400.08 326.003 364.978 319.206 331.226C315.184 311.228 307.322 290.314 301.134 270.886C292.75 244.606 273.411 221.25 266.068 194.75C256.772 161.247 274.545 116.118 278.491 81.4936" stroke="#D8D8D8" stroke-width="0.75" stroke-miterlimit="10"/>
        <path d="M327.813 435.771C324.103 401.971 327.922 367.543 322.028 333.932C318.146 312.854 313.017 292.025 306.667 271.555C298.806 245.754 280.022 222.974 272.792 197.065C263.272 162.975 280.138 116.134 283.88 80.8296" stroke="#D8D8D8" stroke-width="0.75" stroke-miterlimit="10"/>
        <path d="M333.373 437.059C326.487 381.706 327.27 326.201 312.2 271.97C305.032 246.154 287.754 223.007 280.945 197.156C271.773 162.298 286.157 116.157 289.239 80.1677" stroke="#D8D8D8" stroke-width="0.75" stroke-miterlimit="10"/>
        <path d="M338.963 437.929C331.62 382.955 331.509 325.677 318.417 271.553C311.862 244.503 295.765 219.326 290.051 192.07C282.735 157.305 292.97 114.861 294.698 79.4921" stroke="#D8D8D8" stroke-width="0.75" stroke-miterlimit="10"/>
        <path d="M344.469 438.29C337.06 382.941 334.09 326.418 323.869 271.477C318.517 242.666 307.03 214.834 302.22 185.925C296.462 151.37 300.52 113.82 300.078 78.8302" stroke="#D8D8D8" stroke-width="0.75" stroke-miterlimit="10"/>
        <path d="M349.906 438.02C334.974 318.086 319.168 198.25 305.466 78.1635" stroke="#D8D8D8" stroke-width="0.75" stroke-miterlimit="10"/>
    </g>
</svg>
